<?xml version="1.0" encoding="utf-8"?>
<!-- Generator: Adobe Illustrator 19.0.1, SVG Export Plug-In . SVG Version: 6.00 Build 0)  -->
<svg version="1.1" width="24px" height="24px" id="Layer_1" xmlns="http://www.w3.org/2000/svg" xmlns:xlink="http://www.w3.org/1999/xlink" x="0px" y="0px"
	 viewBox="0 0 512 512" style="enable-background:new 0 0 512 512;" xml:space="preserve">
<style type="text/css">
	.st0{fill:#F4F4F4;}
	.st1{fill:#CCCCCC;}
</style>
<g>
	<path class="st0" d="M430.7,262.9h-2.4c3.2-11.1,4.9-22.8,4.9-34.9c0-69.5-56.3-125.8-125.8-125.8c-58.1,0-107,39.4-121.5,92.9
		c-10.6-15.6-28.5-25.9-48.7-25.9c-32.5,0-58.8,26.3-58.8,58.8c0,13,4.3,25.1,11.4,34.9h-8.6c-38.3,0-69.4,31.1-69.4,69.4v8.1
		c0,38.3,31.1,69.4,69.4,69.4h349.4c38.3,0,69.4-31.1,69.4-69.4v-8.1C500.1,293.9,469,262.9,430.7,262.9z"/>
	<path class="st1" d="M430.7,421.7H81.3C36.5,421.7,0,385.2,0,340.4v-8.1c0-41.2,30.8-75.3,70.6-80.6c-2.7-7.5-4.1-15.5-4.1-23.7
		c0-39,31.7-70.7,70.7-70.7c16.2,0,31.7,5.5,44.1,15.4c21.6-49.4,71-82.4,126.1-82.4c75.9,0,137.7,61.8,137.7,137.7
		c0,8-0.7,16-2.1,23.9c39,6,69,39.7,69,80.4v8.1C512,385.2,475.5,421.7,430.7,421.7z M81.3,274.7c-31.7,0-57.5,25.8-57.5,57.5v8.1
		c0,31.7,25.8,57.5,57.5,57.5h349.4c31.7,0,57.5-25.8,57.5-57.5v-8.1c0-31.7-25.8-57.5-57.5-57.5h-2.4c-3.7,0-7.2-1.8-9.5-4.7
		c-2.2-3-3-6.8-1.9-10.4c2.9-10.2,4.4-20.8,4.4-31.6c0-62.8-51.1-113.9-113.9-113.9c-51.4,0-96.6,34.6-110,84.1
		c-1.2,4.5-4.9,7.8-9.5,8.6c-4.6,0.8-9.2-1.2-11.8-5.1c-8.8-12.9-23.3-20.7-38.9-20.7c-25.9,0-46.9,21.1-46.9,46.9
		c0,10.1,3.2,19.7,9.1,27.8c2.7,3.6,3.1,8.4,1,12.4c-2,4-6.1,6.5-10.6,6.5H81.3z"/>
</g>
</svg>
