<svg width="12" height="12" viewBox="0 0 12 12" fill="none" xmlns="http://www.w3.org/2000/svg">
<g clip-path="url(#clip0_436_424)">
<path d="M10.1913 6.27136C12.5617 7.60465 12.6083 9.74005 10.2951 11.0411C7.98199 12.3421 4.18532 12.3159 1.81485 10.9827C-0.555628 9.64938 -0.602164 7.51398 1.71098 6.21294C4.02412 4.91191 7.82079 4.93808 10.1913 6.27136Z" fill="#686868"/>
<path d="M11.9939 8.74527L0.012207 8.3722V3.98959L11.9939 4.02787V8.74527Z" fill="#686868"/>
<path d="M10.1852 1.6339C12.5556 2.96718 12.6022 5.10258 10.289 6.40362C7.9759 7.70465 4.17923 7.67848 1.80876 6.3452C-0.561715 5.01191 -0.608252 2.87651 1.70477 1.57548C4.01779 0.274443 7.8147 0.300733 10.1852 1.6339Z" fill="#777777"/>
<path d="M9.79803 1.63925C11.9529 2.85125 11.9951 4.79246 9.89242 5.97502C7.78977 7.15758 4.33841 7.13386 2.18359 5.92197C0.0287648 4.71009 -0.0134536 2.76876 2.0892 1.5862C4.19185 0.403648 7.64321 0.42725 9.79803 1.63925Z" fill="#7F7F7F"/>
<path d="M5.9322 3.2206L5.64435 3.38243C5.61676 3.39797 5.56867 3.39598 5.53688 3.3781L3.57037 2.27196C3.53858 2.25408 3.5351 2.22698 3.56269 2.21155L3.85054 2.04973C3.87813 2.03419 3.92622 2.03617 3.95801 2.05405L5.92453 3.16019C5.95631 3.17807 5.95979 3.20518 5.9322 3.2206Z" fill="#FAFAFA"/>
<path d="M4.46117 1.99307L3.46289 2.55496C3.42197 2.57798 3.35105 2.56711 3.33461 2.53533L2.92637 1.74489C2.90969 1.71253 2.96189 1.68308 3.01961 1.69243L4.42625 1.92097C4.48277 1.9302 4.50209 1.97005 4.46117 1.99307Z" fill="#FAFAFA"/>
<path d="M6.67952 3.64076L6.39167 3.80259C6.36408 3.81813 6.36756 3.84512 6.39934 3.86299L8.36586 4.96914C8.39765 4.98701 8.44574 4.989 8.47333 4.97346L8.76118 4.81163C8.78877 4.79609 8.78529 4.7691 8.75351 4.75123L6.78699 3.64508C6.75508 3.62721 6.70699 3.62522 6.67952 3.64076Z" fill="#FAFAFA"/>
<path d="M8.86248 4.46859L7.86288 5.02978C7.82184 5.0528 7.84116 5.09264 7.8978 5.10188L9.30395 5.33135C9.36155 5.34082 9.41399 5.31137 9.39731 5.27901L8.99076 4.48822C8.97432 4.45656 8.9034 4.44557 8.86248 4.46859Z" fill="#FAFAFA"/>
<path d="M9.4512 1.82538L9.16983 1.66718C9.13804 1.6493 9.08995 1.64732 9.06236 1.66286L7.12739 2.75124C7.0998 2.76678 7.10328 2.79377 7.13506 2.81165L7.41644 2.96985C7.44822 2.98773 7.49632 2.98971 7.5239 2.97417L9.45888 1.88579C9.48647 1.87037 9.48299 1.84326 9.4512 1.82538Z" fill="#FAFAFA"/>
<path d="M8.0362 3.03809L7.01476 2.46322C6.97288 2.43962 6.90232 2.44955 6.8872 2.48122L6.51088 3.26663C6.4954 3.29888 6.54892 3.3289 6.60628 3.32026L8.00404 3.10971C8.06032 3.1013 8.07808 3.06157 8.0362 3.03809Z" fill="#FAFAFA"/>
<path d="M3.16388 5.36176L2.8825 5.20355C2.85072 5.18568 2.84724 5.15857 2.87482 5.14314L4.8098 4.05476C4.83738 4.03922 4.88548 4.04121 4.91726 4.05909L5.19864 4.21729C5.23042 4.23517 5.2339 4.26227 5.20632 4.2777L3.27134 5.36608C3.24388 5.38162 3.19578 5.37963 3.16388 5.36176Z" fill="#FAFAFA"/>
<path d="M5.32052 4.56534L4.29789 3.99118C4.25601 3.96769 4.27365 3.92796 4.32993 3.91944L5.72708 3.70783C5.78432 3.69919 5.83796 3.72922 5.8226 3.76146L5.44808 4.54723C5.43296 4.57889 5.3624 4.58894 5.32052 4.56534Z" fill="#FAFAFA"/>
<path fill-rule="evenodd" clip-rule="evenodd" d="M1.83738 7.7355C0.997181 7.38868 0.26572 6.79386 0.012207 6.4012L0.0122191 5.49429C0.166792 5.98308 0.853402 6.75031 1.99012 7.26776C3.15651 7.79871 4.43443 8.11967 6.01887 8.11967C7.15264 8.11967 8.54006 7.95641 9.56334 7.54473C10.731 7.07498 11.774 6.12931 12.0044 5.49429V6.38487C11.5368 6.99133 10.8241 7.52688 9.83381 7.96592C8.84355 8.40497 7.49483 8.57665 6.01887 8.57665C4.37207 8.57665 3.31133 8.34393 1.83738 7.7355Z" fill="white"/>
</g>
<defs>
<clipPath id="clip0_436_424">
<rect width="12" height="12" fill="white"/>
</clipPath>
</defs>
</svg>
