<svg width="12" height="12" viewBox="0 0 12 12" fill="none" xmlns="http://www.w3.org/2000/svg">
<g clip-path="url(#clip0_436_194)">
<path d="M10.1964 6.27136C12.5681 7.60465 12.6147 9.74005 10.3003 11.0411C7.98603 12.3421 4.18744 12.3159 1.81576 10.9827C-0.555912 9.64938 -0.602472 7.51398 1.71184 6.21294C4.02616 4.91191 7.82475 4.93808 10.1964 6.27136Z" fill="#E53935"/>
<path d="M11.9999 8.74527L0.012207 8.3722V3.98959L11.9999 4.02787V8.74527Z" fill="#E53935"/>
<path d="M10.1903 1.6339C12.562 2.96718 12.6086 5.10258 10.2943 6.40362C7.97994 7.70465 4.18135 7.67848 1.80968 6.3452C-0.562 5.01191 -0.60856 2.87651 1.70564 1.57548C4.01983 0.274443 7.81866 0.300733 10.1903 1.6339Z" fill="#E74C49"/>
<path d="M9.80297 1.63925C11.9589 2.85125 12.0011 4.79246 9.89741 5.97502C7.79369 7.15758 4.34058 7.13386 2.18467 5.92197C0.0287499 4.71009 -0.0134899 2.76876 2.09023 1.5862C4.19394 0.403648 7.64706 0.42725 9.80297 1.63925Z" fill="#EC7471"/>
<path d="M5.93525 3.22057L5.64725 3.38239C5.61965 3.39793 5.57153 3.39595 5.53973 3.37807L3.57221 2.27193C3.54041 2.25405 3.53693 2.22695 3.56453 2.21152L3.85253 2.0497C3.88013 2.03416 3.92825 2.03614 3.96005 2.05402L5.92757 3.16016C5.95937 3.17804 5.96285 3.20515 5.93525 3.22057Z" fill="#FAFAFA"/>
<path d="M4.46263 1.99304L3.46435 2.55493C3.42343 2.57795 3.35251 2.56708 3.33607 2.5353L2.92784 1.74486C2.91116 1.7125 2.96336 1.68305 3.02107 1.6924L4.42771 1.92094C4.48423 1.93017 4.50355 1.97002 4.46263 1.99304Z" fill="#FAFAFA"/>
<path d="M6.68285 3.64076L6.39485 3.80259C6.36725 3.81813 6.37073 3.84512 6.40253 3.86299L8.37005 4.96914C8.40185 4.98701 8.44997 4.989 8.47757 4.97346L8.76557 4.81163C8.79317 4.79609 8.78969 4.7691 8.75789 4.75123L6.79037 3.64508C6.75845 3.62721 6.71033 3.62522 6.68285 3.64076Z" fill="#FAFAFA"/>
<path d="M8.8665 4.46859L7.86691 5.02978C7.82587 5.0528 7.84519 5.09264 7.90183 5.10188L9.30798 5.33135C9.36558 5.34082 9.41802 5.31137 9.40134 5.27901L8.99478 4.48822C8.97834 4.45656 8.90742 4.44557 8.8665 4.46859Z" fill="#FAFAFA"/>
<path d="M9.45605 1.82535L9.17453 1.66715C9.14273 1.64927 9.09461 1.64729 9.06701 1.66282L7.13106 2.75121C7.10346 2.76675 7.10694 2.79374 7.13874 2.81161L7.42026 2.96982C7.45206 2.9877 7.50018 2.98968 7.52778 2.97414L9.46373 1.88576C9.49133 1.87034 9.48785 1.84323 9.45605 1.82535Z" fill="#FAFAFA"/>
<path d="M8.0395 3.03805L7.01806 2.46319C6.97618 2.43959 6.90562 2.44952 6.8905 2.48119L6.51418 3.2666C6.4987 3.29885 6.55222 3.32887 6.60958 3.32023L8.00734 3.10968C8.06362 3.10127 8.08138 3.06154 8.0395 3.03805Z" fill="#FAFAFA"/>
<path d="M3.1655 5.36173L2.88398 5.20352C2.85218 5.18564 2.8487 5.15854 2.8763 5.14311L4.81225 4.05473C4.83985 4.03919 4.88797 4.04118 4.91977 4.05905L5.20129 4.21726C5.23309 4.23514 5.23657 4.26224 5.20897 4.27767L3.27302 5.36605C3.24554 5.38159 3.19742 5.3796 3.1655 5.36173Z" fill="#FAFAFA"/>
<path d="M5.32272 4.56531L4.30008 3.99115C4.2582 3.96766 4.27584 3.92793 4.33212 3.9194L5.72928 3.7078C5.78652 3.69916 5.84016 3.72919 5.8248 3.76143L5.45028 4.5472C5.43516 4.57886 5.3646 4.58891 5.32272 4.56531Z" fill="#FAFAFA"/>
<path fill-rule="evenodd" clip-rule="evenodd" d="M1.83909 7.7355C0.99889 7.38868 0.267429 6.79386 0.013916 6.4012L0.0139281 5.49429C0.168501 5.98308 0.855111 6.75031 1.99183 7.26776C3.15822 7.79871 4.43613 8.11967 6.02058 8.11967C7.15435 8.11967 8.54177 7.95641 9.56504 7.54473C10.7327 7.07498 11.7757 6.12931 12.0061 5.49429V6.38487C11.5385 6.99133 10.8258 7.52688 9.83551 7.96592C8.84526 8.40497 7.49654 8.57665 6.02058 8.57665C4.37378 8.57665 3.31304 8.34393 1.83909 7.7355Z" fill="white"/>
</g>
<defs>
<clipPath id="clip0_436_194">
<rect width="12" height="12" fill="white"/>
</clipPath>
</defs>
</svg>
