<?xml version="1.0" encoding="utf-8"?>
<!-- Generator: Adobe Illustrator 19.0.1, SVG Export Plug-In . SVG Version: 6.00 Build 0)  -->
<svg version="1.1" width="12px" height="12px" id="Layer_1" xmlns="http://www.w3.org/2000/svg" xmlns:xlink="http://www.w3.org/1999/xlink" x="0px" y="0px"
	 viewBox="0 0 512 512" style="enable-background:new 0 0 512 512;" xml:space="preserve">
<style type="text/css">
	.st0{fill:#686868;}
	.st1{fill:#777777;}
	.st2{fill:#7F7F7F;}
	.st3{fill:#FAFAFA;}
</style>
<g>
	<path class="st0" d="M434.789,226.67696c101.19092,58.42262,103.17578,151.9984,4.43338,209.00737
		s-260.82043,55.86298-362.01135-2.55963S-25.9648,281.12631,72.77763,224.11736S333.59805,168.25436,434.789,226.67696z"/>
	<polygon class="st0" points="511.73953,326.85855 0.26046,325.78976 0.26046,182.09917 511.73953,182.09917 	"/>
	<path class="st1" d="M434.789,78.8753c101.19092,58.4226,103.17578,151.99838,4.43338,209.00735
		s-260.82043,55.86298-362.01135-2.55963S-25.9648,133.32465,72.77763,76.31568S333.59805,20.45269,434.789,78.8753z"/>
	<path class="st2" d="M418.26392,79.1092c91.9855,53.10786,93.78986,138.17096,4.03009,189.99377
		s-237.09338,50.7811-329.07886-2.32675S-0.57468,128.60526,89.18507,76.78243S326.27844,26.00135,418.26392,79.1092z"/>
	<g>
		<g>
			<path class="st3" d="M253.24184,148.40526l-12.28668,7.09372c-1.17593,0.67892-3.22997,0.59378-4.58781-0.19017
				l-83.94989-48.4685c-1.35785-0.78395-1.50533-1.96985-0.32939-2.64877l12.28668-7.09372
				c1.17593-0.67892,3.22997-0.59378,4.58781,0.19017l83.94989,48.4685
				C254.27029,146.54044,254.41777,147.72633,253.24184,148.40526z"/>
			<path class="st3" d="M190.40929,94.61426l-42.59535,24.62422c-1.74625,1.0095-4.77261,0.53377-5.4738-0.86046l-17.42065-34.63859
				c-0.714-1.41969,1.51676-2.70929,3.97656-2.29884l60.01602,10.01437C191.32774,91.85804,192.15553,93.60476,190.40929,94.61426z"
				/>
		</g>
		<g>
			<path class="st3" d="M285.13068,166.81462l-12.28668,7.09372c-1.17593,0.67892-1.02847,1.86482,0.32938,2.64877
				l83.94989,48.46849c1.35785,0.78397,3.4119,0.86911,4.58783,0.19019l12.28668-7.09372
				c1.17593-0.67892,1.02847-1.86482-0.32938-2.64879l-83.94992-48.46849
				C288.36063,166.22084,286.30661,166.1357,285.13068,166.81462z"/>
			<path class="st3" d="M378.29941,203.091l-42.65039,24.59245c-1.7485,1.00819-0.9245,2.75546,1.49036,3.16029l59.99579,10.05782
				c2.45898,0.41223,4.69263-0.8757,3.98172-2.29587l-17.3454-34.65027C383.07333,202.56073,380.04791,202.08281,378.29941,203.091z
				"/>
		</g>
		<g>
			<path class="st3" d="M403.46063,87.26566l-12.00986-6.93389c-1.35785-0.78396-3.4119-0.8691-4.58783-0.19018l-82.60339,47.6911
				c-1.17593,0.67892-1.02844,1.86482,0.32941,2.64877l12.00986,6.9339c1.35785,0.78395,3.41187,0.86909,4.5878,0.19017
				l82.60342-47.69109C404.96597,89.23551,404.81848,88.04961,403.46063,87.26566z"/>
			<path class="st3" d="M343.01855,140.40445l-43.57996-25.19197c-1.78659-1.03278-4.79495-0.5968-5.44119,0.78854
				l-16.05579,34.41805c-0.65805,1.41064,1.62427,2.72998,4.06851,2.35184l59.63571-9.22607
				C344.04623,143.17348,344.80518,141.43721,343.01855,140.40445z"/>
		</g>
		<g>
			<path class="st3" d="M135.06262,242.22704l-12.00986-6.9339c-1.35785-0.78395-1.50533-1.96985-0.32939-2.64877l82.6034-47.6911
				c1.17593-0.67892,3.22997-0.59378,4.58781,0.19017l12.00986,6.9339c1.35785,0.78395,1.50533,1.96985,0.32939,2.64877
				l-82.60339,47.6911C138.4745,243.09613,136.42047,243.01099,135.06262,242.22704z"/>
			<path class="st3" d="M227.1017,207.33078l-43.63377-25.1609c-1.78882-1.03149-1.03369-2.76836,1.3658-3.14148l59.6138-9.26979
				c2.44331-0.37994,4.72847,0.93776,4.07352,2.34894l-15.98003,34.43071C231.8978,207.9241,228.8905,208.36229,227.1017,207.33078z
				"/>
		</g>
	</g>
</g>
</svg>
