<svg width="12" height="12" viewBox="0 0 12 12" fill="none" xmlns="http://www.w3.org/2000/svg">
<g clip-path="url(#clip0_1_205)">
<path d="M10.1904 5.31274C12.562 6.68202 12.6085 8.8752 10.2943 10.2113C7.98 11.5475 4.1813 11.5206 1.80963 10.1514C-0.562029 8.78208 -0.60855 6.58889 1.70573 5.25275C4.02 3.9166 7.8187 3.94346 10.1904 5.31274Z" fill="#ADADAD"/>
<path d="M11.9937 7.66074L0.00585938 7.63569V4.26794H11.9937V7.66074Z" fill="#ADADAD"/>
<path d="M10.1904 1.84863C12.562 3.2179 12.6085 5.41109 10.2943 6.74724C7.98 8.08338 4.1813 8.05652 1.80963 6.68724C-0.562029 5.31796 -0.60855 3.12478 1.70573 1.78863C4.02 0.452487 7.8187 0.479345 10.1904 1.84863Z" fill="#BFBFBF"/>
<path d="M9.80338 1.8541C11.9593 3.09882 12.0016 5.09249 9.89783 6.30708C7.79409 7.52168 4.34096 7.49727 2.18505 6.25255C0.0291387 5.00784 -0.013151 3.01417 2.09059 1.79957C4.19434 0.584973 7.64747 0.609389 9.80338 1.8541Z" fill="#CCCCCC"/>
<path d="M5.9353 3.47821L5.64733 3.64447C5.61977 3.66039 5.57162 3.65839 5.5398 3.64002L3.57223 2.50404C3.5404 2.48566 3.53694 2.45787 3.5645 2.44196L3.85247 2.2757C3.88003 2.25978 3.92818 2.26178 3.96 2.28015L5.92758 3.41613C5.9594 3.43451 5.96286 3.4623 5.9353 3.47821Z" fill="#FAFAFA"/>
<path d="M4.46289 2.21749L3.46456 2.79462C3.42363 2.81828 3.3527 2.80713 3.33627 2.77446L2.92797 1.96261C2.91124 1.92934 2.96352 1.89911 3.02117 1.90873L4.4278 2.14345C4.48442 2.15289 4.50382 2.19383 4.46289 2.21749Z" fill="#FAFAFA"/>
<path d="M6.68255 3.90967L6.39458 4.07593C6.36702 4.09184 6.37048 4.11963 6.4023 4.13801L8.36988 5.27399C8.4017 5.29236 8.44984 5.29436 8.47741 5.27845L8.76537 5.11219C8.79294 5.09627 8.78948 5.06848 8.75765 5.05011L6.79008 3.91413C6.75825 3.89575 6.71011 3.89376 6.68255 3.90967Z" fill="#FAFAFA"/>
<path d="M8.86624 4.75992L7.86662 5.3363C7.82564 5.35993 7.84495 5.40088 7.90155 5.41037L9.3077 5.6461C9.36534 5.65576 9.41769 5.62558 9.40102 5.59229L8.99449 4.78018C8.97813 4.74749 8.90722 4.73629 8.86624 4.75992Z" fill="#FAFAFA"/>
<path d="M9.45594 2.04527L9.17446 1.88275C9.14263 1.86438 9.09449 1.86238 9.06693 1.8783L7.13091 2.99606C7.10335 3.01197 7.10681 3.03976 7.13863 3.05814L7.42011 3.22065C7.45194 3.23902 7.50008 3.24102 7.52764 3.22511L9.46366 2.10735C9.49122 2.09143 9.48776 2.06364 9.45594 2.04527Z" fill="#FAFAFA"/>
<path d="M8.03965 3.29068L7.01824 2.70024C6.97637 2.67603 6.90586 2.68625 6.89071 2.71872L6.51441 3.5254C6.49898 3.55846 6.55248 3.58938 6.60976 3.58052L8.00747 3.36428C8.06373 3.35558 8.08152 3.31488 8.03965 3.29068Z" fill="#FAFAFA"/>
<path d="M3.16523 5.67719L2.88375 5.51468C2.85192 5.49631 2.84847 5.46851 2.87603 5.4526L4.81205 4.33484C4.83961 4.31893 4.88775 4.32092 4.91957 4.3393L5.20105 4.50181C5.23288 4.52018 5.23633 4.54798 5.20877 4.56389L3.27276 5.68165C3.2452 5.69756 3.19705 5.69557 3.16523 5.67719Z" fill="#FAFAFA"/>
<path d="M5.32216 4.85932L4.29949 4.26961C4.25757 4.24544 4.27526 4.20473 4.3315 4.19599L5.7287 3.97872C5.78597 3.96982 5.83952 4.0007 5.82417 4.03378L5.44964 4.84075C5.43457 4.87323 5.36408 4.8835 5.32216 4.85932Z" fill="#FAFAFA"/>
<path d="M10.1904 5.31274C12.562 6.68202 12.6085 8.8752 10.2943 10.2113C7.98 11.5475 4.1813 11.5206 1.80963 10.1514C-0.562029 8.78208 -0.60855 6.58889 1.70573 5.25275C4.02 3.9166 7.8187 3.94346 10.1904 5.31274Z" fill="#E53935"/>
<path d="M11.9937 7.66074L0.00585938 7.63569V4.26794H11.9937V7.66074Z" fill="#E53935"/>
<path d="M10.1904 1.84863C12.562 3.2179 12.6085 5.41109 10.2943 6.74724C7.98 8.08338 4.1813 8.05652 1.80963 6.68724C-0.562029 5.31796 -0.60855 3.12478 1.70573 1.78863C4.02 0.452487 7.8187 0.479345 10.1904 1.84863Z" fill="#E74C49"/>
<path d="M9.80338 1.8541C11.9593 3.09882 12.0016 5.09249 9.89783 6.30708C7.79409 7.52168 4.34096 7.49727 2.18505 6.25255C0.0291387 5.00784 -0.013151 3.01417 2.09059 1.79957C4.19434 0.584973 7.64747 0.609389 9.80338 1.8541Z" fill="#EC7471"/>
<path d="M5.9353 3.47821L5.64733 3.64447C5.61977 3.66039 5.57162 3.65839 5.5398 3.64002L3.57223 2.50404C3.5404 2.48566 3.53694 2.45787 3.5645 2.44196L3.85247 2.2757C3.88003 2.25978 3.92818 2.26178 3.96 2.28015L5.92758 3.41613C5.9594 3.43451 5.96286 3.4623 5.9353 3.47821Z" fill="#FAFAFA"/>
<path d="M4.46289 2.21749L3.46456 2.79462C3.42363 2.81828 3.3527 2.80713 3.33627 2.77446L2.92797 1.96261C2.91124 1.92934 2.96352 1.89911 3.02117 1.90873L4.4278 2.14345C4.48442 2.15289 4.50382 2.19383 4.46289 2.21749Z" fill="#FAFAFA"/>
<path d="M6.68255 3.90967L6.39458 4.07593C6.36702 4.09184 6.37048 4.11963 6.4023 4.13801L8.36988 5.27399C8.4017 5.29236 8.44984 5.29436 8.47741 5.27845L8.76537 5.11219C8.79294 5.09627 8.78948 5.06848 8.75765 5.05011L6.79008 3.91413C6.75825 3.89575 6.71011 3.89376 6.68255 3.90967Z" fill="#FAFAFA"/>
<path d="M8.86624 4.75992L7.86662 5.3363C7.82564 5.35993 7.84495 5.40088 7.90155 5.41037L9.3077 5.6461C9.36534 5.65576 9.41769 5.62558 9.40102 5.59229L8.99449 4.78018C8.97813 4.74749 8.90722 4.73629 8.86624 4.75992Z" fill="#FAFAFA"/>
<path d="M9.45594 2.04527L9.17446 1.88275C9.14263 1.86438 9.09449 1.86238 9.06693 1.8783L7.13091 2.99606C7.10335 3.01197 7.10681 3.03976 7.13863 3.05814L7.42011 3.22065C7.45194 3.23902 7.50008 3.24102 7.52764 3.22511L9.46366 2.10735C9.49122 2.09143 9.48776 2.06364 9.45594 2.04527Z" fill="#FAFAFA"/>
<path d="M8.03965 3.29068L7.01824 2.70024C6.97637 2.67603 6.90586 2.68625 6.89071 2.71872L6.51441 3.5254C6.49898 3.55846 6.55248 3.58938 6.60976 3.58052L8.00747 3.36428C8.06373 3.35558 8.08152 3.31488 8.03965 3.29068Z" fill="#FAFAFA"/>
<path d="M3.16523 5.67719L2.88375 5.51468C2.85192 5.49631 2.84847 5.46851 2.87603 5.4526L4.81205 4.33484C4.83961 4.31893 4.88775 4.32092 4.91957 4.3393L5.20105 4.50181C5.23288 4.52018 5.23633 4.54798 5.20877 4.56389L3.27276 5.68165C3.2452 5.69756 3.19705 5.69557 3.16523 5.67719Z" fill="#FAFAFA"/>
<path d="M5.32216 4.85932L4.29949 4.26961C4.25757 4.24544 4.27526 4.20473 4.3315 4.19599L5.7287 3.97872C5.78597 3.96982 5.83952 4.0007 5.82417 4.03378L5.44964 4.84075C5.43457 4.87323 5.36408 4.8835 5.32216 4.85932Z" fill="#FAFAFA"/>
</g>
<defs>
<clipPath id="clip0_1_205">
<rect width="12" height="12" fill="white"/>
</clipPath>
</defs>
</svg>
