<svg width="12" height="12" viewBox="0 0 12 12" fill="none" xmlns="http://www.w3.org/2000/svg">
<g clip-path="url(#clip0_1_3)">
<mask id="mask0_1_3" style="mask-type:luminance" maskUnits="userSpaceOnUse" x="0" y="0" width="12" height="12">
<path d="M12 0H0V12H12V0Z" fill="white"/>
</mask>
<g mask="url(#mask0_1_3)">
<path d="M0.0466671 6.6828L1.73407 10.8497C1.84558 11.125 2.13368 11.2857 2.42655 11.2358L11.473 9.69601C11.9143 9.62089 12.1401 9.12368 11.9063 8.74194L9.58144 4.94699C9.45006 4.73253 9.20412 4.61627 8.95501 4.65087L0.545977 5.81879C0.137884 5.87547 -0.107981 6.30092 0.0466671 6.6828Z" fill="#E53935"/>
<path d="M11.9908 9.32117L0.000283813 6.45229L0 2.51385L11.9908 5.66541V9.32117Z" fill="#E53935"/>
<path d="M0.0455226 2.74312L1.98582 7.40469C2.09459 7.67329 2.37563 7.83002 2.66132 7.78139L11.4859 6.27933C11.9164 6.20605 12.1367 5.72104 11.9086 5.34866L9.34648 1.04987C9.21832 0.84067 8.97841 0.727262 8.7354 0.761012L0.532589 1.90029C0.134504 1.95558 -0.105333 2.3706 0.0455226 2.74312Z" fill="#E74C49"/>
<path d="M0.625309 2.92017L2.30452 7.0304C2.40326 7.27423 2.65838 7.4165 2.91771 7.37236L10.9284 6.00884C11.3192 5.94232 11.5192 5.50204 11.3121 5.16401L9.06841 1.3831C8.95207 1.19319 8.73428 1.09025 8.51369 1.12088L1.06745 2.15508C0.706082 2.20527 0.488366 2.58201 0.625309 2.92017Z" fill="#EC7471"/>
<path d="M1.75114 4.49361L1.95894 4.75789C1.9826 4.78798 2.02838 4.80856 2.06119 4.80384L3.46579 4.60409C3.4986 4.59937 3.50602 4.57116 3.48236 4.54107L3.27456 4.27678C3.25091 4.24669 3.20513 4.22612 3.17232 4.23084L1.76771 4.43059C1.7349 4.4353 1.72748 4.46352 1.75114 4.49361Z" fill="#FAFAFA"/>
<path d="M2.70322 3.97094L3.4585 4.9326C3.48947 4.97203 3.56176 4.98928 3.58927 4.96382L4.27263 4.33113C4.30064 4.3052 4.26109 4.25484 4.20212 4.24135L2.76347 3.91238C2.70557 3.89913 2.67225 3.93151 2.70322 3.97094Z" fill="#FAFAFA"/>
<path d="M6.64511 2.61615L6.96201 2.7709C6.99809 2.78852 7.04706 2.78816 7.07138 2.77008L8.10485 2.00342C8.12917 1.98534 8.11964 1.95641 8.08356 1.93879L7.76666 1.78403C7.73057 1.76642 7.68161 1.76678 7.65729 1.78486L6.62382 2.55152C6.5995 2.5696 6.60903 2.59853 6.64511 2.61615Z" fill="#FAFAFA"/>
<path d="M7.1271 1.74398L8.27953 2.30744C8.32678 2.33054 8.39567 2.31602 8.40415 2.28118L8.61465 1.41558C8.62327 1.38011 8.56292 1.3506 8.50706 1.36298L7.14413 1.66512C7.08927 1.67727 7.07985 1.72088 7.1271 1.74398Z" fill="#FAFAFA"/>
<path d="M7.70598 4.70547L7.96567 4.49196C7.99524 4.46765 8.04437 4.45739 8.0754 4.46904L9.39375 4.96277C9.42479 4.97442 9.42598 5.00357 9.39641 5.02788L9.13672 5.2414C9.10716 5.26571 9.05803 5.27597 9.02699 5.26432L7.70864 4.77058C7.67761 4.75893 7.67642 4.72978 7.70598 4.70547Z" fill="#FAFAFA"/>
<path d="M8.51255 5.4173L9.45667 4.6402C9.49538 4.60834 9.5697 4.607 9.5911 4.63778L10.1227 5.40242C10.1445 5.43376 10.095 5.47445 10.0346 5.47497L8.55884 5.48743C8.49944 5.48793 8.47385 5.44916 8.51255 5.4173Z" fill="#FAFAFA"/>
<path d="M7.45448 3.48958L7.67141 3.74641C7.69611 3.77565 7.74258 3.79461 7.77521 3.78874L9.16097 3.5408C9.1936 3.53493 9.20004 3.50648 9.17534 3.47723L8.9584 3.2204C8.9337 3.19115 8.88723 3.1722 8.8546 3.17807L7.46884 3.42601C7.43621 3.43188 7.42978 3.46033 7.45448 3.48958Z" fill="#FAFAFA"/>
<path d="M8.37611 2.93477L9.16465 3.86936C9.19698 3.90768 9.26984 3.9224 9.29644 3.89598L9.9572 3.23972C9.98428 3.21283 9.94298 3.16388 9.88358 3.15247L8.43428 2.87414C8.37595 2.86294 8.34379 2.89646 8.37611 2.93477Z" fill="#FAFAFA"/>
<path d="M5.91991 4.80085C6.63831 4.80085 7.22068 4.43274 7.22068 3.97864C7.22068 3.52455 6.63831 3.15643 5.91991 3.15643C5.20151 3.15643 4.61914 3.52455 4.61914 3.97864C4.61914 4.43274 5.20151 4.80085 5.91991 4.80085Z" fill="#FAFAFA"/>
</g>
</g>
<defs>
<clipPath id="clip0_1_3">
<rect width="12" height="12" fill="white"/>
</clipPath>
</defs>
</svg>
