<svg width="12" height="12" viewBox="0 0 12 12" fill="none" xmlns="http://www.w3.org/2000/svg">
<g clip-path="url(#clip0_299_213)">
<path d="M0.046667 6.6828L1.73407 10.8497C1.84558 11.125 2.13368 11.2857 2.42655 11.2358L11.473 9.69601C11.9143 9.62089 12.1401 9.12368 11.9063 8.74194L9.58144 4.94699C9.45006 4.73253 9.20412 4.61627 8.95501 4.65087L0.545977 5.81879C0.137884 5.87547 -0.107981 6.30092 0.046667 6.6828Z" fill="#ADADAD"/>
<path d="M11.9908 9.32117L0.000283813 6.45228L0 2.51385L11.9908 5.6654V9.32117Z" fill="#ADADAD"/>
<path d="M0.0455226 2.74312L1.98582 7.40469C2.09459 7.67329 2.37563 7.83002 2.66132 7.78139L11.4859 6.27933C11.9164 6.20605 12.1367 5.72104 11.9086 5.34866L9.34648 1.04987C9.21832 0.84067 8.97841 0.727262 8.7354 0.761012L0.532589 1.90029C0.134504 1.95558 -0.105333 2.3706 0.0455226 2.74312Z" fill="#BFBFBF"/>
<path d="M0.624821 2.9202L2.30403 7.03043C2.40277 7.27426 2.65789 7.41653 2.91722 7.37239L10.9279 6.00887C11.3187 5.94235 11.5187 5.50207 11.3116 5.16404L9.06792 1.38313C8.95158 1.19322 8.73379 1.09028 8.5132 1.12091L1.06696 2.15511C0.705594 2.2053 0.487878 2.58204 0.624821 2.9202Z" fill="#CCCCCC"/>
<path d="M1.75151 4.49361L1.95931 4.75789C1.98297 4.78798 2.02875 4.80856 2.06156 4.80384L3.46616 4.60409C3.49897 4.59937 3.50639 4.57116 3.48273 4.54107L3.27493 4.27678C3.25128 4.24669 3.2055 4.22612 3.17269 4.23084L1.76808 4.43059C1.73527 4.4353 1.72785 4.46352 1.75151 4.49361Z" fill="#FAFAFA"/>
<path d="M2.70298 3.97094L3.45826 4.9326C3.48923 4.97203 3.56152 4.98928 3.58903 4.96382L4.27239 4.33113C4.3004 4.3052 4.26085 4.25484 4.20188 4.24135L2.76323 3.91238C2.70533 3.89913 2.67201 3.93151 2.70298 3.97094Z" fill="#FAFAFA"/>
<path d="M6.64462 2.61615L6.96152 2.7709C6.9976 2.78852 7.04657 2.78816 7.07089 2.77008L8.10436 2.00342C8.12868 1.98534 8.11915 1.95641 8.08307 1.93879L7.76617 1.78403C7.73008 1.76642 7.68112 1.76678 7.6568 1.78486L6.62333 2.55152C6.59901 2.5696 6.60854 2.59853 6.64462 2.61615Z" fill="#FAFAFA"/>
<path d="M7.12734 1.74395L8.27977 2.30741C8.32702 2.33051 8.39591 2.31599 8.40439 2.28115L8.61489 1.41555C8.62351 1.38008 8.56316 1.35057 8.5073 1.36295L7.14437 1.66509C7.08951 1.67724 7.08009 1.72085 7.12734 1.74395Z" fill="#FAFAFA"/>
<path d="M7.70611 4.70544L7.9658 4.49193C7.99537 4.46762 8.0445 4.45736 8.07553 4.46901L9.39388 4.96274C9.42492 4.97439 9.42611 5.00354 9.39654 5.02785L9.13685 5.24137C9.10729 5.26568 9.05816 5.27594 9.02712 5.26429L7.70877 4.77055C7.67774 4.7589 7.67655 4.72975 7.70611 4.70544Z" fill="#FAFAFA"/>
<path d="M8.51255 5.4173L9.45667 4.6402C9.49538 4.60834 9.5697 4.607 9.5911 4.63778L10.1227 5.40242C10.1445 5.43376 10.095 5.47445 10.0346 5.47497L8.55884 5.48743C8.49944 5.48793 8.47385 5.44916 8.51255 5.4173Z" fill="#FAFAFA"/>
<path d="M7.45484 3.48955L7.67178 3.74638C7.69648 3.77562 7.74295 3.79458 7.77558 3.78871L9.16134 3.54077C9.19397 3.5349 9.2004 3.50645 9.1757 3.4772L8.95876 3.22037C8.93406 3.19112 8.88759 3.17217 8.85496 3.17804L7.4692 3.42598C7.43657 3.43185 7.43014 3.4603 7.45484 3.48955Z" fill="#FAFAFA"/>
<path d="M8.37648 2.93477L9.16502 3.86936C9.19735 3.90768 9.27021 3.9224 9.29681 3.89598L9.95757 3.23972C9.98465 3.21283 9.94335 3.16388 9.88395 3.15247L8.43465 2.87414C8.37632 2.86294 8.34416 2.89646 8.37648 2.93477Z" fill="#FAFAFA"/>
<path d="M5.91967 4.80088C6.63807 4.80088 7.22044 4.43277 7.22044 3.97867C7.22044 3.52458 6.63807 3.15646 5.91967 3.15646C5.20127 3.15646 4.6189 3.52458 4.6189 3.97867C4.6189 4.43277 5.20127 4.80088 5.91967 4.80088Z" fill="#FAFAFA"/>
</g>
<defs>
<clipPath id="clip0_299_213">
<rect width="12" height="12" fill="white"/>
</clipPath>
</defs>
</svg>
