<svg width="12" height="12" viewBox="0 0 12 12" fill="none" xmlns="http://www.w3.org/2000/svg">
<g clip-path="url(#clip0_710_311)">
<path d="M1.44465 8.52308L2.73584 11.701C2.82115 11.911 3.04161 12.0335 3.26574 11.9955L10.1878 10.8211C10.5255 10.7638 10.6982 10.3847 10.5193 10.0934L8.74039 7.19927C8.63985 7.03573 8.45171 6.94705 8.26109 6.9734L1.82672 7.86415C1.51444 7.90735 1.3263 8.23187 1.44465 8.52308Z" fill="#F48351"/>
<path d="M10.5841 10.5353L1.40912 8.34727L1.40894 5.34364L10.5841 7.74719V10.5353Z" fill="#F48351"/>
<path d="M1.44376 5.51845L2.92842 9.07357C3.01161 9.27839 3.22665 9.39791 3.44528 9.36084L10.1976 8.21531C10.5271 8.15939 10.6956 7.78957 10.521 7.5055L8.56063 4.22713C8.46257 4.06761 8.27902 3.98113 8.09308 4.00685L1.81646 4.87572C1.51189 4.91791 1.32834 5.23438 1.44376 5.51845Z" fill="#FC9854"/>
<path d="M1.88708 5.65353L3.17194 8.78821C3.24751 8.97418 3.44272 9.08272 3.64114 9.04904L9.77075 8.00912C10.0698 7.95842 10.2228 7.62264 10.0643 7.36483L8.34753 4.48127C8.25855 4.3364 8.0919 4.25797 7.92304 4.28131L2.22544 5.07001C1.94888 5.10836 1.78232 5.39563 1.88708 5.65353Z" fill="#FFAF73"/>
<path d="M6.32492 6.04029L6.48396 6.24181C6.50204 6.26478 6.49635 6.28629 6.47128 6.28986L4.6984 6.54373C4.67334 6.5473 4.63826 6.53165 4.62017 6.50868L4.46114 6.30715C4.44305 6.28418 4.44874 6.26268 4.47381 6.25911L6.24669 6.00524C6.27185 6.00167 6.30683 6.01741 6.32492 6.04029Z" fill="#FAFAFA"/>
<path d="M4.47931 6.00871L5.05842 6.74196C5.0822 6.77198 5.05677 6.79678 5.01242 6.78671L3.91167 6.53668C3.86658 6.52643 3.83619 6.488 3.85758 6.46823L4.37922 5.98501C4.40025 5.96552 4.45552 5.9787 4.47931 6.00871Z" fill="#FAFAFA"/>
<path d="M5.7407 6.92691L5.89974 7.12843C5.91783 7.1514 5.9529 7.16705 5.97797 7.16348L7.75085 6.90961C7.77592 6.90604 7.78161 6.88453 7.76352 6.86156L7.60449 6.66004C7.5864 6.63707 7.55133 6.62142 7.52626 6.62499L5.75338 6.87886C5.72822 6.88243 5.72261 6.90394 5.7407 6.92691Z" fill="#FAFAFA"/>
<path d="M7.1668 6.42676L7.74472 7.16019C7.76841 7.1903 7.82378 7.20339 7.84481 7.18398L8.36773 6.7015C8.38912 6.68173 8.35892 6.6433 8.31374 6.63305L7.2129 6.38219C7.16855 6.37194 7.14302 6.39665 7.1668 6.42676Z" fill="#FAFAFA"/>
<path d="M7.62214 7.68468L7.46311 7.48316C7.44502 7.46019 7.40994 7.44454 7.38487 7.44811L5.61199 7.70198C5.58692 7.70555 5.58123 7.72706 5.59932 7.75003L5.75835 7.95155C5.77644 7.97452 5.81152 7.99017 5.83659 7.9866L7.60947 7.73273C7.63454 7.72916 7.64023 7.70765 7.62214 7.68468Z" fill="#FAFAFA"/>
<path d="M6.19599 8.18492L5.61806 7.4515C5.59437 7.42139 5.53901 7.4083 5.51798 7.4277L4.99506 7.91019C4.97366 7.92995 5.00387 7.96839 5.04905 7.97864L6.14989 8.22949C6.19424 8.23965 6.21968 8.21494 6.19599 8.18492Z" fill="#FAFAFA"/>
<path d="M4.76141 5.68574L4.60237 5.48422C4.58428 5.46125 4.58998 5.43974 4.61504 5.43617L6.38793 5.1823C6.41299 5.17873 6.44807 5.19438 6.46616 5.21735L6.62519 5.41887C6.64328 5.44185 6.63759 5.46335 6.61252 5.46692L4.83964 5.72079C4.81457 5.72436 4.7795 5.70862 4.76141 5.68574Z" fill="#FAFAFA"/>
<path d="M6.60714 5.71732L6.02802 4.98407C6.00424 4.95406 6.02968 4.92925 6.07403 4.93932L7.17478 5.18935C7.21986 5.1996 7.25025 5.23804 7.22886 5.2578L6.70722 5.74102C6.6862 5.76051 6.63083 5.74733 6.60714 5.71732Z" fill="#FAFAFA"/>
<path d="M1.44465 4.52308L2.73584 7.70096C2.82115 7.91099 3.04161 8.03354 3.26574 7.99546L10.1878 6.8211C10.5255 6.76381 10.6982 6.38465 10.5193 6.09344L8.74039 3.19927C8.63985 3.03573 8.45171 2.94705 8.26109 2.9734L1.82672 3.86415C1.51444 3.90735 1.3263 4.23187 1.44465 4.52308Z" fill="#F48351"/>
<path d="M10.5841 6.5353L1.40912 4.34729L1.40894 1.34366L10.5841 3.7472V6.5353Z" fill="#F48351"/>
<path d="M1.44376 1.51845L2.92842 5.07357C3.01161 5.27839 3.22665 5.39791 3.44528 5.36084L10.1976 4.21531C10.5271 4.15939 10.6956 3.78957 10.521 3.5055L8.56063 0.227131C8.46257 0.0676146 8.27902 -0.01887 8.09308 0.00684661L1.81646 0.87572C1.51189 0.91791 1.32834 1.23438 1.44376 1.51845Z" fill="#FC9854"/>
<path d="M1.88708 1.65353L3.17194 4.78821C3.24751 4.97418 3.44272 5.08272 3.64114 5.04904L9.77075 4.00912C10.0698 3.95842 10.2228 3.62264 10.0643 3.36483L8.34753 0.481273C8.25855 0.3364 8.0919 0.257968 7.92304 0.281306L2.22544 1.07001C1.94888 1.10836 1.78232 1.39563 1.88708 1.65353Z" fill="#FFAF73"/>
<path d="M6.32492 2.04029L6.48396 2.24181C6.50204 2.26478 6.49635 2.28629 6.47128 2.28986L4.6984 2.54373C4.67334 2.5473 4.63826 2.53165 4.62017 2.50868L4.46114 2.30715C4.44305 2.28418 4.44874 2.26268 4.47381 2.25911L6.24669 2.00524C6.27185 2.00167 6.30683 2.01741 6.32492 2.04029Z" fill="#FAFAFA"/>
<path d="M4.47931 2.00871L5.05842 2.74196C5.0822 2.77198 5.05677 2.79678 5.01242 2.78671L3.91167 2.53668C3.86658 2.52643 3.83619 2.488 3.85758 2.46823L4.37922 1.98501C4.40025 1.96552 4.45552 1.9787 4.47931 2.00871Z" fill="#FAFAFA"/>
<path d="M5.7407 2.92691L5.89974 3.12843C5.91783 3.1514 5.9529 3.16705 5.97797 3.16348L7.75085 2.90961C7.77592 2.90604 7.78161 2.88453 7.76352 2.86156L7.60449 2.66004C7.5864 2.63707 7.55133 2.62142 7.52626 2.62499L5.75338 2.87886C5.72822 2.88243 5.72261 2.90394 5.7407 2.92691Z" fill="#FAFAFA"/>
<path d="M7.1668 2.42676L7.74472 3.16019C7.76841 3.1903 7.82378 3.20339 7.84481 3.18398L8.36773 2.7015C8.38912 2.68173 8.35892 2.6433 8.31374 2.63305L7.2129 2.38219C7.16855 2.37194 7.14302 2.39665 7.1668 2.42676Z" fill="#FAFAFA"/>
<path d="M7.62214 3.68468L7.46311 3.48316C7.44502 3.46019 7.40994 3.44454 7.38487 3.44811L5.61199 3.70198C5.58692 3.70555 5.58123 3.72706 5.59932 3.75003L5.75835 3.95155C5.77644 3.97452 5.81152 3.99017 5.83659 3.9866L7.60947 3.73273C7.63454 3.72916 7.64023 3.70765 7.62214 3.68468Z" fill="#FAFAFA"/>
<path d="M6.19599 4.18492L5.61806 3.4515C5.59437 3.42139 5.53901 3.4083 5.51798 3.4277L4.99506 3.91019C4.97366 3.92995 5.00387 3.96839 5.04905 3.97864L6.14989 4.22949C6.19424 4.23965 6.21968 4.21494 6.19599 4.18492Z" fill="#FAFAFA"/>
<path d="M4.76141 1.68574L4.60237 1.48422C4.58428 1.46125 4.58998 1.43974 4.61504 1.43617L6.38793 1.1823C6.41299 1.17873 6.44807 1.19438 6.46616 1.21735L6.62519 1.41887C6.64328 1.44185 6.63759 1.46335 6.61252 1.46692L4.83964 1.72079C4.81457 1.72436 4.7795 1.70862 4.76141 1.68574Z" fill="#FAFAFA"/>
<path d="M6.60714 1.71732L6.02802 0.984073C6.00424 0.954055 6.02968 0.929254 6.07403 0.939321L7.17478 1.18935C7.21986 1.1996 7.25025 1.23804 7.22886 1.2578L6.70722 1.74102C6.6862 1.76051 6.63083 1.74733 6.60714 1.71732Z" fill="#FAFAFA"/>
</g>
<defs>
<clipPath id="clip0_710_311">
<rect width="12" height="12" fill="white"/>
</clipPath>
</defs>
</svg>
