<svg width="13" height="12" viewBox="0 0 13 12" fill="none" xmlns="http://www.w3.org/2000/svg">
<path d="M1.58528 8.52073L2.87221 11.6986C2.95723 11.9086 3.17697 12.0312 3.40036 11.9931L10.2996 10.8188C10.6362 10.7615 10.8083 10.3823 10.63 10.0911L8.85695 7.19692C8.75674 7.03338 8.56922 6.9447 8.37923 6.97105L1.96609 7.8618C1.65484 7.905 1.46732 8.22952 1.58528 8.52073Z" fill="#E26666"/>
<path d="M10.6945 10.5329L1.54987 8.34491L1.54968 5.34128L10.6945 7.74482V10.5329Z" fill="#E26666"/>
<path d="M1.58439 5.51609L3.06415 9.0712C3.14706 9.27602 3.3614 9.39554 3.57931 9.35848L10.3094 8.21295C10.6377 8.15703 10.8057 7.7872 10.6317 7.50313L8.67778 4.22477C8.58004 4.06525 8.3971 3.97876 8.21177 4.00448L1.95586 4.87336C1.6523 4.91555 1.46935 5.23202 1.58439 5.51609Z" fill="#F77F7F"/>
<path d="M2.02614 5.65116L3.30675 8.78585C3.38207 8.97181 3.57664 9.08035 3.77441 9.04667L9.8838 8.00675C10.1819 7.95605 10.3343 7.62027 10.1764 7.36246L8.46527 4.47891C8.37659 4.33403 8.21048 4.2556 8.04218 4.27894L2.36338 5.06764C2.08773 5.10599 1.92172 5.39327 2.02614 5.65116Z" fill="#F28F8F"/>
<path d="M6.44948 6.03792L6.60799 6.23944C6.62601 6.26242 6.62034 6.28392 6.59536 6.28749L4.82832 6.54136C4.80334 6.54493 4.76838 6.52928 4.75035 6.50631L4.59184 6.30479C4.57381 6.28182 4.57948 6.26031 4.60447 6.25674L6.3715 6.00287C6.39658 5.9993 6.43145 6.01504 6.44948 6.03792Z" fill="#FAFAFA"/>
<path d="M4.60992 6.00635L5.18713 6.73959C5.21083 6.76961 5.18548 6.79441 5.14128 6.78435L4.04416 6.53432C3.99922 6.52407 3.96893 6.48563 3.99025 6.46586L4.51017 5.98265C4.53112 5.96315 4.58622 5.97633 4.60992 6.00635Z" fill="#FAFAFA"/>
<path d="M5.86701 6.92454L6.02552 7.12606C6.04355 7.14904 6.07851 7.16469 6.10349 7.16112L7.87053 6.90724C7.89551 6.90368 7.90119 6.88217 7.88316 6.8592L7.72465 6.65767C7.70662 6.6347 7.67166 6.61905 7.64668 6.62262L5.87964 6.87649C5.85457 6.88006 5.84898 6.90157 5.86701 6.92454Z" fill="#FAFAFA"/>
<path d="M7.28848 6.4244L7.86449 7.15783C7.8881 7.18793 7.94329 7.20102 7.96425 7.18162L8.48544 6.69914C8.50677 6.67937 8.47666 6.64093 8.43163 6.63068L7.33442 6.37983C7.29021 6.36958 7.26477 6.39429 7.28848 6.4244Z" fill="#FAFAFA"/>
<path d="M7.74226 7.68232L7.58375 7.48079C7.56572 7.45782 7.53076 7.44217 7.50578 7.44574L5.73875 7.69961C5.71376 7.70318 5.70809 7.72469 5.72612 7.74766L5.88463 7.94918C5.90266 7.97216 5.93762 7.98781 5.9626 7.98424L7.72963 7.73037C7.75462 7.7268 7.76029 7.70529 7.74226 7.68232Z" fill="#FAFAFA"/>
<path d="M6.32091 8.18254L5.74489 7.44912C5.72128 7.41901 5.6661 7.40592 5.64514 7.42532L5.12394 7.90781C5.10262 7.92757 5.13273 7.96601 5.17775 7.97626L6.27497 8.22711C6.31917 8.23727 6.34452 8.21256 6.32091 8.18254Z" fill="#FAFAFA"/>
<path d="M4.89122 5.68339L4.73271 5.48187C4.71468 5.4589 4.72035 5.43739 4.74534 5.43382L6.51237 5.17995C6.53736 5.17638 6.57232 5.19203 6.59034 5.215L6.74885 5.41652C6.76688 5.4395 6.76121 5.461 6.73622 5.46457L4.96919 5.71844C4.94421 5.72201 4.90925 5.70627 4.89122 5.68339Z" fill="#FAFAFA"/>
<path d="M6.73056 5.71495L6.15336 4.98171C6.12966 4.95169 6.15501 4.92689 6.19921 4.93696L7.29633 5.18698C7.34127 5.19723 7.37156 5.23567 7.35023 5.25544L6.83032 5.73866C6.80936 5.75815 6.75418 5.74497 6.73056 5.71495Z" fill="#FAFAFA"/>
<path d="M1.58528 4.52072L2.87221 7.69859C2.95723 7.90863 3.17697 8.03117 3.40036 7.9931L10.2996 6.81874C10.6362 6.76145 10.8083 6.38229 10.63 6.09108L8.85695 3.1969C8.75674 3.03336 8.56922 2.94468 8.37923 2.97104L1.96609 3.86178C1.65484 3.90498 1.46732 4.2295 1.58528 4.52072Z" fill="#E26666"/>
<path d="M10.6945 6.53295L1.54987 4.34494L1.54968 1.34131L10.6945 3.74485V6.53295Z" fill="#E26666"/>
<path d="M1.58439 1.51609L3.06415 5.0712C3.14706 5.27602 3.3614 5.39554 3.57931 5.35848L10.3094 4.21295C10.6377 4.15703 10.8057 3.7872 10.6317 3.50313L8.67778 0.224766C8.58004 0.0652495 8.3971 -0.0212351 8.21177 0.0044815L1.95586 0.873355C1.6523 0.915545 1.46935 1.23202 1.58439 1.51609Z" fill="#F77F7F"/>
<path d="M2.02614 1.65118L3.30675 4.78586C3.38207 4.97183 3.57664 5.08037 3.77441 5.04669L9.8838 4.00677C10.1819 3.95607 10.3343 3.62029 10.1764 3.36248L8.46527 0.478923C8.37659 0.33405 8.21048 0.255619 8.04218 0.278956L2.36338 1.06766C2.08773 1.10601 1.92172 1.39328 2.02614 1.65118Z" fill="#F28F8F"/>
<path d="M6.44948 2.03792L6.60799 2.23944C6.62601 2.26242 6.62034 2.28392 6.59536 2.28749L4.82832 2.54136C4.80334 2.54493 4.76838 2.52928 4.75035 2.50631L4.59184 2.30479C4.57381 2.28182 4.57948 2.26031 4.60447 2.25674L6.3715 2.00287C6.39658 1.9993 6.43145 2.01504 6.44948 2.03792Z" fill="#FAFAFA"/>
<path d="M4.60992 2.00635L5.18713 2.73959C5.21083 2.76961 5.18548 2.79441 5.14128 2.78435L4.04416 2.53432C3.99922 2.52407 3.96893 2.48563 3.99025 2.46586L4.51017 1.98265C4.53112 1.96315 4.58622 1.97633 4.60992 2.00635Z" fill="#FAFAFA"/>
<path d="M5.86701 2.92456L6.02552 3.12608C6.04355 3.14905 6.07851 3.1647 6.10349 3.16113L7.87053 2.90726C7.89551 2.90369 7.90119 2.88218 7.88316 2.85921L7.72465 2.65769C7.70662 2.63472 7.67166 2.61907 7.64668 2.62264L5.87964 2.87651C5.85457 2.88008 5.84898 2.90159 5.86701 2.92456Z" fill="#FAFAFA"/>
<path d="M7.28848 2.42441L7.86449 3.15784C7.8881 3.18795 7.94329 3.20104 7.96425 3.18163L8.48544 2.69915C8.50677 2.67938 8.47666 2.64095 8.43163 2.6307L7.33442 2.37984C7.29021 2.36959 7.26477 2.3943 7.28848 2.42441Z" fill="#FAFAFA"/>
<path d="M7.74226 3.68232L7.58375 3.48079C7.56572 3.45782 7.53076 3.44217 7.50578 3.44574L5.73875 3.69961C5.71376 3.70318 5.70809 3.72469 5.72612 3.74766L5.88463 3.94918C5.90266 3.97216 5.93762 3.98781 5.9626 3.98424L7.72963 3.73037C7.75462 3.7268 7.76029 3.70529 7.74226 3.68232Z" fill="#FAFAFA"/>
<path d="M6.32091 4.18256L5.74489 3.44913C5.72128 3.41902 5.6661 3.40593 5.64514 3.42534L5.12394 3.90782C5.10262 3.92759 5.13273 3.96603 5.17775 3.97628L6.27497 4.22713C6.31917 4.23729 6.34452 4.21258 6.32091 4.18256Z" fill="#FAFAFA"/>
<path d="M4.89122 1.68338L4.73271 1.48185C4.71468 1.45888 4.72035 1.43738 4.74534 1.43381L6.51237 1.17994C6.53736 1.17637 6.57232 1.19202 6.59034 1.21499L6.74885 1.41651C6.76688 1.43948 6.76121 1.46099 6.73622 1.46456L4.96919 1.71843C4.94421 1.722 4.90925 1.70626 4.89122 1.68338Z" fill="#FAFAFA"/>
<path d="M6.73056 1.71497L6.15336 0.981723C6.12966 0.951705 6.15501 0.926904 6.19921 0.936971L7.29633 1.187C7.34127 1.19725 7.37156 1.23569 7.35023 1.25545L6.83032 1.73867C6.80936 1.75816 6.75418 1.74499 6.73056 1.71497Z" fill="#FAFAFA"/>
</svg>
