<svg width="13" height="12" viewBox="0 0 13 12" fill="none" xmlns="http://www.w3.org/2000/svg">
<g clip-path="url(#clip0_710_425)">
<path d="M1.64217 8.52073L2.9291 11.6986C3.01412 11.9086 3.23385 12.0312 3.45725 11.9931L10.3564 10.8188C10.6931 10.7615 10.8652 10.3823 10.6869 10.0911L8.91384 7.19692C8.81363 7.03338 8.62611 6.9447 8.43612 6.97105L2.02298 7.8618C1.71172 7.905 1.5242 8.22952 1.64217 8.52073Z" fill="#4BB7E2"/>
<path d="M10.7514 10.5329L1.60675 8.34492L1.60657 5.34129L10.7514 7.74484V10.5329Z" fill="#4BB7E2"/>
<path d="M1.64128 5.5161L3.12103 9.07122C3.20395 9.27604 3.41829 9.39556 3.63619 9.3585L10.3663 8.21296C10.6946 8.15705 10.8626 7.78722 10.6886 7.50315L8.73467 4.22478C8.63693 4.06526 8.45399 3.97878 8.26866 4.0045L2.01275 4.87337C1.70918 4.91556 1.52624 5.23203 1.64128 5.5161Z" fill="#60C7E2"/>
<path d="M2.08302 5.65118L3.36364 8.78586C3.43896 8.97183 3.63353 9.08037 3.8313 9.04669L9.94069 8.00677C10.2388 7.95607 10.3912 7.62029 10.2333 7.36248L8.52216 4.47892C8.43348 4.33405 8.26737 4.25562 8.09907 4.27896L2.42027 5.06766C2.14462 5.10601 1.9786 5.39328 2.08302 5.65118Z" fill="#7AD5EA"/>
<path d="M6.50624 6.03794L6.66475 6.23946C6.68278 6.26243 6.6771 6.28394 6.65212 6.28751L4.88509 6.54138C4.8601 6.54495 4.82514 6.5293 4.80711 6.50633L4.6486 6.3048C4.63057 6.28183 4.63625 6.26033 4.66123 6.25676L6.42827 6.00289C6.45334 5.99932 6.48821 6.01506 6.50624 6.03794Z" fill="#FAFAFA"/>
<path d="M4.66668 6.00636L5.24389 6.73961C5.26759 6.76963 5.24224 6.79443 5.19804 6.78436L4.10092 6.53433C4.05598 6.52408 4.02569 6.48565 4.04701 6.46588L4.56693 5.98266C4.58789 5.96317 4.64298 5.97635 4.66668 6.00636Z" fill="#FAFAFA"/>
<path d="M5.9239 6.92456L6.08241 7.12608C6.10044 7.14905 6.13539 7.1647 6.16038 7.16113L7.92741 6.90726C7.9524 6.90369 7.95807 6.88218 7.94004 6.85921L7.78153 6.65769C7.76351 6.63472 7.72855 6.61907 7.70356 6.62264L5.93653 6.87651C5.91145 6.88008 5.90587 6.90159 5.9239 6.92456Z" fill="#FAFAFA"/>
<path d="M7.34536 6.42441L7.92138 7.15784C7.94499 7.18795 8.00017 7.20104 8.02113 7.18164L8.54233 6.69915C8.56365 6.67938 8.53354 6.64095 8.48851 6.6307L7.3913 6.37984C7.3471 6.36959 7.32166 6.3943 7.34536 6.42441Z" fill="#FAFAFA"/>
<path d="M7.79927 7.68233L7.64076 7.48081C7.62273 7.45784 7.58777 7.44219 7.56279 7.44576L5.79575 7.69963C5.77077 7.7032 5.76509 7.72471 5.78312 7.74768L5.94163 7.9492C5.95966 7.97217 5.99462 7.98782 6.01961 7.98425L7.78664 7.73038C7.81163 7.72681 7.8173 7.7053 7.79927 7.68233Z" fill="#FAFAFA"/>
<path d="M6.37767 8.18257L5.80166 7.44915C5.77804 7.41904 5.72286 7.40595 5.7019 7.42535L5.1807 7.90784C5.15938 7.9276 5.18949 7.96604 5.23452 7.97629L6.33173 8.22714C6.37593 8.2373 6.40128 8.21259 6.37767 8.18257Z" fill="#FAFAFA"/>
<path d="M4.94798 5.68339L4.78947 5.48187C4.77144 5.4589 4.77712 5.43739 4.8021 5.43382L6.56913 5.17995C6.59412 5.17638 6.62908 5.19203 6.64711 5.215L6.80562 5.41653C6.82365 5.4395 6.81797 5.461 6.79299 5.46457L5.02595 5.71844C5.00097 5.72201 4.96601 5.70627 4.94798 5.68339Z" fill="#FAFAFA"/>
<path d="M6.78769 5.71497L6.21049 4.98172C6.18679 4.95171 6.21214 4.9269 6.25634 4.93697L7.35346 5.187C7.3984 5.19725 7.42869 5.23569 7.40736 5.25545L6.88745 5.73867C6.86649 5.75816 6.81131 5.74499 6.78769 5.71497Z" fill="#FAFAFA"/>
<path d="M1.64217 4.52073L2.9291 7.69861C3.01412 7.90865 3.23385 8.03119 3.45725 7.99312L10.3564 6.81875C10.6931 6.76146 10.8652 6.3823 10.6869 6.09109L8.91384 3.19692C8.81363 3.03338 8.62611 2.9447 8.43612 2.97105L2.02298 3.8618C1.71172 3.905 1.5242 4.22952 1.64217 4.52073Z" fill="#4BB7E2"/>
<path d="M10.7514 6.53293L1.60675 4.34491L1.60657 1.34128L10.7514 3.74482V6.53293Z" fill="#4BB7E2"/>
<path d="M1.64128 1.51609L3.12103 5.07121C3.20395 5.27602 3.41829 5.39555 3.63619 5.35848L10.3663 4.21295C10.6946 4.15703 10.8626 3.78721 10.6886 3.50313L8.73467 0.224766C8.63693 0.0652496 8.45399 -0.0212351 8.26866 0.0044815L2.01275 0.873356C1.70918 0.915546 1.52624 1.23202 1.64128 1.51609Z" fill="#60C7E2"/>
<path d="M2.08302 1.65117L3.36364 4.78585C3.43896 4.97181 3.63353 5.08035 3.8313 5.04668L9.94069 4.00675C10.2388 3.95605 10.3912 3.62027 10.2333 3.36247L8.52216 0.478908C8.43348 0.334034 8.26737 0.255603 8.09907 0.27894L2.42027 1.06764C2.14462 1.10599 1.9786 1.39327 2.08302 1.65117Z" fill="#7AD5EA"/>
<path d="M6.50624 2.03792L6.66475 2.23944C6.68278 2.26242 6.6771 2.28392 6.65212 2.28749L4.88509 2.54136C4.8601 2.54493 4.82514 2.52928 4.80711 2.50631L4.6486 2.30479C4.63057 2.28182 4.63625 2.26031 4.66123 2.25674L6.42827 2.00287C6.45334 1.9993 6.48821 2.01504 6.50624 2.03792Z" fill="#FAFAFA"/>
<path d="M4.66668 2.00635L5.24389 2.73959C5.26759 2.76961 5.24224 2.79441 5.19804 2.78435L4.10092 2.53432C4.05598 2.52407 4.02569 2.48563 4.04701 2.46586L4.56693 1.98265C4.58789 1.96315 4.64298 1.97633 4.66668 2.00635Z" fill="#FAFAFA"/>
<path d="M5.9239 2.92456L6.08241 3.12608C6.10044 3.14905 6.13539 3.1647 6.16038 3.16113L7.92741 2.90726C7.9524 2.90369 7.95807 2.88218 7.94004 2.85921L7.78153 2.65769C7.76351 2.63472 7.72855 2.61907 7.70356 2.62264L5.93653 2.87651C5.91145 2.88008 5.90587 2.90159 5.9239 2.92456Z" fill="#FAFAFA"/>
<path d="M7.34536 2.4244L7.92138 3.15783C7.94499 3.18794 8.00017 3.20102 8.02113 3.18162L8.54233 2.69914C8.56365 2.67937 8.53354 2.64093 8.48851 2.63068L7.3913 2.37983C7.3471 2.36958 7.32166 2.39429 7.34536 2.4244Z" fill="#FAFAFA"/>
<path d="M7.79927 3.68232L7.64076 3.48079C7.62273 3.45782 7.58777 3.44217 7.56279 3.44574L5.79575 3.69961C5.77077 3.70318 5.76509 3.72469 5.78312 3.74766L5.94163 3.94919C5.95966 3.97216 5.99462 3.98781 6.01961 3.98424L7.78664 3.73037C7.81163 3.7268 7.8173 3.70529 7.79927 3.68232Z" fill="#FAFAFA"/>
<path d="M6.37767 4.18256L5.80166 3.44913C5.77804 3.41902 5.72286 3.40593 5.7019 3.42534L5.1807 3.90782C5.15938 3.92759 5.18949 3.96603 5.23452 3.97628L6.33173 4.22713C6.37593 4.23729 6.40128 4.21258 6.37767 4.18256Z" fill="#FAFAFA"/>
<path d="M4.94798 1.68338L4.78947 1.48185C4.77144 1.45888 4.77712 1.43738 4.8021 1.43381L6.56913 1.17994C6.59412 1.17637 6.62908 1.19202 6.64711 1.21499L6.80562 1.41651C6.82365 1.43948 6.81797 1.46099 6.79299 1.46456L5.02595 1.71843C5.00097 1.722 4.96601 1.70626 4.94798 1.68338Z" fill="#FAFAFA"/>
<path d="M6.78769 1.71495L6.21049 0.981708C6.18679 0.95169 6.21214 0.926889 6.25634 0.936956L7.35346 1.18698C7.3984 1.19723 7.42869 1.23567 7.40736 1.25544L6.88745 1.73866C6.86649 1.75815 6.81131 1.74497 6.78769 1.71495Z" fill="#FAFAFA"/>
</g>
<defs>
<clipPath id="clip0_710_425">
<rect width="12" height="12" fill="white" transform="translate(0.182495)"/>
</clipPath>
</defs>
</svg>
