<svg width="13" height="12" viewBox="0 0 13 12" fill="none" xmlns="http://www.w3.org/2000/svg">
<path d="M1.64815 8.52071L2.93508 11.6986C3.0201 11.9086 3.23983 12.0312 3.46323 11.9931L10.3624 10.8187C10.699 10.7614 10.8712 10.3823 10.6929 10.0911L8.91982 7.1969C8.8196 7.03336 8.63208 6.94468 8.44209 6.97104L2.02896 7.86178C1.7177 7.90498 1.53018 8.2295 1.64815 8.52071Z" fill="#ADADAD"/>
<path d="M10.7574 10.5329L1.61273 8.3449L1.61255 5.34128L10.7574 7.74482V10.5329Z" fill="#ADADAD"/>
<path d="M1.64726 5.51609L3.12701 9.0712C3.20993 9.27602 3.42427 9.39554 3.64217 9.35848L10.3722 8.21294C10.7006 8.15703 10.8685 7.7872 10.6946 7.50313L8.74065 4.22477C8.6429 4.06525 8.45996 3.97876 8.27464 4.00448L2.01873 4.87335C1.71516 4.91554 1.53222 5.23201 1.64726 5.51609Z" fill="#BFBFBF"/>
<path d="M2.08925 5.65116L3.36986 8.78584C3.44518 8.97181 3.63975 9.08035 3.83752 9.04667L9.94691 8.00675C10.245 7.95605 10.3974 7.62027 10.2395 7.36246L8.52837 4.47891C8.43969 4.33403 8.27359 4.2556 8.10529 4.27894L2.42649 5.06764C2.15084 5.10599 1.98483 5.39327 2.08925 5.65116Z" fill="#CCCCCC"/>
<path d="M6.51234 6.03792L6.67085 6.23944C6.68888 6.26242 6.6832 6.28392 6.65822 6.28749L4.89119 6.54136C4.8662 6.54493 4.83124 6.52928 4.81321 6.50631L4.65471 6.30479C4.63668 6.28182 4.64235 6.26031 4.66733 6.25674L6.43437 6.00287C6.45944 5.9993 6.49431 6.01504 6.51234 6.03792Z" fill="#FAFAFA"/>
<path d="M4.67279 6.00633L5.24999 6.73958C5.2737 6.7696 5.24835 6.7944 5.20414 6.78433L4.10702 6.5343C4.06209 6.52405 4.03179 6.48561 4.05312 6.46585L4.57303 5.98263C4.59399 5.96314 4.64908 5.97632 4.67279 6.00633Z" fill="#FAFAFA"/>
<path d="M5.92988 6.92454L6.08839 7.12606C6.10642 7.14904 6.14138 7.16469 6.16636 7.16112L7.93339 6.90724C7.95838 6.90368 7.96405 6.88217 7.94602 6.8592L7.78751 6.65767C7.76948 6.6347 7.73452 6.61905 7.70954 6.62262L5.94251 6.87649C5.91743 6.88006 5.91185 6.90157 5.92988 6.92454Z" fill="#FAFAFA"/>
<path d="M7.35146 6.4244L7.92748 7.15782C7.95109 7.18793 8.00628 7.20102 8.02723 7.18162L8.54843 6.69914C8.56975 6.67937 8.53964 6.64093 8.49462 6.63068L7.39741 6.37983C7.3532 6.36958 7.32776 6.39429 7.35146 6.4244Z" fill="#FAFAFA"/>
<path d="M7.80525 7.68232L7.64674 7.48079C7.62871 7.45782 7.59375 7.44217 7.56877 7.44574L5.80173 7.69961C5.77675 7.70318 5.77108 7.72469 5.7891 7.74766L5.94761 7.94918C5.96564 7.97216 6.0006 7.98781 6.02559 7.98424L7.79262 7.73036C7.8176 7.7268 7.82328 7.70529 7.80525 7.68232Z" fill="#FAFAFA"/>
<path d="M6.38377 8.18256L5.80776 7.44913C5.78415 7.41902 5.72896 7.40593 5.708 7.42534L5.18681 7.90782C5.16548 7.92759 5.19559 7.96603 5.24062 7.97628L6.33783 8.22713C6.38203 8.23729 6.40738 8.21258 6.38377 8.18256Z" fill="#FAFAFA"/>
<path d="M4.95408 5.68339L4.79557 5.48187C4.77755 5.4589 4.78322 5.43739 4.8082 5.43382L6.57524 5.17995C6.60022 5.17638 6.63518 5.19203 6.65321 5.215L6.81172 5.41652C6.82975 5.4395 6.82407 5.461 6.79909 5.46457L5.03206 5.71844C5.00707 5.72201 4.97211 5.70627 4.95408 5.68339Z" fill="#FAFAFA"/>
<path d="M6.79367 5.71495L6.21647 4.98171C6.19277 4.95169 6.21812 4.92689 6.26232 4.93696L7.35944 5.18698C7.40438 5.19723 7.43467 5.23567 7.41334 5.25544L6.89343 5.73865C6.87247 5.75815 6.81729 5.74497 6.79367 5.71495Z" fill="#FAFAFA"/>
<path d="M1.64815 4.52071L2.93508 7.69859C3.0201 7.90862 3.23983 8.03117 3.46323 7.9931L10.3624 6.81873C10.699 6.76144 10.8712 6.38228 10.6929 6.09107L8.91982 3.1969C8.8196 3.03336 8.63208 2.94468 8.44209 2.97104L2.02896 3.86178C1.7177 3.90498 1.53018 4.2295 1.64815 4.52071Z" fill="#ADADAD"/>
<path d="M10.7574 6.53292L1.61273 4.3449L1.61255 1.34128L10.7574 3.74482V6.53292Z" fill="#ADADAD"/>
<path d="M1.64726 1.51609L3.12701 5.0712C3.20993 5.27602 3.42427 5.39554 3.64217 5.35848L10.3722 4.21294C10.7006 4.15703 10.8685 3.7872 10.6946 3.50313L8.74065 0.224766C8.6429 0.0652495 8.45996 -0.0212351 8.27464 0.00448149L2.01873 0.873355C1.71516 0.915545 1.53222 1.23201 1.64726 1.51609Z" fill="#BFBFBF"/>
<path d="M2.08925 1.65116L3.36986 4.78584C3.44518 4.97181 3.63975 5.08035 3.83752 5.04667L9.94691 4.00675C10.245 3.95605 10.3974 3.62027 10.2395 3.36246L8.52837 0.478908C8.43969 0.334034 8.27359 0.255603 8.10529 0.27894L2.42649 1.06764C2.15084 1.10599 1.98483 1.39327 2.08925 1.65116Z" fill="#CCCCCC"/>
<path d="M6.51234 2.03792L6.67085 2.23944C6.68888 2.26242 6.6832 2.28392 6.65822 2.28749L4.89119 2.54136C4.8662 2.54493 4.83124 2.52928 4.81321 2.50631L4.65471 2.30479C4.63668 2.28182 4.64235 2.26031 4.66733 2.25674L6.43437 2.00287C6.45944 1.9993 6.49431 2.01504 6.51234 2.03792Z" fill="#FAFAFA"/>
<path d="M4.67279 2.00635L5.24999 2.73959C5.2737 2.76961 5.24835 2.79441 5.20414 2.78435L4.10702 2.53432C4.06209 2.52407 4.03179 2.48563 4.05312 2.46586L4.57303 1.98265C4.59399 1.96315 4.64908 1.97633 4.67279 2.00635Z" fill="#FAFAFA"/>
<path d="M5.92988 2.92454L6.08839 3.12606C6.10642 3.14904 6.14138 3.16469 6.16636 3.16112L7.93339 2.90724C7.95838 2.90368 7.96405 2.88217 7.94602 2.8592L7.78751 2.65767C7.76948 2.6347 7.73452 2.61905 7.70954 2.62262L5.94251 2.87649C5.91743 2.88006 5.91185 2.90157 5.92988 2.92454Z" fill="#FAFAFA"/>
<path d="M7.35146 2.4244L7.92748 3.15782C7.95109 3.18793 8.00628 3.20102 8.02723 3.18162L8.54843 2.69914C8.56975 2.67937 8.53964 2.64093 8.49462 2.63068L7.39741 2.37983C7.3532 2.36958 7.32776 2.39429 7.35146 2.4244Z" fill="#FAFAFA"/>
<path d="M7.80525 3.68232L7.64674 3.48079C7.62871 3.45782 7.59375 3.44217 7.56877 3.44574L5.80173 3.69961C5.77675 3.70318 5.77108 3.72469 5.7891 3.74766L5.94761 3.94918C5.96564 3.97216 6.0006 3.98781 6.02559 3.98424L7.79262 3.73036C7.8176 3.7268 7.82328 3.70529 7.80525 3.68232Z" fill="#FAFAFA"/>
<path d="M6.38377 4.18256L5.80776 3.44913C5.78415 3.41902 5.72896 3.40593 5.708 3.42534L5.18681 3.90782C5.16548 3.92759 5.19559 3.96603 5.24062 3.97628L6.33783 4.22713C6.38203 4.23729 6.40738 4.21258 6.38377 4.18256Z" fill="#FAFAFA"/>
<path d="M4.95408 1.68338L4.79557 1.48185C4.77755 1.45888 4.78322 1.43738 4.8082 1.43381L6.57524 1.17994C6.60022 1.17637 6.63518 1.19202 6.65321 1.21499L6.81172 1.41651C6.82975 1.43948 6.82407 1.46099 6.79909 1.46456L5.03206 1.71843C5.00707 1.722 4.97211 1.70626 4.95408 1.68338Z" fill="#FAFAFA"/>
<path d="M6.79367 1.71495L6.21647 0.981708C6.19277 0.95169 6.21812 0.926889 6.26232 0.936956L7.35944 1.18698C7.40438 1.19723 7.43467 1.23567 7.41334 1.25544L6.89343 1.73865C6.87247 1.75815 6.81729 1.74497 6.79367 1.71495Z" fill="#FAFAFA"/>
</svg>
