<svg width="13" height="12" viewBox="0 0 13 12" fill="none" xmlns="http://www.w3.org/2000/svg">
<path d="M1.64522 8.52071L2.93215 11.6986C3.01717 11.9086 3.2369 12.0312 3.4603 11.9931L10.3595 10.8187C10.6961 10.7614 10.8682 10.3823 10.69 10.0911L8.91689 7.1969C8.81667 7.03336 8.62915 6.94468 8.43916 6.97104L2.02603 7.86178C1.71477 7.90498 1.52725 8.2295 1.64522 8.52071Z" fill="#686868"/>
<path d="M10.7545 10.5329L1.6098 8.3449L1.60962 5.34128L10.7545 7.74482V10.5329Z" fill="#686868"/>
<path d="M1.64433 5.51607L3.12408 9.07119C3.207 9.276 3.42134 9.39553 3.63924 9.35846L10.3693 8.21293C10.6977 8.15701 10.8656 7.78719 10.6916 7.50311L8.73772 4.22475C8.63997 4.06523 8.45703 3.97875 8.27171 4.00447L2.0158 4.87334C1.71223 4.91553 1.52929 5.232 1.64433 5.51607Z" fill="#777777"/>
<path d="M2.0862 5.65116L3.36681 8.78584C3.44213 8.97181 3.6367 9.08035 3.83447 9.04667L9.94385 8.00675C10.2419 7.95605 10.3944 7.62027 10.2364 7.36246L8.52532 4.47891C8.43664 4.33403 8.27054 4.2556 8.10223 4.27894L2.42344 5.06764C2.14779 5.10599 1.98178 5.39327 2.0862 5.65116Z" fill="#7F7F7F"/>
<path d="M6.50941 6.03792L6.66792 6.23944C6.68595 6.26242 6.68028 6.28392 6.65529 6.28749L4.88826 6.54136C4.86327 6.54493 4.82831 6.52928 4.81029 6.50631L4.65178 6.30479C4.63375 6.28182 4.63942 6.26031 4.6644 6.25674L6.43144 6.00287C6.45651 5.9993 6.49138 6.01504 6.50941 6.03792Z" fill="#FAFAFA"/>
<path d="M4.66986 6.00635L5.24706 6.73959C5.27077 6.76961 5.24542 6.79441 5.20121 6.78435L4.10409 6.53432C4.05916 6.52407 4.02886 6.48563 4.05019 6.46586L4.5701 5.98265C4.59106 5.96315 4.64615 5.97633 4.66986 6.00635Z" fill="#FAFAFA"/>
<path d="M5.92707 6.92454L6.08558 7.12606C6.10361 7.14904 6.13857 7.16469 6.16355 7.16112L7.93059 6.90724C7.95557 6.90368 7.96124 6.88217 7.94322 6.8592L7.78471 6.65767C7.76668 6.6347 7.73172 6.61905 7.70673 6.62262L5.9397 6.87649C5.91462 6.88006 5.90904 6.90157 5.92707 6.92454Z" fill="#FAFAFA"/>
<path d="M7.34853 6.4244L7.92455 7.15782C7.94816 7.18793 8.00335 7.20102 8.0243 7.18162L8.5455 6.69914C8.56682 6.67937 8.53671 6.64093 8.49169 6.63068L7.39448 6.37983C7.35027 6.36958 7.32483 6.39429 7.34853 6.4244Z" fill="#FAFAFA"/>
<path d="M7.80232 7.68232L7.64381 7.48079C7.62578 7.45782 7.59082 7.44217 7.56584 7.44574L5.7988 7.69961C5.77382 7.70318 5.76815 7.72469 5.78618 7.74766L5.94468 7.94918C5.96271 7.97216 5.99767 7.98781 6.02266 7.98424L7.78969 7.73036C7.81467 7.7268 7.82035 7.70529 7.80232 7.68232Z" fill="#FAFAFA"/>
<path d="M6.38097 8.18254L5.80495 7.44912C5.78134 7.41901 5.72615 7.40592 5.7052 7.42532L5.184 7.9078C5.16268 7.92757 5.19279 7.96601 5.23781 7.97626L6.33502 8.22711C6.37923 8.23727 6.40458 8.21256 6.38097 8.18254Z" fill="#FAFAFA"/>
<path d="M4.95115 5.68338L4.79264 5.48185C4.77462 5.45888 4.78029 5.43738 4.80527 5.43381L6.57231 5.17994C6.59729 5.17637 6.63225 5.19202 6.65028 5.21499L6.80879 5.41651C6.82682 5.43948 6.82114 5.46099 6.79616 5.46456L5.02913 5.71843C5.00414 5.722 4.96918 5.70626 4.95115 5.68338Z" fill="#FAFAFA"/>
<path d="M6.79074 5.71497L6.21354 4.98172C6.18984 4.95171 6.21519 4.9269 6.25939 4.93697L7.35651 5.187C7.40145 5.19725 7.43174 5.23569 7.41041 5.25545L6.8905 5.73867C6.86954 5.75816 6.81436 5.74498 6.79074 5.71497Z" fill="#FAFAFA"/>
<path d="M1.64522 4.52071L2.93215 7.69859C3.01717 7.90862 3.2369 8.03117 3.4603 7.9931L10.3595 6.81873C10.6961 6.76144 10.8682 6.38228 10.69 6.09107L8.91689 3.1969C8.81667 3.03336 8.62915 2.94468 8.43916 2.97104L2.02603 3.86178C1.71477 3.90498 1.52725 4.2295 1.64522 4.52071Z" fill="#686868"/>
<path d="M10.7545 6.53293L1.6098 4.34492L1.60962 1.34129L10.7545 3.74483V6.53293Z" fill="#686868"/>
<path d="M1.64433 1.51609L3.12408 5.0712C3.207 5.27602 3.42134 5.39554 3.63924 5.35848L10.3693 4.21294C10.6977 4.15703 10.8656 3.7872 10.6916 3.50313L8.73772 0.224766C8.63997 0.0652495 8.45703 -0.0212351 8.27171 0.00448149L2.0158 0.873355C1.71223 0.915545 1.52929 1.23201 1.64433 1.51609Z" fill="#777777"/>
<path d="M2.0862 1.65116L3.36681 4.78584C3.44213 4.97181 3.6367 5.08035 3.83447 5.04667L9.94385 4.00675C10.2419 3.95605 10.3944 3.62027 10.2364 3.36246L8.52532 0.478908C8.43664 0.334034 8.27054 0.255603 8.10223 0.27894L2.42344 1.06764C2.14779 1.10599 1.98178 1.39327 2.0862 1.65116Z" fill="#7F7F7F"/>
<path d="M6.50941 2.03792L6.66792 2.23944C6.68595 2.26242 6.68028 2.28392 6.65529 2.28749L4.88826 2.54136C4.86327 2.54493 4.82831 2.52928 4.81029 2.50631L4.65178 2.30479C4.63375 2.28182 4.63942 2.26031 4.6644 2.25674L6.43144 2.00287C6.45651 1.9993 6.49138 2.01504 6.50941 2.03792Z" fill="#FAFAFA"/>
<path d="M4.66986 2.00635L5.24706 2.73959C5.27077 2.76961 5.24542 2.79441 5.20121 2.78435L4.10409 2.53432C4.05916 2.52407 4.02886 2.48563 4.05019 2.46586L4.5701 1.98265C4.59106 1.96315 4.64615 1.97633 4.66986 2.00635Z" fill="#FAFAFA"/>
<path d="M5.92707 2.92456L6.08558 3.12608C6.10361 3.14905 6.13857 3.1647 6.16355 3.16113L7.93059 2.90726C7.95557 2.90369 7.96124 2.88218 7.94322 2.85921L7.78471 2.65769C7.76668 2.63472 7.73172 2.61907 7.70673 2.62264L5.9397 2.87651C5.91462 2.88008 5.90904 2.90159 5.92707 2.92456Z" fill="#FAFAFA"/>
<path d="M7.34853 2.42441L7.92455 3.15784C7.94816 3.18795 8.00335 3.20104 8.0243 3.18163L8.5455 2.69915C8.56682 2.67938 8.53671 2.64095 8.49169 2.6307L7.39448 2.37984C7.35027 2.36959 7.32483 2.3943 7.34853 2.42441Z" fill="#FAFAFA"/>
<path d="M7.80232 3.68233L7.64381 3.48081C7.62578 3.45784 7.59082 3.44219 7.56584 3.44576L5.7988 3.69963C5.77382 3.7032 5.76815 3.72471 5.78618 3.74768L5.94468 3.9492C5.96271 3.97217 5.99767 3.98782 6.02266 3.98425L7.78969 3.73038C7.81467 3.72681 7.82035 3.7053 7.80232 3.68233Z" fill="#FAFAFA"/>
<path d="M6.38097 4.18256L5.80495 3.44913C5.78134 3.41902 5.72615 3.40593 5.7052 3.42534L5.184 3.90782C5.16268 3.92759 5.19279 3.96603 5.23781 3.97628L6.33502 4.22713C6.37923 4.23729 6.40458 4.21258 6.38097 4.18256Z" fill="#FAFAFA"/>
<path d="M4.95115 1.68339L4.79264 1.48187C4.77462 1.4589 4.78029 1.43739 4.80527 1.43382L6.57231 1.17995C6.59729 1.17638 6.63225 1.19203 6.65028 1.215L6.80879 1.41652C6.82682 1.4395 6.82114 1.461 6.79616 1.46457L5.02913 1.71844C5.00414 1.72201 4.96918 1.70627 4.95115 1.68339Z" fill="#FAFAFA"/>
<path d="M6.79074 1.71495L6.21354 0.981708C6.18984 0.95169 6.21519 0.926889 6.25939 0.936956L7.35651 1.18698C7.40145 1.19723 7.43174 1.23567 7.41041 1.25544L6.8905 1.73865C6.86954 1.75815 6.81436 1.74497 6.79074 1.71495Z" fill="#FAFAFA"/>
</svg>
