<?xml version="1.0" encoding="UTF-8" standalone="no"?>
<svg
   height="48"
   viewBox="0 -960 960 960"
   width="48"
   version="1.1"
   id="svg60"
   sodipodi:docname="published_with_changes_FILL0_wght400_GRAD0_opsz48.svg"
   inkscape:export-filename="published_with_changes_FILL0_wght400_GRAD0_opsz48.svg"
   inkscape:export-xdpi="96"
   inkscape:export-ydpi="96"
   inkscape:version="1.2.2 (1:1.2.2+202305151915+b0a8486541)"
   xmlns:inkscape="http://www.inkscape.org/namespaces/inkscape"
   xmlns:sodipodi="http://sodipodi.sourceforge.net/DTD/sodipodi-0.dtd"
   xmlns="http://www.w3.org/2000/svg"
   xmlns:svg="http://www.w3.org/2000/svg">
  <defs
     id="defs64" />
  <sodipodi:namedview
     id="namedview62"
     pagecolor="#ffffff"
     bordercolor="#000000"
     borderopacity="0.25"
     inkscape:showpageshadow="2"
     inkscape:pageopacity="0.0"
     inkscape:pagecheckerboard="0"
     inkscape:deskcolor="#d1d1d1"
     showgrid="false"
     inkscape:zoom="8.9359113"
     inkscape:cx="-27.137691"
     inkscape:cy="42.245272"
     inkscape:window-width="1920"
     inkscape:window-height="968"
     inkscape:window-x="0"
     inkscape:window-y="27"
     inkscape:window-maximized="1"
     inkscape:current-layer="svg60" />
  <path
     d="m 430,-82 c -48,-6 -92.83333,-20.33333 -134.5,-43 -41.66667,-22.66667 -77.66667,-51.5 -108,-86.5 -30.33333,-35 -54.16667,-75.33333 -71.5,-121 -17.333333,-45.66667 -26,-94.83333 -26,-147.5 0,-58.66667 13.83333,-114.66667 41.5,-168 27.66667,-53.33333 64.83333,-100.66667 111.5,-142 h -42 v -60 h 149 v 149 h -60 v -49 c -42.66667,34 -76.66667,74.5 -102,121.5 -25.33333,47 -38,96.5 -38,148.5 0,88 26.66667,163.16667 80,225.5 53.33333,62.33333 120,99.5 200,111.5 z M 268,-465 c -178.666667,-330 -89.33333,-165 0,0 z m 342,355 v -149 h 60 v 49 c 42.66667,-34.66667 76.66667,-75.33333 102,-122 25.33333,-46.66667 38,-96 38,-148 0,-88 -26.66667,-163.16667 -80,-225.5 C 676.66667,-767.83333 610,-805 530,-817 v -61 c 97.33333,12 178.33333,55 243,129 64.66667,74 97,163.66667 97,269 0,58.66667 -13.83333,114.66667 -41.5,168 -27.66667,53.33333 -64.83333,100.66667 -111.5,142 h 42 v 60 z"
     id="path58"
     sodipodi:nodetypes="cssssscccccccsssccccccccsssccssscccc" />
  <path
     d="m 383.46743,-295.29541 v -342 l 268,171 z"
     id="path868" />
</svg>
