<?xml version="1.0" encoding="utf-8"?>
<!-- Generator: Adobe Illustrator 19.0.1, SVG Export Plug-In . SVG Version: 6.00 Build 0)  -->
<svg version="1.1" width="12px" height="12px" id="Layer_1" xmlns="http://www.w3.org/2000/svg" xmlns:xlink="http://www.w3.org/1999/xlink" x="0px" y="0px"
	 viewBox="0 0 512 512" style="enable-background:new 0 0 512 512;" xml:space="preserve">
<style type="text/css">
	.st0{fill:#F48351;}
	.st1{fill:#FC9854;}
	.st2{fill:#FFAF73;}
	.st3{fill:#FAFAFA;}
</style>
<g>
	<path class="st0" d="M503.86032,343.36172L279.315,473.00305c-12.05695,6.96106-33.11713,6.08807-47.03928-1.94986
		L11.51697,343.59805C-2.40517,335.56009-3.91722,323.401,8.1397,316.43991l224.54535-129.6413
		c12.05693-6.96107,33.11711-6.08809,47.03926,1.94986l220.75876,127.45514
		C514.40521,324.24155,515.91724,336.40067,503.86032,343.36172z"/>
	<rect x="0.00002" y="182.09918" class="st0" width="511.99997" height="147.80162"/>
	<path class="st1" d="M503.86029,195.56007L279.31494,325.20139c-12.05692,6.96109-33.11711,6.0881-47.03926-1.94986
		L11.51692,195.7964c-13.92214-8.03796-15.43419-20.19707-3.37727-27.15814L232.685,38.99695
		c12.05693-6.96107,33.11713-6.08809,47.03925,1.94987l220.75879,127.45512
		C514.40515,176.4399,515.91724,188.59901,503.86029,195.56007z"/>
	<path class="st2" d="M475.54105,187.44321L276.65109,302.27237c-10.67935,6.16574-29.33333,5.39249-41.66479-1.72708
		L39.45029,187.65251c-12.33147-7.11957-13.67076-17.88945-2.9914-24.05518L235.34885,48.76817
		c10.67937-6.16573,29.33334-5.39249,41.66479,1.72709l195.53601,112.89276
		C484.8811,170.5076,486.2204,181.27747,475.54105,187.44321z"/>
	<g>
		<g>
			<path class="st3" d="M245.66992,143.62384l12.13538,7.00636c1.38168,0.79771,1.53174,2.00443,0.33517,2.69525l-84.49217,48.78159
				c-1.19656,0.69083-3.28665,0.6042-4.66832-0.19351l-12.13538-7.00636c-1.38167-0.79771-1.53174-2.00441-0.33517-2.69525
				l84.49217-48.78157C242.19817,142.7395,244.28824,142.82614,245.66992,143.62384z"/>
			<path class="st3" d="M151.6974,179.39383l44.17998,25.47556c1.81122,1.0444,1.02765,2.81396-1.41724,3.20062l-60.74153,9.60625
				c-2.48955,0.39372-4.8033-0.94046-4.12451-2.37833l16.56155-35.0818C146.82227,178.80406,149.8862,178.34943,151.6974,179.39383z
				"/>
		</g>
		<g>
			<path class="st3" d="M234.13461,200.43718l12.13538,7.00636c1.38168,0.79771,3.47176,0.88435,4.66832,0.19351l84.49217-48.78157
				c1.19656-0.69084,1.04651-1.89754-0.33517-2.69525l-12.13538-7.00636c-1.38168-0.79771-3.47174-0.88435-4.6683-0.19351
				l-84.49217,48.78157C232.60287,198.43277,232.75294,199.63948,234.13461,200.43718z"/>
			<path class="st3" d="M296.09003,146.18213l44.12497,25.50732c1.80896,1.0457,4.87393,0.59331,5.54364-0.81824l16.63852-35.06915
				c0.68195-1.43733-1.62894-2.77318-4.11938-2.38127l-60.76349,9.56181
				C295.06854,143.36746,294.28107,145.13643,296.09003,146.18213z"/>
		</g>
		<g>
			<path class="st3" d="M344.67657,200.78535l-12.13538-7.00636c-1.38168-0.79771-3.47174-0.88435-4.6683-0.19351
				l-84.49217,48.78157c-1.19656,0.69084-1.04651,1.89755,0.33517,2.69525l12.13538,7.00636
				c1.38167,0.79771,3.47176,0.88435,4.66832,0.19351l84.49216-48.78157
				C346.20831,202.78976,346.05826,201.58307,344.67657,200.78535z"/>
			<path class="st3" d="M282.72116,255.04042l-44.12497-25.50734c-1.80894-1.0457-4.87392-0.59331-5.54362,0.81825
				l-16.63852,35.06914c-0.68195,1.43735,1.62892,2.77319,4.11937,2.38129l60.76349-9.56183
				C283.74268,257.85507,284.53012,256.08612,282.72116,255.04042z"/>
		</g>
		<g>
			<path class="st3" d="M159.40469,157.29184l-12.13538-7.00636c-1.38167-0.79771-1.53172-2.00443-0.33516-2.69525
				l84.49216-48.78159c1.19656-0.69083,3.28665-0.60419,4.66832,0.19351l12.13538,7.00636
				c1.38167,0.79771,1.53174,2.00442,0.33517,2.69525l-84.49217,48.78157
				C162.87645,158.17618,160.78638,158.08954,159.40469,157.29184z"/>
			<path class="st3" d="M253.37721,121.52186L209.19724,96.0463c-1.8112-1.0444-1.02765-2.81396,1.41724-3.20061l60.74155-9.60625
				c2.48953-0.39371,4.80328,0.94046,4.12448,2.37832l-16.56152,35.08182
				C258.25235,122.11162,255.18843,122.56625,253.37721,121.52186z"/>
		</g>
	</g>
</g>
</svg>
