<svg width="12" height="12" viewBox="0 0 12 12" fill="none" xmlns="http://www.w3.org/2000/svg">
<g clip-path="url(#clip0_1_336)">
<path d="M11.8092 8.04754L6.54644 11.086C6.26386 11.2492 5.77026 11.2287 5.44396 11.0403L0.269928 8.05307C-0.0563721 7.86468 -0.0918108 7.57971 0.190773 7.41656L5.45355 4.37809C5.73614 4.21494 6.22974 4.2354 6.55604 4.42379L11.7301 7.41102C12.0564 7.59941 12.0918 7.88439 11.8092 8.04754Z" fill="#E53935"/>
<path d="M12 4.26794H0V7.73204H12V4.26794Z" fill="#E53935"/>
<path d="M11.8092 4.58342L6.54644 7.62189C6.26386 7.78504 5.77026 7.76458 5.44396 7.57619L0.269928 4.58896C-0.0563721 4.40057 -0.0918108 4.11559 0.190773 3.95244L5.45355 0.913976C5.73614 0.750826 6.22974 0.771286 6.55604 0.959676L11.7301 3.94691C12.0564 4.1353 12.0918 4.42027 11.8092 4.58342Z" fill="#E74C49"/>
<path d="M11.1455 4.39316L6.48403 7.08447C6.23373 7.22898 5.79653 7.21086 5.50751 7.044L0.924634 4.39807C0.635615 4.23121 0.604226 3.97879 0.854523 3.83428L5.51601 1.14297C5.7663 0.998459 6.20351 1.01658 6.49253 1.18345L11.0754 3.82937C11.3644 3.99624 11.3958 4.24866 11.1455 4.39316Z" fill="#EC7471"/>
<path d="M5.75707 3.36617L6.04149 3.53039C6.07388 3.54908 6.07739 3.57736 6.04935 3.59356L4.06906 4.73687C4.04102 4.75307 3.99203 4.75104 3.95965 4.73234L3.67523 4.56813C3.64284 4.54943 3.63933 4.52115 3.66737 4.50496L5.64766 3.36164C5.6757 3.34545 5.72469 3.34748 5.75707 3.36617Z" fill="#FAFAFA"/>
<path d="M3.55504 4.20455L4.59051 4.80163C4.63296 4.82611 4.61459 4.86758 4.55729 4.87665L3.13366 5.10179C3.07531 5.11102 3.02108 5.07975 3.03699 5.04605L3.42515 4.22382C3.44078 4.19072 3.51259 4.18007 3.55504 4.20455Z" fill="#FAFAFA"/>
<path d="M5.48675 4.69777L5.77117 4.86198C5.80356 4.88067 5.85254 4.8827 5.88059 4.86651L7.86087 3.72319C7.88892 3.707 7.8854 3.67872 7.85302 3.66002L7.56859 3.49581C7.53621 3.47712 7.48722 3.47509 7.45918 3.49128L5.47889 4.6346C5.45085 4.65079 5.45437 4.67907 5.48675 4.69777Z" fill="#FAFAFA"/>
<path d="M6.9392 3.42614L7.97338 4.02397C8.01578 4.04848 8.08761 4.03788 8.10331 4.00479L8.49327 3.18286C8.50926 3.14917 8.45509 3.11787 8.39672 3.12705L6.97258 3.35116C6.91526 3.36018 6.8968 3.40164 6.9392 3.42614Z" fill="#FAFAFA"/>
<path d="M8.0786 4.70592L7.79418 4.54171C7.7618 4.52302 7.71281 4.52098 7.68476 4.53718L5.70448 5.68049C5.67644 5.69669 5.67995 5.72497 5.71234 5.74366L5.99676 5.90788C6.02914 5.92657 6.07813 5.9286 6.10617 5.91241L8.08646 4.76909C8.1145 4.7529 8.11098 4.72462 8.0786 4.70592Z" fill="#FAFAFA"/>
<path d="M6.62625 5.97753L5.59207 5.3797C5.54967 5.35519 5.47784 5.36579 5.46214 5.39888L5.07217 6.22081C5.05619 6.2545 5.11035 6.2858 5.16872 6.27662L6.59287 6.05251C6.65019 6.04349 6.66864 6.00203 6.62625 5.97753Z" fill="#FAFAFA"/>
<path d="M3.73602 3.6865L3.45159 3.52229C3.41921 3.50359 3.41569 3.47531 3.44374 3.45912L5.42402 2.3158C5.45207 2.29961 5.50105 2.30164 5.53344 2.32034L5.81786 2.48455C5.85024 2.50324 5.85376 2.53153 5.82571 2.54772L3.84543 3.69104C3.81739 3.70723 3.7684 3.7052 3.73602 3.6865Z" fill="#FAFAFA"/>
<path d="M5.93861 2.84816L4.90314 2.25108C4.86069 2.2266 4.87905 2.18513 4.93635 2.17606L6.35998 1.95092C6.41833 1.94169 6.47256 1.97296 6.45665 2.00666L6.06849 2.82889C6.05287 2.86198 5.98106 2.87264 5.93861 2.84816Z" fill="#FAFAFA"/>
</g>
<defs>
<clipPath id="clip0_1_336">
<rect width="12" height="12" fill="white"/>
</clipPath>
</defs>
</svg>
