<svg width="24" height="24" viewBox="0 0 24 24" fill="none" xmlns="http://www.w3.org/2000/svg">
<path fill-rule="evenodd" clip-rule="evenodd" d="M14.6667 2H6.22222C5.66232 2 5.12535 2.21071 4.72944 2.58579C4.33353 2.96086 4.11111 3.46957 4.11111 4V9H4C2.89543 9 2 9.89543 2 11V16C2 17.1046 2.89543 18 4 18H4.11111V20C4.11111 20.5304 4.33353 21.0391 4.72944 21.4142C5.12535 21.7893 5.66232 22 6.22222 22H18.8889C19.4488 22 19.9858 21.7893 20.3817 21.4142C20.7776 21.0391 21 20.5304 21 20V16V11V8L14.6667 2ZM6.22222 20V18H18.8889V20H6.22222ZM6.22222 9H18.8889V8H14.0017V4H6.22222V9ZM7.74441 16V15.2617H5.52615V11.0234H4.58621V16H5.24246H5.52615H7.74441ZM12.5975 13.6416V13.3853C12.5975 13.007 12.5462 12.6686 12.4437 12.3701C12.3434 12.0716 12.1999 11.8175 12.013 11.6079C11.8285 11.396 11.6086 11.2342 11.3534 11.1226C11.0982 11.0109 10.8145 10.9551 10.5023 10.9551C10.1947 10.9551 9.91213 11.0109 9.65465 11.1226C9.39944 11.2342 9.17955 11.396 8.99498 11.6079C8.81041 11.8175 8.66685 12.0716 8.56431 12.3701C8.46178 12.6686 8.41051 13.007 8.41051 13.3853V13.6416C8.41051 14.0176 8.46178 14.356 8.56431 14.6567C8.66685 14.9552 8.81155 15.2093 8.9984 15.4189C9.18525 15.6286 9.40627 15.7892 9.66148 15.9009C9.91897 16.0125 10.2015 16.0684 10.5091 16.0684C10.8213 16.0684 11.105 16.0125 11.3602 15.9009C11.6154 15.7892 11.8353 15.6286 12.0199 15.4189C12.2045 15.2093 12.3469 14.9552 12.4471 14.6567C12.5474 14.356 12.5975 14.0176 12.5975 13.6416ZM11.6473 13.3784V13.6416C11.6473 13.9105 11.6223 14.1486 11.5721 14.356C11.522 14.5633 11.4479 14.7388 11.35 14.8823C11.2543 15.0236 11.1358 15.1307 10.9945 15.2036C10.8532 15.2765 10.6914 15.313 10.5091 15.313C10.3268 15.313 10.1651 15.2765 10.0238 15.2036C9.88251 15.1307 9.76174 15.0236 9.66148 14.8823C9.5635 14.7388 9.48831 14.5633 9.4359 14.356C9.38577 14.1486 9.3607 13.9105 9.3607 13.6416V13.3784C9.3607 13.1073 9.38577 12.8691 9.4359 12.6641C9.48831 12.4567 9.5635 12.2824 9.66148 12.1411C9.75946 11.9998 9.87795 11.8939 10.017 11.8232C10.1582 11.7503 10.32 11.7139 10.5023 11.7139C10.6823 11.7139 10.8441 11.7503 10.9877 11.8232C11.1312 11.8939 11.252 11.9998 11.35 12.1411C11.4479 12.2824 11.522 12.4567 11.5721 12.6641C11.6223 12.8691 11.6473 13.1073 11.6473 13.3784ZM17.6967 15.3643V13.4263H15.769V14.1133H16.7568V15.0464C16.718 15.0874 16.6634 15.1296 16.5927 15.1729C16.5221 15.2161 16.4275 15.2537 16.309 15.2856C16.1928 15.3153 16.0458 15.3301 15.8681 15.3301C15.6721 15.3301 15.4967 15.2948 15.3417 15.2241C15.1891 15.1512 15.0603 15.0452 14.9555 14.9062C14.853 14.765 14.7744 14.5918 14.7197 14.3867C14.665 14.1794 14.6376 13.9424 14.6376 13.6758V13.3408C14.6376 13.0765 14.6616 12.8418 14.7094 12.6367C14.7595 12.4316 14.8325 12.2596 14.9282 12.1206C15.0239 11.9816 15.1424 11.8757 15.2836 11.8027C15.4249 11.7298 15.5878 11.6934 15.7724 11.6934C15.9911 11.6934 16.1689 11.731 16.3056 11.8062C16.4446 11.8791 16.5517 11.9816 16.6269 12.1138C16.7021 12.2437 16.7522 12.3952 16.7773 12.5684H17.6933C17.6568 12.2539 17.5657 11.9759 17.4199 11.7344C17.274 11.4906 17.0644 11.2992 16.791 11.1602C16.5198 11.0212 16.1734 10.9517 15.7519 10.9517C15.4374 10.9517 15.1526 11.0052 14.8974 11.1123C14.6445 11.2194 14.4269 11.3755 14.2446 11.5806C14.0646 11.7856 13.9256 12.0363 13.8276 12.3325C13.7319 12.6287 13.684 12.9671 13.684 13.3477V13.6758C13.684 14.0563 13.7353 14.3947 13.8378 14.6909C13.9404 14.9871 14.0862 15.2378 14.2753 15.4429C14.4645 15.6479 14.69 15.804 14.9521 15.9111C15.2141 16.016 15.5035 16.0684 15.8203 16.0684C16.1848 16.0684 16.4925 16.0296 16.7431 15.9521C16.9938 15.8724 17.1966 15.7778 17.3515 15.6685C17.5087 15.5591 17.6238 15.4577 17.6967 15.3643Z"/>
</svg>
