<?xml version="1.0" encoding="utf-8"?>
<!-- Generator: Adobe Illustrator 19.0.1, SVG Export Plug-In . SVG Version: 6.00 Build 0)  -->
<svg version="1.1" width="12px" height="12px" id="Layer_1" xmlns="http://www.w3.org/2000/svg" xmlns:xlink="http://www.w3.org/1999/xlink" x="0px" y="0px"
	 viewBox="185 -186.26999 512 512" style="enable-background:new 185 -186.26999 512 512;" xml:space="preserve">
<style type="text/css">
	.st0{fill:#F48351;}
	.st1{fill:#FC9854;}
	.st2{fill:#FFAF73;}
	.st3{fill:#FAFAFA;}
</style>
<path class="st0" d="M512.32526,287.43594l-246.77164-42.2406c-5.45853-0.93434-10.15913-4.383-12.6889-9.30934l-65.91789-128.36522
	c-4.28726-8.34881-1.27045-18.59293,6.85744-23.28557l164.09915-94.74268c3.5578-2.0541,7.72202-2.79911,11.77133-2.10598
	l246.77161,42.24059c5.45856,0.93435,10.15918,4.383,12.68896,9.30935l65.91785,128.3652
	c4.28729,8.34882,1.27045,18.59294-6.85742,23.28557l-164.09918,94.74269
	C520.53876,287.38406,516.37457,288.12906,512.32526,287.43594z"/>
<polygon class="st0" points="696.24988,176.81953 186.02499,96.77346 186.02499,-39.21435 696.24988,40.83172 "/>
<path class="st1" d="M511.53656,151.72968L266.99023,109.87c-6.24982-1.06979-11.63181-5.01835-14.52829-10.65882
	L188.25403-25.82411c-4.90874-9.55904-1.45461-21.28814,7.85149-26.66101l161.15511-93.04294
	c4.07355-2.35187,8.84137-3.20486,13.47766-2.41127l244.54633,41.85968c6.24982,1.06979,11.63184,5.01835,14.52832,10.65882
	l64.20789,125.03529c4.90875,9.55904,1.45465,21.28814-7.85144,26.66101l-161.15515,93.04294
	C520.94067,151.67027,516.17285,152.52328,511.53656,151.72968z"/>
<path class="st2" d="M504.17319,137.0838L282.84012,99.19762c-5.43329-0.93004-10.11215-4.36274-12.63025-9.26632
	L211.80052-23.81216c-4.26744-8.31022-1.26457-18.50699,6.82574-23.17793l146.24654-84.43548
	c3.54138-2.04462,7.68634-2.78618,11.71692-2.09625l221.33307,37.88619c5.43329,0.93004,10.11218,4.36274,12.63025,9.26632
	L668.9624,27.37415c4.26746,8.31022,1.26453,18.50699-6.82574,23.17793l-146.24658,84.43549
	C512.34875,137.03217,508.20377,137.77373,504.17319,137.0838z"/>
</svg>
