<svg width="12" height="12" viewBox="0 0 12 12" fill="none" xmlns="http://www.w3.org/2000/svg">
<g clip-path="url(#clip0_1_375)">
<path d="M7.67169 11.1025L1.88798 10.1125C1.76004 10.0906 1.64987 10.0097 1.59058 9.89427L0.0456287 6.88571C-0.054854 6.69003 0.0158528 6.44994 0.20635 6.33995L4.05242 4.11942C4.13581 4.07128 4.23341 4.05382 4.32831 4.07006L10.112 5.06008C10.24 5.08198 10.3501 5.1628 10.4094 5.27826L11.9544 8.28682C12.0549 8.4825 11.9841 8.7226 11.7937 8.83258L7.94758 11.0531C7.86419 11.1013 7.76659 11.1187 7.67169 11.1025Z" fill="#E53935"/>
<path d="M11.9828 8.50989L0.0244141 6.63381V3.44659L11.9828 5.32267V8.50989Z" fill="#E53935"/>
<path d="M7.65359 7.92187L1.92204 6.94078C1.77556 6.91571 1.64942 6.82316 1.58153 6.69096L0.0766571 3.76045C-0.0383915 3.53641 0.0425646 3.26151 0.260676 3.13558L4.03775 0.954888C4.13322 0.899766 4.24497 0.879774 4.35363 0.898374L10.0852 1.87946C10.2317 1.90453 10.3578 1.99708 10.4257 2.12928L11.9306 5.05979C12.0456 5.28383 11.9647 5.55873 11.7465 5.68466L7.96947 7.86535C7.874 7.92047 7.76225 7.94047 7.65359 7.92187Z" fill="#E74C49"/>
<path d="M7.48091 7.57861L2.29342 6.69066C2.16607 6.66886 2.05641 6.58841 1.99739 6.47348L0.628426 3.80762C0.528407 3.61284 0.598787 3.37386 0.788404 3.26438L4.21606 1.28543C4.29906 1.23751 4.39621 1.22013 4.49067 1.2363L9.67817 2.12425C9.80551 2.14605 9.91517 2.22651 9.97419 2.34143L11.3432 5.00729C11.4432 5.20207 11.3728 5.44105 11.1832 5.55053L7.75552 7.52948C7.67252 7.5774 7.57538 7.59479 7.48091 7.57861Z" fill="#EC7471"/>
</g>
<defs>
<clipPath id="clip0_1_375">
<rect width="12" height="12" fill="white"/>
</clipPath>
</defs>
</svg>
