<svg width="12" height="12" viewBox="0 0 12 12" fill="none" xmlns="http://www.w3.org/2000/svg">
<g clip-path="url(#clip0_1370_142)">
<path d="M0.0466669 6.68283L1.73407 10.8497C1.84558 11.125 2.13368 11.2857 2.42655 11.2359L11.473 9.69603C11.9143 9.62091 12.1401 9.1237 11.9063 8.74196L9.58143 4.94702C9.45005 4.73256 9.20411 4.6163 8.955 4.6509L0.545976 5.81882C0.137885 5.8755 -0.107981 6.30095 0.0466669 6.68283Z" fill="#E53935"/>
<path d="M11.9908 9.32117L0.0002832 6.45227L0 2.51385L11.9908 5.6654V9.32117Z" fill="#E53935"/>
<path d="M0.0455221 2.74315L1.98581 7.40471C2.09459 7.67332 2.37562 7.83005 2.66131 7.78142L11.4859 6.27936C11.9164 6.20608 12.1367 5.72106 11.9086 5.34868L9.34647 1.0499C9.21831 0.8407 8.9784 0.727292 8.7354 0.761043L0.532587 1.90032C0.134503 1.95561 -0.105332 2.37063 0.0455221 2.74315Z" fill="#E74C49"/>
<path d="M0.624819 2.9202L2.30403 7.03042C2.40277 7.27426 2.65788 7.41653 2.91722 7.37238L10.9279 6.00886C11.3187 5.94234 11.5186 5.50206 11.3116 5.16403L9.06791 1.38313C8.95157 1.19322 8.73379 1.09028 8.5132 1.12091L1.06696 2.15511C0.705594 2.2053 0.487879 2.58204 0.624819 2.9202Z" fill="#EC7471"/>
<path fill-rule="evenodd" clip-rule="evenodd" d="M6.40624 3.90781C6.24548 3.64645 5.88807 3.49843 5.55304 3.56005C5.2295 3.64033 5.067 3.89583 5.22776 4.1572C5.36541 4.4243 5.75741 4.58525 6.08095 4.50497C6.41598 4.44335 6.54389 4.17491 6.40624 3.90781Z" fill="white"/>
<path d="M7.12404 3.60293L7.35521 3.89694C7.38153 3.93042 7.43246 3.9533 7.46896 3.94806L9.03157 3.72583C9.06808 3.72059 9.07633 3.6892 9.05001 3.65572L8.81884 3.36171C8.79252 3.32823 8.74159 3.30535 8.70509 3.31059L7.14248 3.53282C7.10597 3.53806 7.09772 3.56945 7.12404 3.60293Z" fill="#FAFAFA"/>
<path d="M8.18258 3.02144L9.02282 4.09128C9.05727 4.13514 9.1377 4.15434 9.1683 4.12601L9.92854 3.42215C9.9597 3.39331 9.91569 3.33728 9.8501 3.32228L8.24961 2.95629C8.18519 2.94156 8.14813 2.97758 8.18258 3.02144Z" fill="#FAFAFA"/>
<path d="M4.41659 4.46892L4.18542 4.17491C4.1591 4.14144 4.10817 4.11855 4.07166 4.1238L2.50905 4.34602C2.47255 4.35126 2.4643 4.38265 2.49062 4.41613L2.72179 4.71014C2.74811 4.74362 2.79904 4.7665 2.83554 4.76126L4.39815 4.53903C4.43466 4.53379 4.44291 4.5024 4.41659 4.46892Z" fill="#FAFAFA"/>
<path d="M3.358 5.05035L2.51775 3.98051C2.4833 3.93665 2.40287 3.91745 2.37227 3.94578L1.61203 4.64964C1.58087 4.67849 1.62488 4.73452 1.69048 4.74952L3.29096 5.1155C3.35538 5.13023 3.39244 5.09421 3.358 5.05035Z" fill="#FAFAFA"/>
<path d="M2.266 2.61009L2.494 2.42263C2.51995 2.40129 2.56309 2.39228 2.59033 2.4025L3.7478 2.83598C3.77504 2.84621 3.77609 2.8718 3.75013 2.89315L3.52213 3.0806C3.49617 3.10195 3.45304 3.11096 3.42579 3.10073L2.26833 2.66725C2.24108 2.65702 2.24004 2.63143 2.266 2.61009Z" fill="#FAFAFA"/>
<path d="M2.97405 3.23506L3.80295 2.5528C3.83693 2.52483 3.90218 2.52366 3.92097 2.55068L4.3877 3.222C4.40683 3.24951 4.36342 3.28524 4.31032 3.28569L3.01468 3.29664C2.96253 3.29708 2.94007 3.26303 2.97405 3.23506Z" fill="#FAFAFA"/>
<path d="M9.38526 5.36419L9.15726 5.55164C9.13131 5.57299 9.08817 5.582 9.06093 5.57177L7.90346 5.13829C7.87622 5.12806 7.87517 5.10247 7.90113 5.08112L8.12913 4.89367C8.15508 4.87232 8.19822 4.86331 8.22546 4.87354L9.38293 5.30702C9.41017 5.31725 9.41122 5.34284 9.38526 5.36419Z" fill="#FAFAFA"/>
<path d="M8.67716 4.73925L7.84826 5.42151C7.81428 5.44948 7.74903 5.45066 7.73024 5.42364L7.26351 4.75231C7.24438 4.7248 7.28779 4.68907 7.34089 4.68862L8.63653 4.67768C8.68868 4.67724 8.71114 4.71128 8.67716 4.73925Z" fill="#FAFAFA"/>
<path d="M8.13342 1.60328L7.85456 1.50652C7.82281 1.4955 7.77923 1.50201 7.75722 1.52105L6.82192 2.32903C6.79991 2.34807 6.8078 2.37244 6.83955 2.38346L7.11841 2.48021C7.15016 2.49123 7.19374 2.48472 7.21575 2.46568L8.15105 1.6577C8.17306 1.63866 8.16517 1.61429 8.13342 1.60328Z" fill="#FAFAFA"/>
<path d="M7.68607 2.43503L6.67201 2.08256C6.63043 2.06811 6.56883 2.08964 6.56058 2.1215L6.35562 2.91301C6.34722 2.94546 6.40033 2.96391 6.45029 2.94592L7.66931 2.50687C7.71838 2.4892 7.72764 2.44948 7.68607 2.43503Z" fill="#FAFAFA"/>
<path d="M3.82454 6.60757L4.11213 6.674C4.14487 6.68157 4.18751 6.67044 4.20736 6.64916L5.05106 5.74594C5.07091 5.72466 5.06046 5.70127 5.02771 5.69371L4.74012 5.62728C4.70737 5.61972 4.66474 5.63084 4.64489 5.65212L3.80119 6.55534C3.78134 6.57662 3.79179 6.60001 3.82454 6.60757Z" fill="#FAFAFA"/>
<path d="M4.18062 5.73282L5.22652 5.97501C5.2694 5.98493 5.32835 5.95695 5.33315 5.92439L5.45243 5.11552C5.45732 5.08237 5.40255 5.06968 5.35479 5.09291L4.18961 5.6596C4.14271 5.68241 4.13774 5.72289 4.18062 5.73282Z" fill="#FAFAFA"/>
</g>
<defs>
<clipPath id="clip0_1370_142">
<rect width="12" height="12" fill="white"/>
</clipPath>
</defs>
</svg>
