<svg width="12" height="12" viewBox="0 0 12 12" fill="none" xmlns="http://www.w3.org/2000/svg">
<g clip-path="url(#clip0_1370_477)">
<path d="M0.046667 6.6828L1.73407 10.8497C1.84558 11.125 2.13368 11.2857 2.42655 11.2359L11.473 9.696C11.9143 9.62088 12.1401 9.12367 11.9063 8.74193L9.58143 4.94699C9.45005 4.73253 9.20411 4.61627 8.955 4.65087L0.545976 5.81879C0.137885 5.87547 -0.107981 6.30092 0.046667 6.6828Z" fill="#686868"/>
<path d="M11.9908 9.32114L0.0002832 6.45224L0 2.51382L11.9908 5.66537V9.32114Z" fill="#686868"/>
<path d="M0.0455221 2.74312L1.98581 7.40468C2.09459 7.67329 2.37562 7.83002 2.66131 7.78139L11.4859 6.27933C11.9164 6.20605 12.1367 5.72103 11.9086 5.34865L9.34647 1.04987C9.21831 0.840669 8.9784 0.727261 8.7354 0.761012L0.532587 1.90029C0.134503 1.95558 -0.105332 2.3706 0.0455221 2.74312Z" fill="#777777"/>
<path d="M0.624819 2.92017L2.30403 7.03039C2.40277 7.27423 2.65788 7.4165 2.91722 7.37235L10.9279 6.00883C11.3187 5.94231 11.5186 5.50203 11.3116 5.164L9.06791 1.3831C8.95157 1.19319 8.73379 1.09025 8.5132 1.12088L1.06696 2.15508C0.705594 2.20527 0.487879 2.58201 0.624819 2.92017Z" fill="#7F7F7F"/>
<path d="M7.85456 1.50649L8.13342 1.60325C8.16517 1.61426 8.17306 1.63863 8.15105 1.65767L7.37599 2.32722L7.68607 2.435C7.72764 2.44945 7.71838 2.48917 7.66931 2.50684L6.45029 2.94589C6.40033 2.96388 6.34722 2.94543 6.35562 2.91298L6.56058 2.12147C6.56883 2.08961 6.63043 2.06808 6.67201 2.08253L6.98236 2.1904L7.75722 1.52102C7.77923 1.50198 7.82281 1.49547 7.85456 1.50649Z" fill="#FAFAFA"/>
<path d="M2.494 2.4226L2.266 2.61006C2.24004 2.6314 2.24108 2.65699 2.26833 2.66722L3.22749 3.02643L2.97405 3.23503C2.94007 3.263 2.96253 3.29705 3.01468 3.29661L4.31032 3.28566C4.36342 3.28521 4.40683 3.24948 4.3877 3.22197L3.92097 2.55065C3.90218 2.52363 3.83693 2.5248 3.80295 2.55277L3.54924 2.76159L2.59033 2.40247C2.56309 2.39225 2.51995 2.40126 2.494 2.4226Z" fill="#FAFAFA"/>
<path d="M8.43936 3.34835L8.18258 3.02141C8.14813 2.97755 8.18519 2.94153 8.24961 2.95626L9.8501 3.32225C9.91569 3.33725 9.9597 3.39328 9.92854 3.42212L9.1683 4.12598C9.1377 4.15431 9.05727 4.13511 9.02282 4.09125L8.76552 3.76364L7.46896 3.94803C7.43246 3.95327 7.38153 3.93039 7.35521 3.89691L7.12404 3.6029C7.09772 3.56942 7.10597 3.53803 7.14248 3.53279L8.43936 3.34835Z" fill="#FAFAFA"/>
<path d="M6.40624 3.90778C6.24548 3.64642 5.88807 3.4984 5.55304 3.56002C5.2295 3.6403 5.067 3.8958 5.22776 4.15717C5.36541 4.42427 5.75741 4.58522 6.08095 4.50494C6.41598 4.44332 6.54389 4.17488 6.40624 3.90778Z" fill="#FAFAFA"/>
<path d="M3.358 5.05032L3.10126 4.72344L4.39815 4.539C4.43466 4.53376 4.44291 4.50237 4.41659 4.46889L4.18542 4.17488C4.1591 4.14141 4.10817 4.11852 4.07166 4.12377L2.7751 4.30815L2.51775 3.98048C2.4833 3.93662 2.40287 3.91742 2.37227 3.94575L1.61203 4.64961C1.58087 4.67846 1.62488 4.73449 1.69048 4.74949L3.29096 5.11547C3.35538 5.1302 3.39244 5.09418 3.358 5.05032Z" fill="#FAFAFA"/>
<path d="M8.67716 4.73922L8.42377 4.94778L9.38293 5.30699C9.41017 5.31722 9.41122 5.34281 9.38526 5.36416L9.15726 5.55161C9.13131 5.57296 9.08817 5.58197 9.06093 5.57174L8.10201 5.21262L7.84826 5.42148C7.81428 5.44945 7.74903 5.45063 7.73024 5.42361L7.26351 4.75228C7.24438 4.72477 7.28779 4.68904 7.34089 4.68859L8.63653 4.67765C8.68868 4.67721 8.71114 4.71125 8.67716 4.73922Z" fill="#FAFAFA"/>
<path d="M4.18062 5.73279L4.50035 5.80683L3.80119 6.55531C3.78134 6.57659 3.79179 6.59998 3.82454 6.60754L4.11213 6.67397C4.14487 6.68154 4.18751 6.67041 4.20736 6.64913L4.90634 5.90084L5.22652 5.97498C5.2694 5.9849 5.32835 5.95692 5.33315 5.92436L5.45243 5.11549C5.45732 5.08234 5.40255 5.06965 5.35479 5.09288L4.18961 5.65957C4.14271 5.68238 4.13774 5.72286 4.18062 5.73279Z" fill="#FAFAFA"/>
</g>
<defs>
<clipPath id="clip0_1370_477">
<rect width="12" height="12" fill="white"/>
</clipPath>
</defs>
</svg>
