<?xml version="1.0" encoding="utf-8"?>
<!-- Generator: Adobe Illustrator 19.0.1, SVG Export Plug-In . SVG Version: 6.00 Build 0)  -->
<svg version="1.1" width="12px" height="12px" id="Layer_1" xmlns="http://www.w3.org/2000/svg" xmlns:xlink="http://www.w3.org/1999/xlink" x="0px" y="0px"
	 viewBox="0 0 512 512" style="enable-background:new 0 0 512 512;" xml:space="preserve">
<style type="text/css">
	.st0{fill:#ADADAD;}
	.st1{fill:#BFBFBF;}
	.st2{fill:#CCCCCC;}
	.st3{fill:#FAFAFA;}
</style>
<g>
	<path class="st0" d="M503.86002,343.36172L279.3147,473.00305c-12.05695,6.96106-33.11713,6.08807-47.03928-1.94986
		L11.51666,343.59805C-2.40548,335.56009-3.91753,323.401,8.1394,316.43991l224.54535-129.6413
		c12.05693-6.96107,33.11711-6.08809,47.03926,1.94986l220.75876,127.45514
		C514.40491,324.24155,515.91693,336.40067,503.86002,343.36172z"/>
	<rect x="-0.00029" y="182.09918" class="st0" width="511.99997" height="147.80162"/>
	<path class="st1" d="M503.85999,195.56007L279.31464,325.20139c-12.05692,6.96109-33.11711,6.0881-47.03926-1.94986
		L11.51662,195.7964c-13.92214-8.03796-15.43419-20.19707-3.37727-27.15814L232.68469,38.99695
		c12.05693-6.96107,33.11713-6.08809,47.03925,1.94987l220.75879,127.45512
		C514.40485,176.4399,515.91693,188.59901,503.85999,195.56007z"/>
	<path class="st2" d="M475.54074,187.44321L276.65079,302.27237c-10.67935,6.16574-29.33333,5.39249-41.66479-1.72708
		L39.44999,187.65251c-12.33147-7.11957-13.67076-17.88945-2.9914-24.05518L235.34854,48.76817
		c10.67937-6.16573,29.33334-5.39249,41.66479,1.72709l195.53601,112.89276
		C484.8808,170.5076,486.22009,181.27747,475.54074,187.44321z"/>
	<g>
		<g>
			<path class="st3" d="M259.41263,157.44328l12.13538,7.00636c1.38168,0.79771,1.53174,2.00441,0.33517,2.69525l-84.49217,48.78157
				c-1.19656,0.69084-3.28664,0.6042-4.6683-0.19351l-12.13538-7.00636c-1.38168-0.7977-1.53174-2.00441-0.33517-2.69525
				l84.49217-48.78157C255.94089,156.55894,258.03094,156.64557,259.41263,157.44328z"/>
			<path class="st3" d="M165.44011,193.21326l44.17999,25.47557c1.8112,1.04439,1.02763,2.81395-1.41724,3.20061l-60.74155,9.60625
				c-2.48953,0.39372-4.80328-0.94046-4.1245-2.37831l16.56155-35.08182
				C160.56499,192.62349,163.62891,192.16887,165.44011,193.21326z"/>
		</g>
		<g>
			<path class="st3" d="M247.87733,214.25662l12.13536,7.00636c1.38168,0.79771,3.47177,0.88435,4.66833,0.19351l84.49216-48.78157
				c1.19656-0.69084,1.04651-1.89755-0.33517-2.69525l-12.13538-7.00636c-1.38168-0.79771-3.47174-0.88435-4.6683-0.19351
				l-84.49217,48.78157C246.3456,212.25221,246.49565,213.45891,247.87733,214.25662z"/>
			<path class="st3" d="M309.83273,160.00157l44.12497,25.50732c1.80896,1.0457,4.87393,0.59331,5.54364-0.81825l16.63852-35.06914
				c0.68195-1.43733-1.62894-2.77318-4.11938-2.38129l-60.76346,9.56181C308.81125,157.1869,308.0238,158.95587,309.83273,160.00157
				z"/>
		</g>
		<g>
			<path class="st3" d="M173.14742,171.11127l-12.13538-7.00636c-1.38167-0.7977-1.53174-2.00441-0.33517-2.69525l84.49217-48.78157
				c1.19656-0.69083,3.28664-0.60419,4.6683,0.19351l12.13538,7.00636c1.38168,0.79771,1.53174,2.00442,0.33517,2.69525
				l-84.49216,48.78157C176.61917,171.99562,174.52908,171.90898,173.14742,171.11127z"/>
			<path class="st3" d="M267.11993,135.34129l-44.17999-25.47556c-1.8112-1.0444-1.02763-2.81396,1.41725-3.20062l60.74153-9.60625
				c2.48953-0.39372,4.80328,0.94046,4.12451,2.37832L272.66168,134.519
				C271.99506,135.93106,268.93112,136.3857,267.11993,135.34129z"/>
		</g>
	</g>
</g>
</svg>
