<?xml version="1.0" encoding="utf-8"?>
<!-- Generator: Adobe Illustrator 19.0.1, SVG Export Plug-In . SVG Version: 6.00 Build 0)  -->
<svg version="1.1" width="12px" height="12px" id="Layer_1" xmlns="http://www.w3.org/2000/svg" xmlns:xlink="http://www.w3.org/1999/xlink" x="0px" y="0px"
	 viewBox="0 0 512 512" style="enable-background:new 0 0 512 512;" xml:space="preserve">
<style type="text/css">
	.st0{fill:#808000;}
	.st1{fill:#999900;}
	.st2{fill:#B3B300;}
	.st3{fill:#FAFAFA;}
</style>
<g>
	<path class="st0" d="M503.86038,343.36172L279.31503,473.00305c-12.05692,6.96106-33.11711,6.08807-47.03926-1.94986
		L11.51701,343.59805c-13.92214-8.03796-15.43419-20.19705-3.37727-27.15814l224.54535-129.6413
		c12.05693-6.96107,33.11713-6.08809,47.03925,1.94986l220.75879,127.45514
		C514.40527,324.24155,515.9173,336.40067,503.86038,343.36172z"/>
	<rect x="0.00006" y="182.09918" class="st0" width="511.99997" height="147.80162"/>
	<path class="st1" d="M503.86032,195.56007L279.315,325.20139c-12.05695,6.96109-33.11713,6.0881-47.03928-1.94986
		L11.51697,195.7964c-13.92214-8.03796-15.43419-20.19707-3.37727-27.15814L232.68504,38.99695
		c12.05693-6.96107,33.11711-6.08809,47.03926,1.94987l220.75876,127.45512
		C514.40521,176.4399,515.91724,188.59901,503.86032,195.56007z"/>
	<path class="st2" d="M475.54111,187.44321L276.65115,302.27237c-10.67938,6.16574-29.33334,5.39249-41.66481-1.72708
		L39.45034,187.65251c-12.33147-7.11957-13.67076-17.88945-2.9914-24.05518L235.34889,48.76817
		c10.67937-6.16573,29.33333-5.39249,41.66481,1.72709l195.53598,112.89276
		C484.88116,170.5076,486.22046,181.27747,475.54111,187.44321z"/>
	<g>
		<g>
			<path class="st3" d="M259.41287,157.21111l12.13538,7.00636c1.38165,0.79771,1.53171,2.00441,0.33514,2.69525l-84.49216,48.78157
				c-1.19656,0.69084-3.28664,0.6042-4.6683-0.19351l-12.13538-7.00636c-1.38168-0.7977-1.53174-2.00441-0.33517-2.69525
				l84.49217-48.78157C255.94112,156.32675,258.03119,156.41339,259.41287,157.21111z"/>
			<path class="st3" d="M165.44034,192.98108l44.17999,25.47557c1.8112,1.04439,1.02763,2.81395-1.41724,3.20061l-60.74155,9.60625
				c-2.48953,0.39372-4.80328-0.94046-4.1245-2.37831l16.56154-35.08182
				C160.56522,192.39131,163.62914,191.93668,165.44034,192.98108z"/>
		</g>
		<g>
			<path class="st3" d="M247.87756,214.02444l12.13538,7.00636c1.38168,0.79771,3.47174,0.88434,4.6683,0.19351l84.49216-48.78157
				c1.19656-0.69084,1.04651-1.89755-0.33514-2.69525l-12.13538-7.00636c-1.38168-0.79771-3.47177-0.88435-4.66833-0.19351
				l-84.49216,48.78157C246.34583,212.02003,246.49588,213.22673,247.87756,214.02444z"/>
			<path class="st3" d="M309.83298,159.76939l44.12497,25.50732c1.80893,1.0457,4.8739,0.59331,5.54361-0.81825l16.63852-35.06914
				c0.68195-1.43733-1.62891-2.77318-4.11935-2.38129l-60.76349,9.56181
				C308.81146,156.95473,308.02402,158.72369,309.83298,159.76939z"/>
		</g>
		<g>
			<path class="st3" d="M173.14764,170.87909l-12.13538-7.00636c-1.38167-0.79771-1.53174-2.00441-0.33517-2.69525
				l84.49217-48.78157c1.19656-0.69083,3.28664-0.6042,4.6683,0.19351l12.13539,7.00636
				c1.38165,0.79771,1.53174,2.00441,0.33517,2.69525l-84.49217,48.78157
				C176.6194,171.76344,174.52931,171.6768,173.14764,170.87909z"/>
			<path class="st3" d="M267.12015,135.10912l-44.17998-25.47556c-1.8112-1.0444-1.02763-2.81396,1.41725-3.20061l60.74152-9.60625
				c2.48956-0.39372,4.80331,0.94046,4.12451,2.37832l-16.56155,35.08181
				C271.9953,135.69888,268.93137,136.15352,267.12015,135.10912z"/>
		</g>
	</g>
</g>
</svg>
