<?xml version="1.0" encoding="utf-8"?>
<!-- Generator: Adobe Illustrator 19.0.1, SVG Export Plug-In . SVG Version: 6.00 Build 0)  -->
<svg version="1.1" width="12px" height="12px" id="Layer_1" xmlns="http://www.w3.org/2000/svg" xmlns:xlink="http://www.w3.org/1999/xlink" x="0px" y="0px"
	 viewBox="0 0 512 512" style="enable-background:new 0 0 512 512;" xml:space="preserve">
<style type="text/css">
	.st0{fill:#686868;}
	.st1{fill:#777777;}
	.st2{fill:#7F7F7F;}
	.st3{fill:#FAFAFA;}
</style>
<g>
	<path class="st0" d="M503.86008,343.36172L279.31473,473.00305c-12.05692,6.96106-33.11711,6.08807-47.03925-1.94986
		L11.51672,343.59805c-13.92214-8.03796-15.43419-20.19705-3.37727-27.15814l224.54535-129.6413
		c12.05692-6.96107,33.11711-6.08809,47.03926,1.94986l220.75876,127.45514
		C514.40497,324.24155,515.91699,336.40067,503.86008,343.36172z"/>
	<rect x="-0.00023" y="182.09918" class="st0" width="511.99997" height="147.80162"/>
	<path class="st1" d="M503.86005,195.56007L279.3147,325.20139c-12.05692,6.96109-33.11713,6.0881-47.03926-1.94986
		L11.51667,195.7964c-13.92214-8.03796-15.43419-20.19707-3.37727-27.15814L232.68475,38.99695
		c12.05692-6.96107,33.11713-6.08809,47.03925,1.94987l220.75876,127.45512
		C514.40491,176.4399,515.91699,188.59901,503.86005,195.56007z"/>
	<path class="st2" d="M475.5408,187.44321L276.65085,302.27237c-10.67935,6.16574-29.33333,5.39249-41.66479-1.72708
		L39.45004,187.65251c-12.33147-7.11957-13.67076-17.88945-2.9914-24.05518L235.3486,48.76817
		c10.67935-6.16573,29.33331-5.39249,41.66479,1.72709l195.53601,112.89276
		C484.88086,170.5076,486.22015,181.27747,475.5408,187.44321z"/>
	<g>
		<g>
			<path class="st3" d="M259.41263,157.44318l12.13538,7.00636c1.38165,0.79771,1.53174,2.00441,0.33517,2.69525l-84.49217,48.78157
				c-1.19656,0.69084-3.28664,0.6042-4.66832-0.19351l-12.13538-7.00636c-1.38167-0.7977-1.53174-2.00441-0.33517-2.69525
				l84.49217-48.78157C255.94087,156.55882,258.03094,156.64546,259.41263,157.44318z"/>
			<path class="st3" d="M165.44011,193.21315l44.17998,25.47557c1.81122,1.04439,1.02765,2.81395-1.41724,3.20061l-60.74153,9.60625
				c-2.48955,0.39372-4.8033-0.94046-4.12451-2.37831l16.56155-35.08182
				C160.56497,192.62338,163.62891,192.16875,165.44011,193.21315z"/>
		</g>
		<g>
			<path class="st3" d="M247.87732,214.25652l12.13538,7.00636c1.38168,0.79771,3.47174,0.88435,4.6683,0.19351l84.49219-48.78157
				c1.19656-0.69084,1.04648-1.89755-0.33517-2.69525l-12.13538-7.00636c-1.38168-0.79771-3.47177-0.88435-4.66833-0.19351
				l-84.49216,48.78157C246.34558,212.25211,246.49565,213.4588,247.87732,214.25652z"/>
			<path class="st3" d="M309.83273,160.00146l44.12497,25.50732c1.80896,1.0457,4.87393,0.59331,5.54364-0.81825l16.63849-35.06914
				c0.68195-1.43733-1.62891-2.77318-4.11935-2.38129l-60.76349,9.56181
				C308.81122,157.1868,308.02377,158.95576,309.83273,160.00146z"/>
		</g>
		<g>
			<path class="st3" d="M173.1474,171.11116l-12.13538-7.00636c-1.38167-0.7977-1.53172-2.00441-0.33516-2.69525l84.49216-48.78157
				c1.19656-0.69083,3.28664-0.6042,4.66832,0.19351l12.13538,7.00636c1.38168,0.79771,1.53174,2.00441,0.33517,2.69525
				l-84.49217,48.78157C176.61916,171.99551,174.52908,171.90887,173.1474,171.11116z"/>
			<path class="st3" d="M267.11993,135.34119l-44.17999-25.47556c-1.81122-1.0444-1.02765-2.81396,1.41724-3.20061l60.74155-9.60625
				c2.48953-0.39372,4.80328,0.94046,4.12448,2.37832l-16.56152,35.08181
				C271.99506,135.93095,268.93112,136.38559,267.11993,135.34119z"/>
		</g>
	</g>
</g>
</svg>
