<?xml version="1.0" encoding="utf-8"?>
<!-- Generator: Adobe Illustrator 19.0.1, SVG Export Plug-In . SVG Version: 6.00 Build 0)  -->
<svg version="1.1" width="12px" height="12px" id="Layer_1" xmlns="http://www.w3.org/2000/svg" xmlns:xlink="http://www.w3.org/1999/xlink" x="0px" y="0px"
	 viewBox="0 0 512 512" style="enable-background:new 0 0 512 512;" xml:space="preserve">
<style type="text/css">
	.st0{fill:#4BB7E2;}
	.st1{fill:#60C7E2;}
	.st2{fill:#7AD5EA;}
	.st3{fill:#FAFAFA;}
</style>
<g>
	<path class="st0" d="M503.86017,343.36172L279.31482,473.00305c-12.05692,6.96106-33.11711,6.08807-47.03925-1.94986
		L11.51681,343.59805c-13.92214-8.03796-15.43419-20.19705-3.37727-27.15814l224.54533-129.6413
		c12.05693-6.96107,33.11713-6.08809,47.03928,1.94986l220.75876,127.45514
		C514.40503,324.24155,515.91711,336.40067,503.86017,343.36172z"/>
	<rect x="-0.00014" y="182.09918" class="st0" width="511.99997" height="147.80161"/>
	<path class="st1" d="M503.86014,195.56007L279.31479,325.20139c-12.05695,6.96109-33.11713,6.0881-47.03926-1.94986
		L11.51676,195.7964c-13.92214-8.03796-15.43419-20.19707-3.37727-27.15814L232.68483,38.99695
		c12.05693-6.96107,33.11714-6.08809,47.03926,1.94987l220.75876,127.45512
		C514.40497,176.4399,515.91705,188.59901,503.86014,195.56007z"/>
	<path class="st2" d="M475.54089,187.44321L276.65094,302.27237c-10.67938,6.16574-29.33333,5.39249-41.66479-1.72708
		L39.45013,187.65251c-12.33147-7.11957-13.67076-17.88945-2.9914-24.05518L235.34868,48.76817
		c10.67937-6.16573,29.33333-5.39249,41.66481,1.72709L472.5495,163.38802
		C484.88095,170.5076,486.22025,181.27747,475.54089,187.44321z"/>
	<g>
		<g>
			<path class="st3" d="M259.4126,156.23343l12.13538,7.00636c1.38168,0.79771,1.53174,2.00443,0.33517,2.69525l-84.49216,48.78157
				c-1.19656,0.69084-3.28664,0.6042-4.6683-0.1935l-12.13538-7.00636c-1.38168-0.79771-1.53174-2.00443-0.33517-2.69525
				l84.49216-48.78159C255.94086,155.34909,258.03094,155.43571,259.4126,156.23343z"/>
			<path class="st3" d="M165.44009,192.0034l44.17999,25.47557c1.8112,1.04439,1.02763,2.81395-1.41725,3.20061l-60.74153,9.60625
				c-2.48955,0.39372-4.8033-0.94046-4.1245-2.37831l16.56154-35.08182C160.56496,191.41364,163.62889,190.95901,165.44009,192.0034
				z"/>
		</g>
		<g>
			<path class="st3" d="M247.8773,213.04677l12.13539,7.00636c1.38165,0.79771,3.47174,0.88435,4.6683,0.19351l84.49216-48.78157
				c1.19656-0.69084,1.04651-1.89755-0.33517-2.69525l-12.13538-7.00636c-1.38165-0.79771-3.47174-0.88435-4.6683-0.19351
				l-84.49216,48.78157C246.34558,211.04236,246.49564,212.24905,247.8773,213.04677z"/>
			<path class="st3" d="M309.83273,158.79172l44.12497,25.50732c1.80893,1.0457,4.8739,0.59331,5.54361-0.81825l16.63852-35.06914
				c0.68195-1.43733-1.62894-2.77318-4.11935-2.38129l-60.76349,9.56181
				C308.81122,155.97705,308.02377,157.74602,309.83273,158.79172z"/>
		</g>
		<g>
			<path class="st3" d="M173.1474,169.90141l-12.13538-7.00636c-1.38168-0.7977-1.53174-2.00441-0.33517-2.69525l84.49217-48.78157
				c1.19656-0.69083,3.28664-0.60419,4.6683,0.19351l12.13539,7.00636c1.38165,0.79771,1.53171,2.00442,0.33514,2.69525
				l-84.49216,48.78157C176.61914,170.78577,174.52907,170.69913,173.1474,169.90141z"/>
			<path class="st3" d="M267.1199,134.13144l-44.17998-25.47556c-1.8112-1.0444-1.02763-2.81396,1.41724-3.20062l60.74153-9.60625
				c2.48956-0.39372,4.80331,0.94046,4.12451,2.37832l-16.56155,35.08181
				C271.99506,134.72121,268.93112,135.17584,267.1199,134.13144z"/>
		</g>
	</g>
</g>
</svg>
