<?xml version="1.0" encoding="utf-8"?>
<!-- Generator: Adobe Illustrator 19.0.1, SVG Export Plug-In . SVG Version: 6.00 Build 0)  -->
<svg version="1.1" width="12px" height="12px" id="Layer_1" xmlns="http://www.w3.org/2000/svg" xmlns:xlink="http://www.w3.org/1999/xlink" x="0px" y="0px"
	 viewBox="0 0 512 512" style="enable-background:new 0 0 512 512;" xml:space="preserve">
<style type="text/css">
	.st0{fill:#F48351;}
	.st1{fill:#FC9854;}
	.st2{fill:#FFAF73;}
	.st3{fill:#FAFAFA;}
</style>
<g>
	<path class="st0" d="M503.85999,343.36172L279.31464,473.00305c-12.05692,6.96106-33.11711,6.08807-47.03925-1.94986
		L11.51663,343.59805c-13.92214-8.03796-15.43419-20.19705-3.37727-27.15814l224.54535-129.6413
		c12.05692-6.96107,33.11711-6.08809,47.03926,1.94986l220.75876,127.45514
		C514.40485,324.24155,515.91693,336.40067,503.85999,343.36172z"/>
	<rect x="-0.00032" y="182.09918" class="st0" width="511.99997" height="147.80162"/>
	<path class="st1" d="M503.85995,195.56007L279.31461,325.20139c-12.05692,6.96109-33.11713,6.0881-47.03926-1.94986
		L11.51658,195.7964c-13.92214-8.03796-15.43419-20.19707-3.37727-27.15814L232.68466,38.99695
		c12.05692-6.96107,33.11713-6.08809,47.03925,1.94987l220.75876,127.45512
		C514.40485,176.4399,515.91687,188.59901,503.85995,195.56007z"/>
	<path class="st2" d="M475.54071,187.44321L276.65076,302.27237c-10.67935,6.16574-29.33333,5.39249-41.66479-1.72708
		L39.44995,187.65251c-12.33147-7.11957-13.67076-17.88945-2.9914-24.05518L235.34851,48.76817
		c10.67937-6.16573,29.33331-5.39249,41.66479,1.72709l195.53601,112.89276
		C484.88077,170.5076,486.22006,181.27747,475.54071,187.44321z"/>
	<g>
		<g>
			<path class="st3" d="M259.41266,158.58733l12.13538,7.00636c1.38168,0.7977,1.53174,2.00441,0.33517,2.69525l-84.49217,48.78157
				c-1.19656,0.69084-3.28664,0.6042-4.6683-0.19351l-12.13538-7.00636c-1.38168-0.79771-1.53174-2.00441-0.33517-2.69525
				l84.49216-48.78157C255.9409,157.70297,258.03098,157.78961,259.41266,158.58733z"/>
			<path class="st3" d="M165.44014,194.3573l44.17999,25.47556c1.8112,1.0444,1.02763,2.81396-1.41725,3.20062l-60.74153,9.60625
				c-2.48955,0.39372-4.80328-0.94046-4.1245-2.37831l16.56154-35.08182C160.565,193.76753,163.62894,193.3129,165.44014,194.3573z"
				/>
		</g>
		<g>
			<path class="st3" d="M247.87735,215.40067l12.13538,7.00636c1.38168,0.7977,3.47174,0.88434,4.66833,0.1935l84.49216-48.78157
				c1.19656-0.69083,1.04651-1.89754-0.33517-2.69525l-12.13538-7.00636c-1.38168-0.7977-3.47174-0.88434-4.6683-0.19351
				l-84.49217,48.78159C246.34563,213.39624,246.49568,214.60295,247.87735,215.40067z"/>
			<path class="st3" d="M309.83276,161.1456l44.12497,25.50732c1.80896,1.0457,4.87393,0.59331,5.54364-0.81824l16.63852-35.06914
				c0.68195-1.43735-1.62894-2.77319-4.11938-2.38129l-60.76349,9.56181C308.81128,158.33095,308.02383,160.0999,309.83276,161.1456
				z"/>
		</g>
		<g>
			<path class="st3" d="M173.14745,172.25531l-12.13538-7.00636c-1.38167-0.79771-1.53174-2.00441-0.33517-2.69525
				l84.49217-48.78158c1.19656-0.69083,3.28664-0.60419,4.6683,0.19351l12.13538,7.00636
				c1.38168,0.79771,1.53174,2.00442,0.33517,2.69525l-84.49217,48.78158
				C176.61919,173.13965,174.52911,173.05302,173.14745,172.25531z"/>
			<path class="st3" d="M267.11996,136.48534l-44.17999-25.47556c-1.8112-1.0444-1.02763-2.81396,1.41724-3.20061l60.74155-9.60625
				c2.48953-0.39372,4.80328,0.94046,4.12451,2.37832l-16.56155,35.08182
				C271.99509,137.0751,268.93115,137.52972,267.11996,136.48534z"/>
		</g>
	</g>
</g>
</svg>
