<?xml version="1.0" encoding="utf-8"?>
<!-- Generator: Adobe Illustrator 19.0.1, SVG Export Plug-In . SVG Version: 6.00 Build 0)  -->
<svg version="1.1" width="12px" height="12px" id="Layer_1" xmlns="http://www.w3.org/2000/svg" xmlns:xlink="http://www.w3.org/1999/xlink" x="0px" y="0px"
	 viewBox="0 0 512 512" style="enable-background:new 0 0 512 512;" xml:space="preserve">
<style type="text/css">
	.st0{fill:#ADADAD;}
	.st1{fill:#BFBFBF;}
	.st2{fill:#CCCCCC;}
	.st3{fill:#FAFAFA;}
</style>
<g>
	<path class="st0" d="M503.86002,343.36172L279.3147,473.00305c-12.05695,6.96106-33.11713,6.08807-47.03928-1.94986
		L11.51666,343.59805C-2.40548,335.56009-3.91753,323.401,8.1394,316.43991l224.54535-129.6413
		c12.05693-6.96107,33.11711-6.08809,47.03926,1.94986l220.75876,127.45514
		C514.40491,324.24155,515.91693,336.40067,503.86002,343.36172z"/>
	<rect x="-0.00029" y="182.09918" class="st0" width="511.99997" height="147.80162"/>
	<path class="st1" d="M503.85999,195.56007L279.31464,325.20139c-12.05692,6.96109-33.11711,6.0881-47.03926-1.94986
		L11.51662,195.7964c-13.92214-8.03796-15.43419-20.19707-3.37727-27.15814L232.68469,38.99695
		c12.05693-6.96107,33.11713-6.08809,47.03925,1.94987l220.75879,127.45512
		C514.40485,176.4399,515.91693,188.59901,503.85999,195.56007z"/>
	<path class="st2" d="M475.54074,187.44321L276.65079,302.27237c-10.67935,6.16574-29.33333,5.39249-41.66479-1.72708
		L39.44999,187.65251c-12.33147-7.11957-13.67076-17.88945-2.9914-24.05518L235.34854,48.76817
		c10.67937-6.16573,29.33331-5.39249,41.66479,1.72709l195.53601,112.89276
		C484.8808,170.5076,486.22009,181.27747,475.54074,187.44321z"/>
	<g>
		<path class="st3" d="M195.49869,124.77378l-40.67957,23.52062c-1.66771,0.96425-4.79474,0.37331-5.65588-1.06885
			l-21.39455-35.82932c-0.87688-1.46849,1.25355-2.70029,3.79772-2.19581l62.07413,12.3087
			C196.13904,122.00456,197.16638,123.80953,195.49869,124.77378z"/>
		<path class="st3" d="M220.56764,160.80307c-9.4834,0-19.40234-2.32422-27.2998-6.88379l-51.63574-29.81249
			c-2.87012-1.65723-3.85254-5.32617-2.19629-8.19629c1.65723-2.86816,5.3252-3.85449,8.19629-2.19629l51.63574,29.81249
			c10.87305,6.27734,27.83301,7.09473,37.03516,1.78418l24.74608-14.28711c2.87012-1.6543,6.54004-0.67188,8.19629,2.19629
			c1.65625,2.87012,0.67383,6.53906-2.19629,8.19629l-24.74608,14.28711C236.3821,159.12143,228.6321,160.80307,220.56764,160.80307
			z"/>
		<path class="st3" d="M170.98079,204.33658l47.03265,27.12466c1.92816,1.112,1.34537,2.8508-1.05411,3.14499l-59.61327,7.30864
			c-2.4433,0.29955-4.90645-1.121-4.39082-2.53227l12.5806-34.4333C166.04222,203.56334,169.05263,203.22458,170.98079,204.33658z"
			/>
		<path class="st3" d="M168.06862,239.16342c-2.07422,0-4.09082-1.07617-5.20215-3.00098
			c-1.65625-2.87012-0.67383-6.53906,2.19629-8.19629l44.71777-25.81738c1.66113-0.95898,4.44727-2.96094,4.44727-5.5957
			c0-2.78027-2.8877-6.1748-7.53711-8.8584l-28.57422-16.49707c-2.87012-1.65723-3.85254-5.32617-2.19629-8.19629
			c1.65723-2.86816,5.3252-3.85449,8.19629-2.19629l28.57422,16.49707c8.60254,4.9668,13.53711,11.9834,13.53711,19.25098
			c0,6.41992-3.70996,12.09863-10.44727,15.98828l-44.71777,25.81738C170.11745,238.90366,169.0862,239.16342,168.06862,239.16342z"
			/>
		<path class="st3" d="M316.50085,225.72095l40.67957-23.52061c1.66769-0.96425,4.79474-0.37331,5.65588,1.06883l21.39456,35.82933
			c0.87686,1.46849-1.25357,2.70029-3.79773,2.1958l-62.07413-12.3087C315.8605,228.49017,314.83316,226.6852,316.50085,225.72095z"
			/>
		<path class="st3" d="M367.36157,237.5853c-1.01758,0-2.04883-0.25879-2.99414-0.80469l-51.63574-29.8125
			c-10.87598-6.27832-27.83594-7.0957-37.03516-1.78418l-24.74608,14.28711c-2.86621,1.65723-6.53906,0.67285-8.19629-2.19629
			c-1.65625-2.87012-0.67383-6.53906,2.19629-8.19629l24.74608-14.28711c12.88281-7.4375,34.42188-6.65234,49.03516,1.78418
			l51.63574,29.8125c2.87012,1.65723,3.85254,5.32617,2.19629,8.19629C371.45239,236.50912,369.43579,237.5853,367.36157,237.5853z"
			/>
		<path class="st3" d="M344.23334,148.01408l-47.03265-27.12465c-1.92816-1.11201-1.34537-2.85081,1.05411-3.14499l59.61325-7.30864
			c2.4433-0.29955,4.90646,1.12099,4.39084,2.53227l-12.5806,34.4333C349.17191,148.78734,346.1615,149.1261,344.23334,148.01408z"
			/>
		<path class="st3" d="M334.09204,192.35092c-1.01758,0-2.04883-0.25879-2.99414-0.80469l-28.5752-16.49805
			c-8.60254-4.9668-13.53613-11.9834-13.53613-19.25195c0-6.41992,3.70996-12.09668,10.44629-15.98633l44.71875-25.81835
			c2.87012-1.65527,6.54102-0.67285,8.19629,2.19629c1.65625,2.87012,0.67383,6.53906-2.19629,8.19629l-44.71875,25.81835
			c-1.66016,0.95898-4.44629,2.95996-4.44629,5.59473c0,2.78027,2.8877,6.1748,7.53613,8.8584l28.5752,16.49805
			c2.87012,1.65723,3.85254,5.32617,2.19629,8.19629C338.18286,191.27475,336.16626,192.35092,334.09204,192.35092z"/>
	</g>
</g>
</svg>
