<?xml version="1.0" encoding="utf-8"?>
<!-- Generator: Adobe Illustrator 19.0.1, SVG Export Plug-In . SVG Version: 6.00 Build 0)  -->
<svg version="1.1" width="12px" height="12px" id="Layer_1" xmlns="http://www.w3.org/2000/svg" xmlns:xlink="http://www.w3.org/1999/xlink" x="0px" y="0px"
	 viewBox="0 0 512 512" style="enable-background:new 0 0 512 512;" xml:space="preserve">
<style type="text/css">
	.st0{fill:#4BB7E2;}
	.st1{fill:#60C7E2;}
	.st2{fill:#7AD5EA;}
	.st3{fill:#FAFAFA;}
</style>
<g>
	<path class="st0" d="M503.86017,343.36172L279.31482,473.00305c-12.05692,6.96106-33.11711,6.08807-47.03925-1.94986
		L11.51681,343.59805c-13.92214-8.03796-15.43419-20.19705-3.37727-27.15814l224.54533-129.6413
		c12.05693-6.96107,33.11713-6.08809,47.03928,1.94986l220.75876,127.45514
		C514.40503,324.24155,515.91711,336.40067,503.86017,343.36172z"/>
	<rect x="-0.00015" y="182.09918" class="st0" width="511.99997" height="147.80161"/>
	<path class="st1" d="M503.86014,195.56007L279.31479,325.20139c-12.05695,6.96109-33.11713,6.0881-47.03926-1.94986
		L11.51676,195.7964c-13.92214-8.03796-15.43419-20.19707-3.37727-27.15814L232.68483,38.99695
		c12.05693-6.96107,33.11711-6.08809,47.03926,1.94987l220.75876,127.45512
		C514.40497,176.4399,515.91705,188.59901,503.86014,195.56007z"/>
	<path class="st2" d="M475.54089,187.44321L276.65094,302.27237c-10.67938,6.16574-29.33333,5.39249-41.66479-1.72708
		L39.45013,187.65251c-12.33147-7.11957-13.67076-17.88945-2.9914-24.05518L235.34868,48.76817
		c10.67937-6.16573,29.33333-5.39249,41.66481,1.72709L472.5495,163.38802
		C484.88095,170.5076,486.22025,181.27747,475.54089,187.44321z"/>
	<g>
		<path class="st3" d="M195.49869,124.77369l-40.67957,23.52061c-1.66771,0.96426-4.79474,0.37332-5.65588-1.06883
			l-21.39455-35.82932c-0.87688-1.4685,1.25355-2.70029,3.79772-2.19581l62.07413,12.3087
			C196.13904,122.00447,197.16638,123.80943,195.49869,124.77369z"/>
		<path class="st3" d="M220.56694,160.80299c-9.4834,0-19.40137-2.32422-27.29883-6.88379l-51.63672-29.81249
			c-2.87012-1.65723-3.85254-5.32617-2.19629-8.19629c1.6582-2.86816,5.32422-3.85352,8.19629-2.19629l51.63672,29.81249
			c10.87305,6.27832,27.83203,7.09668,37.03418,1.78418l24.74611-14.28711c2.86914-1.65527,6.54102-0.67285,8.19629,2.19629
			c1.65625,2.87012,0.67383,6.53906-2.19629,8.19629l-24.74611,14.28711
			C236.38139,159.12135,228.63139,160.80299,220.56694,160.80299z"/>
		<path class="st3" d="M170.98079,204.33649l47.03265,27.12466c1.92816,1.112,1.34537,2.8508-1.05411,3.14497l-59.61327,7.30865
			c-2.4433,0.29955-4.90645-1.121-4.39082-2.53227l12.5806-34.4333C166.04222,203.56325,169.05263,203.22449,170.98079,204.33649z"
			/>
		<path class="st3" d="M168.06889,239.16335c-2.07422,0-4.09082-1.07617-5.20215-3.00098
			c-1.65625-2.87012-0.67383-6.53906,2.19629-8.19629l44.71777-25.81738c1.66016-0.95898,4.44727-2.96094,4.44629-5.5957
			c0-2.78027-2.8877-6.1748-7.53613-8.8584l-28.57422-16.49707c-2.87012-1.65723-3.85254-5.32617-2.19629-8.19629
			c1.65723-2.86914,5.32617-3.85449,8.19629-2.19629l28.57422,16.49707c8.60254,4.9668,13.53613,11.9834,13.53613,19.25098
			c0.00098,6.41992-3.70898,12.09766-10.44629,15.98828l-44.71777,25.81738
			C170.11772,238.90358,169.08647,239.16335,168.06889,239.16335z"/>
		<path class="st3" d="M316.50085,225.72086l40.67957-23.52061c1.66769-0.96425,4.79474-0.37331,5.65588,1.06883l21.39456,35.82932
			c0.87686,1.46851-1.25357,2.7003-3.79773,2.19582l-62.07413-12.3087C315.8605,228.49007,314.83316,226.6851,316.50085,225.72086z"
			/>
		<path class="st3" d="M367.36188,237.58424c-1.01758,0-2.04883-0.25879-2.99414-0.80469l-51.63574-29.81152
			c-10.87598-6.2793-27.83594-7.0957-37.03516-1.78418l-24.74611,14.28711c-2.86914,1.65625-6.53809,0.67383-8.19629-2.19629
			c-1.65625-2.87012-0.67383-6.53906,2.19629-8.19629l24.74611-14.28711c12.88086-7.4375,34.41992-6.65332,49.03516,1.78418
			l51.63574,29.81152c2.87012,1.65723,3.85254,5.32617,2.19629,8.19629C371.4527,236.50807,369.4361,237.58424,367.36188,237.58424z
			"/>
		<path class="st3" d="M344.23334,148.01399l-47.03265-27.12465c-1.92816-1.11201-1.34537-2.85081,1.05411-3.14499l59.61325-7.30865
			c2.4433-0.29955,4.90646,1.12099,4.39084,2.53227l-12.5806,34.4333C349.17191,148.78725,346.1615,149.12599,344.23334,148.01399z"
			/>
		<path class="st3" d="M334.09137,192.35085c-1.01758,0-2.04883-0.25977-2.99414-0.80469l-28.57422-16.49805
			c-8.60254-4.9668-13.53613-11.9834-13.53613-19.25098c0-6.41992,3.70996-12.09766,10.44629-15.9873l44.71777-25.81835
			c2.87109-1.6543,6.54102-0.67285,8.19629,2.19629c1.65625,2.87012,0.67383,6.53906-2.19629,8.19629l-44.71777,25.81835
			c-1.66113,0.95898-4.44629,2.96094-4.44629,5.59473c0,2.78027,2.8877,6.1748,7.53613,8.8584l28.57422,16.49805
			c2.87012,1.65723,3.85254,5.32715,2.19629,8.19629C338.18219,191.27467,336.16559,192.35085,334.09137,192.35085z"/>
	</g>
</g>
</svg>
