<?xml version="1.0" encoding="utf-8"?>
<!-- Generator: Adobe Illustrator 19.0.1, SVG Export Plug-In . SVG Version: 6.00 Build 0)  -->
<svg version="1.1" width="12px" height="12px" id="Layer_1" xmlns="http://www.w3.org/2000/svg" xmlns:xlink="http://www.w3.org/1999/xlink" x="0px" y="0px"
	 viewBox="0 0 512 512" style="enable-background:new 0 0 512 512;" xml:space="preserve">
<style type="text/css">
	.st0{fill:#F48351;}
	.st1{fill:#FC9854;}
	.st2{fill:#FFAF73;}
	.st3{fill:#FAFAFA;}
</style>
<g>
	<path class="st0" d="M503.86014,343.36172L279.31479,473.00305c-12.05692,6.96106-33.11711,6.08807-47.03926-1.94986
		L11.51677,343.59805C-2.40537,335.56009-3.91742,323.401,8.1395,316.43991l224.54535-129.6413
		c12.05693-6.96107,33.11713-6.08809,47.03925,1.94986l220.75876,127.45514
		C514.40503,324.24155,515.91705,336.40067,503.86014,343.36172z"/>
	<rect x="-0.00018" y="182.09918" class="st0" width="511.99997" height="147.80162"/>
	<path class="st1" d="M503.86008,195.56007L279.31476,325.20139c-12.05695,6.96109-33.11713,6.0881-47.03928-1.94986
		L11.51672,195.7964c-13.92214-8.03796-15.43419-20.19707-3.37727-27.15814L232.6848,38.99695
		c12.05693-6.96107,33.11711-6.08809,47.03926,1.94987l220.75876,127.45512
		C514.40497,176.4399,515.91699,188.59901,503.86008,195.56007z"/>
	<path class="st2" d="M475.54083,187.44321L276.65091,302.27237c-10.67938,6.16574-29.33334,5.39249-41.66481-1.72708
		L39.45009,187.65251c-12.33147-7.11957-13.67076-17.88945-2.9914-24.05518L235.34865,48.76817
		c10.67937-6.16573,29.33333-5.39249,41.66481,1.72709l195.53598,112.89276
		C484.88092,170.5076,486.22021,181.27747,475.54083,187.44321z"/>
	<g>
		<path class="st3" d="M195.49883,124.77373l-40.67957,23.52061c-1.66771,0.96425-4.79474,0.37331-5.65588-1.06883
			l-21.39455-35.82932c-0.87688-1.46849,1.25355-2.70029,3.79772-2.19581l62.07413,12.3087
			C196.13918,122.00451,197.16652,123.80947,195.49883,124.77373z"/>
		<path class="st3" d="M220.5675,160.80307c-9.4834,0-19.40137-2.32422-27.2998-6.88379l-51.63574-29.81249
			c-2.87012-1.65723-3.85254-5.32617-2.19629-8.19629c1.65723-2.86816,5.3252-3.85449,8.19629-2.19629l51.63574,29.81249
			c10.875,6.27734,27.83398,7.09473,37.03516,1.78418l24.74609-14.28809c2.87012-1.6543,6.54004-0.67285,8.19629,2.19629
			s0.67383,6.53906-2.19629,8.19629l-24.74609,14.28809C236.38293,159.12143,228.63196,160.80307,220.5675,160.80307z"/>
		<path class="st3" d="M170.98091,204.33653l47.03267,27.12465c1.92816,1.11201,1.34537,2.85081-1.05411,3.14499l-59.61327,7.30864
			c-2.4433,0.29956-4.90645-1.12099-4.39082-2.53227l12.5806-34.43329C166.04236,203.56328,169.05276,203.22453,170.98091,204.33653
			z"/>
		<path class="st3" d="M168.06848,239.16342c-2.07422,0-4.09082-1.07617-5.20215-3.00098
			c-1.65625-2.87012-0.67383-6.53906,2.19629-8.19629l44.71875-25.81738c1.66016-0.95898,4.44629-2.96094,4.44629-5.5957
			c0-2.78027-2.8877-6.1748-7.53613-8.8584l-28.5752-16.49707c-2.87012-1.65723-3.85254-5.32617-2.19629-8.19629
			c1.65723-2.86816,5.3252-3.85449,8.19629-2.19629l28.5752,16.49707c8.60254,4.9668,13.53613,11.9834,13.53613,19.25098
			c0,6.41992-3.70996,12.09863-10.44629,15.98828l-44.71875,25.81738C170.11731,238.90366,169.08606,239.16342,168.06848,239.16342z
			"/>
		<path class="st3" d="M316.50098,225.7209l40.67957-23.52061c1.66772-0.96426,4.79474-0.37332,5.65588,1.06883l21.39456,35.82932
			c0.87686,1.46849-1.25357,2.70029-3.79773,2.19582l-62.07413-12.3087C315.86063,228.49011,314.83328,226.68515,316.50098,225.7209
			z"/>
		<path class="st3" d="M367.36243,237.58432c-1.01758,0-2.04883-0.25879-2.99414-0.80469l-51.63672-29.81152
			c-10.875-6.27832-27.83398-7.09766-37.03418-1.78418l-24.74609,14.28711c-2.86719,1.65723-6.53906,0.67285-8.19629-2.19629
			c-1.65625-2.87012-0.67383-6.53906,2.19629-8.19629l24.74609-14.28711c12.88281-7.4375,34.41992-6.65234,49.03418,1.78418
			l51.63672,29.81152c2.87012,1.65723,3.85254,5.32617,2.19629,8.19629
			C371.45325,236.50815,369.43665,237.58432,367.36243,237.58432z"/>
		<path class="st3" d="M344.23349,148.01404l-47.03268-27.12466c-1.92816-1.11201-1.34537-2.85081,1.05411-3.14499l59.61328-7.30864
			c2.4433-0.29955,4.90643,1.12099,4.39081,2.53227l-12.5806,34.4333C349.17203,148.78728,346.16162,149.12604,344.23349,148.01404z
			"/>
		<path class="st3" d="M334.09192,192.35092c-1.01758,0-2.04883-0.25977-2.99414-0.80469l-28.57422-16.49805
			c-8.60254-4.9668-13.53613-11.9834-13.53613-19.25098c0-6.41992,3.70996-12.09766,10.44629-15.9873l44.71777-25.81835
			c2.87012-1.65527,6.54102-0.67285,8.19629,2.19629c1.65625,2.87012,0.67383,6.53906-2.19629,8.19629l-44.71777,25.81835
			c-1.66113,0.95898-4.44629,2.96094-4.44629,5.59473c0,2.78027,2.8877,6.1748,7.53613,8.8584l28.57422,16.49805
			c2.87012,1.65723,3.85254,5.32715,2.19629,8.19629C338.18274,191.27475,336.16614,192.35092,334.09192,192.35092z"/>
	</g>
</g>
</svg>
