<?xml version="1.0" encoding="utf-8"?>
<!-- Generator: Adobe Illustrator 19.0.1, SVG Export Plug-In . SVG Version: 6.00 Build 0)  -->
<svg version="1.1" width="12px" height="12px" id="Layer_1" xmlns="http://www.w3.org/2000/svg" xmlns:xlink="http://www.w3.org/1999/xlink" x="0px" y="0px"
	 viewBox="0 0 512 512" style="enable-background:new 0 0 512 512;" xml:space="preserve">
<style type="text/css">
	.st0{fill:#686868;}
	.st1{fill:#777777;}
	.st2{fill:#7F7F7F;}
	.st3{fill:#FAFAFA;}
</style>
<g>
	<path class="st0" d="M503.86008,343.36172L279.31473,473.00305c-12.05692,6.96106-33.11711,6.08807-47.03925-1.94986
		L11.51672,343.59805c-13.92214-8.03796-15.43419-20.19705-3.37727-27.15814l224.54535-129.6413
		c12.05692-6.96107,33.11711-6.08809,47.03926,1.94986l220.75876,127.45514
		C514.40497,324.24155,515.91699,336.40067,503.86008,343.36172z"/>
	<rect x="-0.00023" y="182.09918" class="st0" width="511.99997" height="147.80162"/>
	<path class="st1" d="M503.86005,195.56007L279.3147,325.20139c-12.05692,6.96109-33.11713,6.0881-47.03926-1.94986
		L11.51667,195.7964c-13.92214-8.03796-15.43419-20.19707-3.37727-27.15814L232.68475,38.99695
		c12.05692-6.96107,33.11713-6.08809,47.03925,1.94987l220.75876,127.45512
		C514.40491,176.4399,515.91699,188.59901,503.86005,195.56007z"/>
	<path class="st2" d="M475.5408,187.44321L276.65085,302.27237c-10.67935,6.16574-29.33333,5.39249-41.66479-1.72708
		L39.45004,187.65251c-12.33147-7.11957-13.67076-17.88945-2.9914-24.05518L235.3486,48.76817
		c10.67935-6.16573,29.33331-5.39249,41.66479,1.72709l195.53601,112.89276
		C484.88086,170.5076,486.22015,181.27747,475.5408,187.44321z"/>
	<g>
		<path class="st3" d="M195.4987,124.77367l-40.67957,23.52062c-1.66771,0.96425-4.79474,0.37331-5.65588-1.06885
			l-21.39455-35.82932c-0.87688-1.46849,1.25355-2.70029,3.79772-2.19581l62.07413,12.3087
			C196.13905,122.00446,197.1664,123.80942,195.4987,124.77367z"/>
		<path class="st3" d="M220.56744,160.80258c-9.4834,0-19.40137-2.32422-27.2998-6.88379l-51.63574-29.81152
			c-2.87012-1.65723-3.85254-5.32617-2.19629-8.19629c1.6582-2.86816,5.32422-3.85449,8.19629-2.19629l51.63574,29.81152
			c10.875,6.27832,27.83301,7.09375,37.03516,1.78418l24.74609-14.28711c2.87012-1.65527,6.54004-0.67285,8.19629,2.19629
			c1.65625,2.87012,0.67383,6.53906-2.19629,8.19629l-24.74609,14.28711
			C236.38287,159.12094,228.6319,160.80258,220.56744,160.80258z"/>
		<path class="st3" d="M170.98079,204.33647l47.03267,27.12466c1.92816,1.112,1.34537,2.8508-1.05411,3.14499l-59.61327,7.30864
			c-2.4433,0.29955-4.90645-1.121-4.39082-2.53227l12.5806-34.4333C166.04224,203.56323,169.05264,203.22447,170.98079,204.33647z"
			/>
		<path class="st3" d="M168.06842,239.16391c-2.07422,0-4.09082-1.07617-5.20215-3.00098
			c-1.65625-2.87012-0.67383-6.53906,2.19629-8.19629l44.71777-25.81836c1.66113-0.95898,4.44727-2.95996,4.44727-5.59473
			c0-2.78027-2.8877-6.1748-7.53613-8.8584l-28.5752-16.49805c-2.87012-1.65723-3.85254-5.32617-2.19629-8.19629
			c1.6582-2.86914,5.3252-3.85352,8.19629-2.19629l28.5752,16.49805c8.60254,4.9668,13.53613,11.9834,13.53613,19.25195
			c0,6.41992-3.71094,12.09766-10.44727,15.98633l-44.71777,25.81836C170.11823,238.90414,169.086,239.16391,168.06842,239.16391z"
			/>
		<path class="st3" d="M316.50085,225.72084l40.67957-23.52061c1.66772-0.96425,4.79474-0.37331,5.65588,1.06883l21.39456,35.82932
			c0.87686,1.46851-1.25357,2.7003-3.79773,2.19582l-62.07413-12.3087C315.8605,228.49005,314.83316,226.68509,316.50085,225.72084z
			"/>
		<path class="st3" d="M367.36139,237.58481c-1.01758,0-2.04883-0.25879-2.99414-0.80469l-51.63574-29.8125
			c-10.87402-6.27832-27.83398-7.09473-37.03418-1.7832l-24.74609,14.28711c-2.86816,1.65625-6.53906,0.67285-8.19629-2.19629
			c-1.65625-2.87012-0.67383-6.53906,2.19629-8.19629l24.74609-14.28711c12.88184-7.43555,34.4209-6.6543,49.03418,1.7832
			l51.63574,29.8125c2.87012,1.65723,3.85254,5.32617,2.19629,8.19629C371.45221,236.50864,369.43561,237.58481,367.36139,237.58481
			z"/>
		<path class="st3" d="M344.23337,148.01398l-47.03268-27.12465c-1.92816-1.11201-1.34537-2.85081,1.05411-3.14499l59.61328-7.30865
			c2.4433-0.29955,4.90643,1.12099,4.39081,2.53228l-12.5806,34.43329C349.17191,148.78723,346.1615,149.12599,344.23337,148.01398z
			"/>
		<path class="st3" d="M334.09186,192.35043c-1.01758,0-2.04883-0.25879-2.99414-0.80469l-28.57422-16.49707
			c-8.60352-4.96777-13.53711-11.98535-13.53711-19.25293c0-6.41992,3.71094-12.09766,10.44727-15.98633l44.71777-25.81738
			c2.87207-1.65527,6.54102-0.67188,8.19629,2.19629c1.65625,2.87012,0.67383,6.53906-2.19629,8.19629L305.43365,150.202
			c-1.66113,0.95898-4.44727,2.95996-4.44727,5.59473c0,2.78027,2.8877,6.1748,7.53711,8.85938l28.57422,16.49707
			c2.87012,1.65723,3.85254,5.32617,2.19629,8.19629C338.18268,191.27426,336.16608,192.35043,334.09186,192.35043z"/>
	</g>
</g>
</svg>
