<?xml version="1.0" encoding="utf-8"?>
<!-- Generator: Adobe Illustrator 19.0.1, SVG Export Plug-In . SVG Version: 6.00 Build 0)  -->
<svg version="1.1" width="12px" height="12px" id="Layer_1" xmlns="http://www.w3.org/2000/svg" xmlns:xlink="http://www.w3.org/1999/xlink" x="0px" y="0px"
	 viewBox="0 0 512 512" style="enable-background:new 0 0 512 512;" xml:space="preserve">
<style type="text/css">
	.st0{fill:#8C6D5E;}
	.st1{fill:#9E7A6A;}
	.st2{fill:#AF8F79;}
	.st3{fill:#FAFAFA;}
</style>
<g>
	<path class="st0" d="M503.86038,343.36172L279.31503,473.00305c-12.05692,6.96106-33.11711,6.08807-47.03926-1.94986
		L11.51701,343.59805c-13.92214-8.03796-15.43419-20.19705-3.37727-27.15814l224.54535-129.6413
		c12.05693-6.96107,33.11713-6.08809,47.03925,1.94986l220.75876,127.45514
		C514.40527,324.24155,515.9173,336.40067,503.86038,343.36172z"/>
	<rect x="0.00006" y="182.09918" class="st0" width="511.99997" height="147.80162"/>
	<path class="st1" d="M503.86032,195.56007L279.315,325.20139c-12.05695,6.96109-33.11713,6.0881-47.03928-1.94986
		L11.51697,195.7964c-13.92214-8.03796-15.43419-20.19707-3.37727-27.15814L232.68504,38.99695
		c12.05693-6.96107,33.11711-6.08809,47.03926,1.94987l220.75876,127.45512
		C514.40521,176.4399,515.91724,188.59901,503.86032,195.56007z"/>
	<path class="st2" d="M475.54108,187.44321L276.65115,302.27237c-10.67938,6.16574-29.33334,5.39249-41.66481-1.72708
		L39.45034,187.65251c-12.33147-7.11957-13.67076-17.88945-2.9914-24.05518L235.34889,48.76817
		c10.67937-6.16573,29.33333-5.39249,41.66481,1.72709l195.53598,112.89276
		C484.88116,170.5076,486.22046,181.27747,475.54108,187.44321z"/>
	<g>
		<path class="st3" d="M195.49892,124.77374l-40.67957,23.52062c-1.66769,0.96425-4.79472,0.37331-5.65587-1.06885
			l-21.39456-35.82932c-0.87687-1.46849,1.25356-2.70029,3.79771-2.19581l62.07413,12.3087
			C196.13928,122.00452,197.16663,123.80949,195.49892,124.77374z"/>
		<path class="st3" d="M220.56696,160.80339c-9.4834,0-19.40039-2.32422-27.29883-6.88379l-51.63574-29.81249
			c-2.87012-1.65723-3.85254-5.32617-2.19629-8.19629c1.65625-2.86914,5.3252-3.85449,8.19629-2.19629l51.63574,29.81249
			c10.875,6.28027,27.83594,7.0957,37.03516,1.7832l24.74609-14.28711c2.87109-1.6543,6.54102-0.67285,8.19629,2.19629
			c1.65625,2.87012,0.67383,6.53906-2.19629,8.19629l-24.74609,14.28711
			C236.38336,159.12077,228.63141,160.80339,220.56696,160.80339z"/>
		<path class="st3" d="M170.98102,204.33655l47.03267,27.12465c1.92816,1.112,1.34535,2.85081-1.05411,3.14499l-59.61327,7.30864
			c-2.4433,0.29955-4.90645-1.12099-4.39082-2.53227l12.5806-34.4333C166.04247,203.56329,169.05287,203.22453,170.98102,204.33655z
			"/>
		<path class="st3" d="M168.06891,239.16374c-2.07422,0-4.09082-1.07617-5.20215-3.00098
			c-1.65625-2.87012-0.67383-6.53906,2.19629-8.19629l44.71777-25.81836c1.66113-0.95898,4.44629-2.96094,4.44629-5.59473
			c0-2.78027-2.8877-6.1748-7.53613-8.8584l-28.57422-16.49805c-2.87012-1.65723-3.85254-5.32715-2.19629-8.19629
			s5.3252-3.85156,8.19629-2.19629l28.57422,16.49805c8.60254,4.9668,13.53613,11.9834,13.53613,19.25098
			c0,6.41992-3.70996,12.09766-10.44629,15.9873l-44.71777,25.81836C170.11871,238.90398,169.08649,239.16374,168.06891,239.16374z"
			/>
		<path class="st3" d="M316.5011,225.7209l40.67957-23.52061c1.66769-0.96425,4.79471-0.37331,5.65585,1.06885l21.39456,35.82932
			c0.87689,1.46849-1.25354,2.70029-3.7977,2.1958l-62.07413-12.3087C315.86072,228.49013,314.83337,226.68517,316.5011,225.7209z"
			/>
		<path class="st3" d="M367.36188,237.58464c-1.01758,0-2.04883-0.25879-2.99414-0.80469l-51.63574-29.81152
			c-10.87402-6.27832-27.83496-7.09375-37.03516-1.78418l-24.74609,14.28711c-2.86816,1.65625-6.53906,0.67383-8.19629-2.19629
			c-1.65625-2.87012-0.67383-6.53906,2.19629-8.19629l24.74609-14.28711c12.88281-7.43848,34.42285-6.65332,49.03516,1.78418
			l51.63574,29.81152c2.87012,1.65723,3.85254,5.32617,2.19629,8.19629C371.4527,236.50847,369.4361,237.58464,367.36188,237.58464z
			"/>
		<path class="st3" d="M344.23358,148.01404l-47.03268-27.12465c-1.92813-1.112-1.34534-2.85081,1.05414-3.14498l59.61325-7.30865
			c2.4433-0.29955,4.90646,1.12099,4.39084,2.53227l-12.58063,34.4333C349.17215,148.78729,346.16174,149.12605,344.23358,148.01404
			z"/>
		<path class="st3" d="M334.09137,192.35027c-1.01758,0-2.04883-0.25879-2.99414-0.80469l-28.57422-16.49707
			c-8.60254-4.9668-13.53613-11.9834-13.53613-19.25098c0-6.41992,3.70996-12.09863,10.44629-15.98828l44.71875-25.81738
			c2.87305-1.6543,6.54004-0.67285,8.19629,2.19629c1.65625,2.87012,0.67383,6.53906-2.19629,8.19629l-44.71875,25.81738
			c-1.66016,0.95898-4.44629,2.96094-4.44629,5.5957c0,2.78027,2.8877,6.1748,7.53613,8.8584l28.57422,16.49707
			c2.87012,1.65723,3.85254,5.32617,2.19629,8.19629C338.18219,191.27409,336.16559,192.35027,334.09137,192.35027z"/>
	</g>
</g>
</svg>
