<?xml version="1.0" encoding="utf-8"?>
<!-- Generator: Adobe Illustrator 19.0.1, SVG Export Plug-In . SVG Version: 6.00 Build 0)  -->
<svg version="1.1" width="12px" height="12px" id="Layer_1" xmlns="http://www.w3.org/2000/svg" xmlns:xlink="http://www.w3.org/1999/xlink" x="0px" y="0px"
	 viewBox="0 0 512 512" style="enable-background:new 0 0 512 512;" xml:space="preserve">
<style type="text/css">
	.st0{fill:#686868;}
	.st1{fill:#777777;}
	.st2{fill:#7F7F7F;}
	.st3{fill:#FAFAFA;}
</style>
<g>
	<path class="st0" d="M503.86008,343.36172L279.31473,473.00305c-12.05692,6.96106-33.11711,6.08807-47.03925-1.94986
		L11.51672,343.59805c-13.92214-8.03796-15.43419-20.19705-3.37727-27.15814l224.54535-129.6413
		c12.05692-6.96107,33.11711-6.08809,47.03926,1.94986l220.75876,127.45514
		C514.40497,324.24155,515.91699,336.40067,503.86008,343.36172z"/>
	<rect x="-0.00023" y="182.09918" class="st0" width="511.99997" height="147.80162"/>
	<path class="st1" d="M503.86005,195.56007L279.3147,325.20139c-12.05692,6.96109-33.11713,6.0881-47.03926-1.94986
		L11.51667,195.7964c-13.92214-8.03796-15.43419-20.19707-3.37727-27.15814L232.68475,38.99695
		c12.05692-6.96107,33.11713-6.08809,47.03925,1.94987l220.75876,127.45512
		C514.40491,176.4399,515.91699,188.59901,503.86005,195.56007z"/>
	<path class="st2" d="M475.5408,187.44321L276.65085,302.27237c-10.67935,6.16574-29.33333,5.39249-41.66479-1.72708
		L39.45004,187.65251c-12.33147-7.11957-13.67076-17.88945-2.9914-24.05518L235.3486,48.76817
		c10.67935-6.16573,29.33331-5.39249,41.66479,1.72709l195.53601,112.89276
		C484.88086,170.5076,486.22015,181.27747,475.5408,187.44321z"/>
	<g>
		<g>
			<path class="st3" d="M238.09702,156.3636l-5.61118,3.23961c-1.08292,0.62523-2.97449,0.54681-4.22493-0.17513l-53.26108-30.75031
				c-1.25044-0.72194-1.38625-1.81404-0.30333-2.43926l5.61118-3.23961c1.08292-0.62523,2.97449-0.54682,4.22493,0.17513
				l53.26108,30.7503C239.04413,154.64627,239.17993,155.73837,238.09702,156.3636z"/>
			<path class="st3" d="M206.6067,120.09096l-36.91998,21.34685c-1.51358,0.87514-4.35161,0.33882-5.13316-0.97005l-19.4173-32.518
				c-0.79584-1.33278,1.13771-2.45073,3.44673-1.99287l56.33728,11.17113
				C207.18788,117.57767,208.12027,119.21582,206.6067,120.09096z"/>
		</g>
		<g>
			<path class="st3" d="M257.78745,152.01552l-8.54921-0.35439c-1.64995-0.06839-3.08351-0.89606-3.20198-1.84865l-5.04565-40.57438
				c-0.11845-0.95259,1.12306-1.66938,2.77299-1.60098l8.54919,0.35438c1.64995,0.06839,3.08351,0.89606,3.20198,1.84866
				l5.04565,40.57438C260.67889,151.36713,259.43738,152.08391,257.78745,152.01552z"/>
			<path class="st3" d="M277.19156,117.07986l-56.2899-2.31291c-2.30766-0.09483-3.94043-1.58995-2.9532-2.70425l24.5271-27.68406
				c1.00526-1.13466,3.95322-1.01353,5.25504,0.21593l31.76279,29.99698
				C280.77185,115.79893,279.49921,117.17467,277.19156,117.07986z"/>
		</g>
		<g>
			<path class="st3" d="M276.78601,160.4915l-6.47925-3.74077c-1.25043-0.72195-1.38623-1.81406-0.30331-2.43927l46.12543-26.63054
				c1.08292-0.62522,2.97449-0.54681,4.22495,0.17513l6.47922,3.74078c1.25046,0.72195,1.38626,1.81404,0.30334,2.43927
				l-46.12546,26.63054C279.92801,161.29185,278.03644,161.21346,276.78601,160.4915z"/>
			<path class="st3" d="M335.7179,147.35767l-42.68594-24.61782c-1.74997-1.00923-1.22104-2.58733,0.9567-2.85432l54.10382-6.63319
				c2.2175-0.27187,4.453,1.0174,3.98505,2.29824l-11.41791,31.251C340.20001,148.05945,337.46783,148.3669,335.7179,147.35767z"/>
		</g>
		<g>
			<path class="st3" d="M273.90265,185.68831l5.61118-3.23961c1.08292-0.62523,2.97449-0.54681,4.22491,0.17513l53.26108,30.75031
				c1.25046,0.72194,1.38626,1.81404,0.30334,2.43927l-5.61118,3.23961c-1.08292,0.62521-2.97449,0.54681-4.22495-0.17514
				l-53.26105-30.75029C272.95554,187.40564,272.81973,186.31354,273.90265,185.68831z"/>
			<path class="st3" d="M305.39297,221.96095l36.91998-21.34685c1.51355-0.87514,4.35159-0.33882,5.13315,0.97005l19.4173,32.51799
				c0.79584,1.33278-1.1377,2.45074-3.44675,1.99287l-56.33728-11.17113
				C304.8118,224.47424,303.87939,222.83609,305.39297,221.96095z"/>
		</g>
		<g>
			<path class="st3" d="M254.21223,190.03639l8.54921,0.35439c1.64993,0.06839,3.0835,0.89606,3.20197,1.84865l5.04565,40.57437
				c0.11844,0.95261-1.12305,1.66939-2.77301,1.601l-8.54919-0.35439c-1.64993-0.06839-3.0835-0.89607-3.20197-1.84866
				l-5.04565-40.57437C251.32079,190.68478,252.56229,189.968,254.21223,190.03639z"/>
			<path class="st3" d="M234.80811,224.97205l56.28989,2.31293c2.30768,0.09482,3.94043,1.58995,2.95322,2.70424l-24.5271,27.68407
				c-1.00525,1.13464-3.95322,1.01352-5.25504-0.21591l-31.7628-29.99699
				C231.2278,226.25298,232.50044,224.87723,234.80811,224.97205z"/>
		</g>
		<g>
			<path class="st3" d="M289.52612,174.81264l-0.61383-4.93588c-0.11844-0.95259,1.12305-1.66937,2.77301-1.60098l70.27686,2.91312
				c1.64996,0.06839,3.08353,0.89606,3.202,1.84865l0.6138,4.93588c0.11844,0.95259-1.12305,1.66939-2.77301,1.601
				l-70.27686-2.91312C291.07816,176.59291,289.64456,175.76523,289.52612,174.81264z"/>
			<path class="st3" d="M353.46426,191.17424l-4.07715-32.50192c-0.16714-1.33246,2.21365-2.06911,4.30618-1.33238
				l51.98727,18.30331c2.13077,0.75018,2.34427,2.45235,0.38065,3.03429l-47.91016,14.19859
				C356.22266,193.44763,353.63141,192.50668,353.46426,191.17424z"/>
		</g>
		<g>
			<path class="st3" d="M222.47356,167.23927l0.6138,4.93588c0.11845,0.95259-1.12305,1.66937-2.77299,1.60098l-70.27687-2.91312
				c-1.64993-0.06839-3.08351-0.89606-3.20197-1.84865l-0.61382-4.93588c-0.11845-0.95259,1.12305-1.66939,2.77299-1.601
				l70.27687,2.91312C220.92152,165.459,222.35509,166.28668,222.47356,167.23927z"/>
			<path class="st3" d="M158.5354,150.87767l4.07715,32.50192c0.16714,1.33246-2.21367,2.06911-4.30618,1.33238l-51.98729-18.30331
				c-2.13074-0.75018-2.34427-2.45235-0.38063-3.03429l47.91014-14.19861
				C155.77701,148.60428,158.36826,149.54521,158.5354,150.87767z"/>
		</g>
		<g>
			<path class="st3" d="M235.21367,181.56041l6.47922,3.74077c1.25046,0.72195,1.38626,1.81406,0.30334,2.43927l-46.12544,26.63054
				c-1.08292,0.62523-2.97449,0.54681-4.22493-0.17513l-6.47923-3.74078c-1.25044-0.72195-1.38626-1.81404-0.30333-2.43927
				l46.12544-26.63054C232.07166,180.76004,233.96323,180.83846,235.21367,181.56041z"/>
			<path class="st3" d="M176.28178,194.69424l42.68593,24.61781c1.74995,1.00923,1.22102,2.58734-0.95668,2.85432l-54.10385,6.63319
				c-2.21748,0.27187-4.45299-1.0174-3.98502-2.29825l11.41789-31.25099
				C171.79964,193.99246,174.53183,193.68501,176.28178,194.69424z"/>
		</g>
		<path class="st3" d="M269.33273,163.92586c7.57413,4.37292,8.39676,10.98792,1.83734,14.77499
			c-6.55939,3.78706-18.01688,3.31213-25.59102-1.06081c-7.57414-4.37292-8.39674-10.98792-1.83736-14.77498
			C250.3011,159.07799,261.75861,159.55292,269.33273,163.92586z"/>
	</g>
</g>
</svg>
