<?xml version="1.0" encoding="utf-8"?>
<!-- Generator: Adobe Illustrator 19.0.1, SVG Export Plug-In . SVG Version: 6.00 Build 0)  -->
<svg version="1.1" width="12px" height="12px" id="Layer_1" xmlns="http://www.w3.org/2000/svg" xmlns:xlink="http://www.w3.org/1999/xlink" x="0px" y="0px"
	 viewBox="0 0 512 512" style="enable-background:new 0 0 512 512;" xml:space="preserve">
<style type="text/css">
	.st0{fill:#775F8E;}
	.st1{fill:#8667A0;}
	.st2{fill:#9D7DB7;}
	.st3{fill:#FAFAFA;}
</style>
<g>
	<path class="st0" d="M503.86038,343.36172L279.31503,473.00305c-12.05692,6.96106-33.11711,6.08807-47.03926-1.94986
		L11.51701,343.59805c-13.92214-8.03796-15.43419-20.19705-3.37727-27.15814l224.54535-129.6413
		c12.05693-6.96107,33.11713-6.08809,47.03925,1.94986l220.75876,127.45514
		C514.40527,324.24155,515.9173,336.40067,503.86038,343.36172z"/>
	<rect x="0.00006" y="182.09918" class="st0" width="511.99997" height="147.80162"/>
	<path class="st1" d="M503.86032,195.56007L279.315,325.20139c-12.05695,6.96109-33.11713,6.0881-47.03928-1.94986
		L11.51697,195.7964c-13.92214-8.03796-15.43419-20.19707-3.37727-27.15814L232.68504,38.99695
		c12.05693-6.96107,33.11711-6.08809,47.03926,1.94987l220.75876,127.45512
		C514.40521,176.4399,515.91724,188.59901,503.86032,195.56007z"/>
	<path class="st2" d="M475.54108,187.44321L276.65115,302.27237c-10.67938,6.16574-29.33334,5.39249-41.66481-1.72708
		L39.45034,187.65251c-12.33147-7.11957-13.67076-17.88945-2.9914-24.05518L235.34889,48.76817
		c10.67937-6.16573,29.33333-5.39249,41.66481,1.72709l195.53598,112.89276
		C484.88116,170.5076,486.22046,181.27747,475.54108,187.44321z"/>
	<g>
		<g>
			<path class="st3" d="M238.0972,160.85791l-5.61118,3.23961c-1.08292,0.62523-2.97449,0.54681-4.22493-0.17513l-53.26108-30.75031
				c-1.25044-0.72194-1.38626-1.81404-0.30333-2.43925l5.61116-3.23962c1.08293-0.62522,2.97449-0.54681,4.22495,0.17513
				l53.26106,30.75029C239.04431,159.14059,239.18011,160.23268,238.0972,160.85791z"/>
			<path class="st3" d="M206.60687,124.58527l-36.91998,21.34686c-1.51357,0.87514-4.35161,0.33881-5.13316-0.97006
				l-19.41728-32.51799c-0.79584-1.33278,1.1377-2.45074,3.44673-1.99287l56.33728,11.17113
				C207.18805,122.07198,208.12045,123.71013,206.60687,124.58527z"/>
		</g>
		<g>
			<path class="st3" d="M257.7876,156.50983l-8.54919-0.35437c-1.64993-0.06841-3.08351-0.89607-3.20197-1.84866l-5.04565-40.57437
				c-0.11845-0.9526,1.12305-1.66938,2.77299-1.60099l8.54919,0.35438c1.64993,0.0684,3.08351,0.89607,3.20197,1.84866
				l5.04567,40.57437C260.67905,155.86143,259.43756,156.57823,257.7876,156.50983z"/>
			<path class="st3" d="M277.19174,121.57417l-56.2899-2.31291c-2.30766-0.09482-3.94044-1.58995-2.95322-2.70425l24.5271-27.68407
				c1.00526-1.13465,3.95323-1.01352,5.25505,0.21593l31.76279,29.99698
				C280.77203,120.29324,279.49939,121.66899,277.19174,121.57417z"/>
		</g>
		<g>
			<path class="st3" d="M276.78616,164.98582l-6.47922-3.74078c-1.25046-0.72195-1.38626-1.81404-0.30334-2.43927l46.12546-26.63054
				c1.08292-0.62521,2.97449-0.54681,4.22495,0.17514l6.47922,3.74077c1.25043,0.72195,1.38626,1.81406,0.30331,2.43927
				l-46.12543,26.63054C279.92819,165.78618,278.03662,165.70776,276.78616,164.98582z"/>
			<path class="st3" d="M335.71805,151.85197l-42.68591-24.61781c-1.74997-1.00923-1.22104-2.58734,0.95667-2.85433
				l54.10385-6.63318c2.2175-0.27187,4.453,1.01739,3.98502,2.29824l-11.41788,31.25099
				C340.2002,152.55376,337.46802,152.86121,335.71805,151.85197z"/>
		</g>
		<g>
			<path class="st3" d="M273.90283,190.18262l5.61118-3.23961c1.08292-0.62521,2.97449-0.54681,4.22491,0.17514L337,217.86844
				c1.25046,0.72194,1.38626,1.81404,0.30334,2.43927l-5.61118,3.23961c-1.08292,0.62523-2.97449,0.54681-4.22495-0.17514
				l-53.26108-30.75029C272.95572,191.89995,272.81992,190.80785,273.90283,190.18262z"/>
			<path class="st3" d="M305.39313,226.45526l36.91998-21.34685c1.51358-0.87514,4.35162-0.33882,5.13318,0.97005l19.4173,32.51801
				c0.79584,1.33276-1.13773,2.45073-3.44675,1.99287l-56.33728-11.17114
				C304.81195,228.96855,303.87958,227.3304,305.39313,226.45526z"/>
		</g>
		<g>
			<path class="st3" d="M254.2124,194.5307l8.54919,0.35439c1.64996,0.06839,3.08353,0.89606,3.202,1.84865l5.04562,40.57439
				c0.11847,0.95259-1.12305,1.66937-2.77298,1.60098l-8.54919-0.35439c-1.64993-0.06839-3.0835-0.89606-3.20197-1.84866
				l-5.04565-40.57437C251.32095,195.17909,252.56247,194.46231,254.2124,194.5307z"/>
			<path class="st3" d="M234.80829,229.46637l56.28989,2.31291c2.30765,0.09482,3.94043,1.58995,2.95322,2.70424l-24.5271,27.68408
				c-1.00528,1.13464-3.95322,1.01352-5.25507-0.21594l-31.76277-29.99698
				C231.22798,230.7473,232.50063,229.37155,234.80829,229.46637z"/>
		</g>
		<g>
			<path class="st3" d="M289.52628,179.30695l-0.6138-4.93588c-0.11847-0.95259,1.12305-1.66937,2.77298-1.60098l70.27689,2.91312
				c1.64993,0.06839,3.08353,0.89606,3.20197,1.84866l0.61383,4.93588c0.11844,0.95259-1.12308,1.66937-2.77301,1.60098
				l-70.27686-2.91312C291.07831,181.08722,289.64474,180.25955,289.52628,179.30695z"/>
			<path class="st3" d="M353.46445,195.66855l-4.07715-32.50192c-0.16714-1.33246,2.21365-2.06911,4.30618-1.33238
				l51.98727,18.30333c2.13074,0.75017,2.34427,2.45233,0.38065,3.03427l-47.91016,14.19861
				C356.22284,197.94196,353.63159,197.00101,353.46445,195.66855z"/>
		</g>
		<g>
			<path class="st3" d="M222.47372,171.73358l0.61382,4.93588c0.11845,0.95259-1.12306,1.66937-2.77299,1.60098l-70.27687-2.9131
				c-1.64995-0.06841-3.08351-0.89607-3.20198-1.84866l-0.6138-4.93588c-0.11847-0.95259,1.12305-1.66939,2.77298-1.60098
				l70.27689,2.9131C220.92169,169.95331,222.35527,170.78099,222.47372,171.73358z"/>
			<path class="st3" d="M158.53557,155.37198l4.07715,32.50192c0.16714,1.33246-2.21365,2.06911-4.30617,1.33238l-51.9873-18.30331
				c-2.13074-0.75018-2.34427-2.45235-0.38063-3.03429l47.91015-14.19859
				C155.77718,153.09859,158.36842,154.03954,158.53557,155.37198z"/>
		</g>
		<g>
			<path class="st3" d="M235.21384,186.05472l6.47923,3.74078c1.25044,0.72194,1.38626,1.81404,0.30333,2.43925l-46.12544,26.63054
				c-1.08292,0.62523-2.97449,0.54681-4.22493-0.17513l-6.47922-3.74078c-1.25046-0.72194-1.38626-1.81404-0.30334-2.43927
				l46.12544-26.63054C232.07182,185.25436,233.96339,185.33276,235.21384,186.05472z"/>
			<path class="st3" d="M176.28195,199.18857l42.68594,24.6178c1.74995,1.00925,1.22102,2.58734-0.9567,2.85434l-54.10384,6.63318
				c-2.2175,0.27187-4.453-1.0174-3.98503-2.29825l11.41791-31.25099C171.79982,198.48679,174.532,198.17932,176.28195,199.18857z"
				/>
		</g>
		<path class="st3" d="M269.33292,168.42017c7.57413,4.37294,8.39676,10.98792,1.83734,14.77499
			c-6.55939,3.78706-18.01689,3.31213-25.59102-1.06081c-7.57414-4.37292-8.39676-10.98792-1.83736-14.77498
			C250.30128,163.5723,261.75876,164.04724,269.33292,168.42017z"/>
	</g>
</g>
</svg>
