<?xml version="1.0" encoding="utf-8"?>
<!-- Generator: Adobe Illustrator 19.0.1, SVG Export Plug-In . SVG Version: 6.00 Build 0)  -->
<svg version="1.1" width="12px" height="12px" id="Layer_1" xmlns="http://www.w3.org/2000/svg" xmlns:xlink="http://www.w3.org/1999/xlink" x="0px" y="0px"
	 viewBox="0 0 512 512" style="enable-background:new 0 0 512 512;" xml:space="preserve">
<style type="text/css">
	.st0{fill:#ADADAD;}
	.st1{fill:#BFBFBF;}
	.st2{fill:#CCCCCC;}
	.st3{fill:#FAFAFA;}
</style>
<g>
	<path class="st0" d="M503.86002,343.36172L279.3147,473.00305c-12.05695,6.96106-33.11713,6.08807-47.03928-1.94986
		L11.51666,343.59805C-2.40548,335.56009-3.91753,323.401,8.1394,316.43991l224.54535-129.6413
		c12.05693-6.96107,33.11711-6.08809,47.03926,1.94986l220.75876,127.45514
		C514.40491,324.24155,515.91693,336.40067,503.86002,343.36172z"/>
	<rect x="-0.00029" y="182.09918" class="st0" width="511.99997" height="147.80162"/>
	<path class="st1" d="M503.85999,195.56007L279.31464,325.20139c-12.05692,6.96109-33.11711,6.0881-47.03926-1.94986
		L11.51662,195.7964c-13.92214-8.03796-15.43419-20.19707-3.37727-27.15814L232.68469,38.99695
		c12.05693-6.96107,33.11713-6.08809,47.03925,1.94987l220.75879,127.45512
		C514.40485,176.4399,515.91693,188.59901,503.85999,195.56007z"/>
	<path class="st2" d="M475.54074,187.44321L276.65079,302.27237c-10.67935,6.16574-29.33333,5.39249-41.66479-1.72708
		L39.44999,187.65251c-12.33147-7.11957-13.67076-17.88945-2.9914-24.05518L235.34854,48.76817
		c10.67937-6.16573,29.33331-5.39249,41.66479,1.72709l195.53601,112.89276
		C484.8808,170.5076,486.22009,181.27747,475.54074,187.44321z"/>
	<g>
		<g>
			<path class="st3" d="M232.60942,160.24983l-5.61118,3.23962c-1.08292,0.62521-2.97449,0.54681-4.22493-0.17514
				l-53.26108-30.75029c-1.25044-0.72195-1.38626-1.81404-0.30333-2.43927l5.61116-3.23961
				c1.08293-0.62522,2.97449-0.54681,4.22495,0.17513l53.26106,30.7503
				C233.55653,158.53252,233.69234,159.62462,232.60942,160.24983z"/>
			<path class="st3" d="M201.11909,123.9772l-36.91998,21.34686c-1.51357,0.87514-4.35161,0.33881-5.13316-0.97006
				l-19.41728-32.51798c-0.79584-1.33278,1.1377-2.45074,3.44673-1.99288l56.33728,11.17114
				C201.70027,121.46391,202.63268,123.10206,201.11909,123.9772z"/>
		</g>
		<g>
			<path class="st3" d="M252.29984,155.90176l-8.54921-0.35439c-1.64993-0.06839-3.08351-0.89606-3.20197-1.84866l-5.04565-40.57437
				c-0.11845-0.95259,1.12305-1.66937,2.77299-1.60098l8.54919,0.35438c1.64993,0.0684,3.08351,0.89607,3.20197,1.84866
				l5.04565,40.57438C255.19128,155.25337,253.94977,155.97015,252.29984,155.90176z"/>
			<path class="st3" d="M271.70395,120.96609l-56.28989-2.31291c-2.30766-0.09482-3.94044-1.58995-2.95322-2.70425l24.5271-27.68407
				c1.00526-1.13465,3.95323-1.01353,5.25505,0.21593l31.7628,29.99698
				C275.28427,119.68517,274.01163,121.06092,271.70395,120.96609z"/>
		</g>
		<g>
			<path class="st3" d="M271.2984,164.37775l-6.47922-3.74078c-1.25046-0.72194-1.38626-1.81404-0.30334-2.43927l46.12543-26.63052
				c1.08295-0.62523,2.97449-0.54681,4.22495,0.17513l6.47922,3.74078c1.25046,0.72194,1.38626,1.81404,0.30334,2.43927
				l-46.12543,26.63052C274.4404,165.1781,272.54886,165.0997,271.2984,164.37775z"/>
			<path class="st3" d="M330.23029,151.2439l-42.68594-24.61781c-1.74994-1.00923-1.22101-2.58734,0.9567-2.85433l54.10385-6.63318
				c2.2175-0.27187,4.453,1.01739,3.98502,2.29824l-11.41791,31.251C334.71243,151.94568,331.98022,152.25313,330.23029,151.2439z"
				/>
		</g>
		<g>
			<path class="st3" d="M268.41504,189.57455l5.61118-3.23961c1.08292-0.62523,2.97449-0.54681,4.22495,0.17513l53.26108,30.75029
				c1.25043,0.72195,1.38623,1.81406,0.30331,2.43927l-5.61118,3.23961c-1.08292,0.62523-2.97449,0.54681-4.22491-0.17513
				l-53.26108-30.75029C267.46793,191.29187,267.33212,190.19978,268.41504,189.57455z"/>
			<path class="st3" d="M299.90536,225.8472l36.91998-21.34686c1.51358-0.87514,4.35159-0.33881,5.13315,0.97006l19.4173,32.51799
				c0.79584,1.33278-1.1377,2.45073-3.44672,1.99287l-56.33728-11.17114
				C299.32419,228.36049,298.39178,226.72234,299.90536,225.8472z"/>
		</g>
		<g>
			<path class="st3" d="M248.72462,193.92264l8.54921,0.35437c1.64993,0.06839,3.0835,0.89607,3.20197,1.84866l5.04565,40.57437
				c0.11847,0.95259-1.12305,1.66937-2.77298,1.60098l-8.54921-0.35437c-1.64993-0.06841-3.08351-0.89607-3.20197-1.84866
				l-5.04565-40.57437C245.83318,194.57103,247.07469,193.85423,248.72462,193.92264z"/>
			<path class="st3" d="M229.32051,228.85829l56.2899,2.31291c2.30765,0.09482,3.94043,1.58995,2.95319,2.70425l-24.5271,27.68405
				c-1.00525,1.13467-3.95322,1.01355-5.25504-0.21591l-31.76279-29.99698
				C225.7402,230.13922,227.01285,228.76347,229.32051,228.85829z"/>
		</g>
		<g>
			<path class="st3" d="M284.03851,178.69888l-0.6138-4.93588c-0.11847-0.95259,1.12305-1.66937,2.77298-1.60098l70.27689,2.9131
				c1.64993,0.06839,3.0835,0.89607,3.20197,1.84866l0.6138,4.93588c0.11847,0.95259-1.12305,1.66937-2.77298,1.60098
				l-70.27689-2.9131C285.59055,180.47914,284.15698,179.65147,284.03851,178.69888z"/>
			<path class="st3" d="M347.97665,195.06049l-4.07715-32.50194c-0.16714-1.33244,2.21368-2.06909,4.30618-1.33238l51.9873,18.30333
				c2.13074,0.75018,2.34427,2.45233,0.38062,3.03427l-47.91013,14.19861
				C350.73505,197.33388,348.1438,196.39293,347.97665,195.06049z"/>
		</g>
		<g>
			<path class="st3" d="M216.98595,171.1255l0.61382,4.93588c0.11845,0.95259-1.12305,1.66939-2.77299,1.601l-70.27687-2.91312
				c-1.64995-0.06839-3.08351-0.89607-3.20198-1.84866l-0.6138-4.93588c-0.11845-0.95259,1.12305-1.66937,2.77298-1.60098
				l70.27689,2.91312C215.43391,169.34525,216.86749,170.17291,216.98595,171.1255z"/>
			<path class="st3" d="M153.04779,154.76392l4.07715,32.50192c0.16714,1.33244-2.21365,2.06909-4.30617,1.33238l-51.9873-18.30333
				c-2.13074-0.75017-2.34427-2.45233-0.38063-3.03427l47.91015-14.19861
				C150.2894,152.49051,152.88065,153.43146,153.04779,154.76392z"/>
		</g>
		<g>
			<path class="st3" d="M229.72607,185.44664l6.47922,3.74078c1.25044,0.72195,1.38626,1.81404,0.30333,2.43927l-46.12544,26.63054
				c-1.08292,0.62521-2.97449,0.54681-4.22493-0.17514l-6.47922-3.74078c-1.25046-0.72194-1.38626-1.81404-0.30334-2.43925
				l46.12544-26.63054C226.58405,184.64629,228.47562,184.7247,229.72607,185.44664z"/>
			<path class="st3" d="M170.79417,198.58049l42.68594,24.61781c1.74995,1.00923,1.22102,2.58734-0.9567,2.85432l-54.10384,6.63318
				c-2.2175,0.27188-4.453-1.01738-3.98503-2.29823l11.41791-31.25099C166.31204,197.87871,169.04422,197.57126,170.79417,198.58049
				z"/>
		</g>
		<path class="st3" d="M263.84512,167.8121c7.57416,4.37292,8.39676,10.98792,1.83737,14.77498
			c-6.55942,3.78708-18.01689,3.31213-25.59103-1.06079c-7.57414-4.37294-8.39676-10.98792-1.83736-14.77499
			C244.81351,162.96423,256.271,163.43916,263.84512,167.8121z"/>
	</g>
</g>
</svg>
