<?xml version="1.0" encoding="utf-8"?>
<!-- Generator: Adobe Illustrator 19.0.1, SVG Export Plug-In . SVG Version: 6.00 Build 0)  -->
<svg version="1.1" width="12px" height="12px" id="Layer_1" xmlns="http://www.w3.org/2000/svg" xmlns:xlink="http://www.w3.org/1999/xlink" x="0px" y="0px"
	 viewBox="0 0 512 512" style="enable-background:new 0 0 512 512;" xml:space="preserve">
<style type="text/css">
	.st0{fill:#4BB7E2;}
	.st1{fill:#60C7E2;}
	.st2{fill:#7AD5EA;}
	.st3{fill:#FAFAFA;}
</style>
<g>
	<path class="st0" d="M503.86017,343.36172L279.31482,473.00305c-12.05692,6.96106-33.11711,6.08807-47.03925-1.94986
		L11.51681,343.59805c-13.92214-8.03796-15.43419-20.19705-3.37727-27.15814l224.54533-129.6413
		c12.05693-6.96107,33.11713-6.08809,47.03928,1.94986l220.75876,127.45514
		C514.40503,324.24155,515.91711,336.40067,503.86017,343.36172z"/>
	<rect x="-0.00015" y="182.09918" class="st0" width="511.99997" height="147.80161"/>
	<path class="st1" d="M503.86014,195.56007L279.31479,325.20139c-12.05695,6.96109-33.11713,6.0881-47.03926-1.94986
		L11.51676,195.7964c-13.92214-8.03796-15.43419-20.19707-3.37727-27.15814L232.68483,38.99695
		c12.05693-6.96107,33.11711-6.08809,47.03926,1.94987l220.75876,127.45512
		C514.40497,176.4399,515.91705,188.59901,503.86014,195.56007z"/>
	<path class="st2" d="M475.54089,187.44321L276.65094,302.27237c-10.67938,6.16574-29.33333,5.39249-41.66479-1.72708
		L39.45013,187.65251c-12.33147-7.11957-13.67076-17.88945-2.9914-24.05518L235.34868,48.76817
		c10.67937-6.16573,29.33333-5.39249,41.66481,1.72709L472.5495,163.38802
		C484.88095,170.5076,486.22025,181.27747,475.54089,187.44321z"/>
	<g>
		<g>
			<path class="st3" d="M238.097,160.948l-5.61116,3.23962c-1.08292,0.62521-2.97449,0.54681-4.22495-0.17514l-53.26106-30.75029
				c-1.25044-0.72195-1.38626-1.81404-0.30334-2.43927l5.61118-3.23961c1.08292-0.62522,2.97449-0.54681,4.22493,0.17513
				l53.26108,30.7503C239.04411,159.23068,239.17993,160.32278,238.097,160.948z"/>
			<path class="st3" d="M206.60669,124.67536l-36.91998,21.34686c-1.51358,0.87514-4.35161,0.33881-5.13316-0.97005
				l-19.41728-32.518c-0.79584-1.33278,1.1377-2.45074,3.44673-1.99288l56.33727,11.17114
				C207.18787,122.16208,208.12027,123.80022,206.60669,124.67536z"/>
		</g>
		<g>
			<path class="st3" d="M257.78741,156.59993l-8.54919-0.35439c-1.64993-0.06839-3.08351-0.89606-3.20197-1.84866l-5.04565-40.57437
				c-0.11847-0.95259,1.12305-1.66937,2.77298-1.60098l8.54921,0.35438c1.64993,0.0684,3.08351,0.89607,3.20197,1.84866
				l5.04564,40.57438C260.67886,155.95154,259.43735,156.66832,257.78741,156.59993z"/>
			<path class="st3" d="M277.19153,121.66426l-56.28987-2.31291c-2.30766-0.09482-3.94044-1.58995-2.95322-2.70425l24.5271-27.68407
				c1.00526-1.13465,3.95322-1.01353,5.25505,0.21593l31.76279,29.99698
				C280.77185,120.38334,279.49921,121.75909,277.19153,121.66426z"/>
		</g>
		<g>
			<path class="st3" d="M276.78598,165.07591l-6.47922-3.74078c-1.25046-0.72194-1.38626-1.81404-0.30334-2.43927l46.12546-26.63052
				c1.08292-0.62523,2.97449-0.54681,4.22491,0.17513l6.47925,3.74078c1.25043,0.72194,1.38623,1.81404,0.30331,2.43927
				l-46.12543,26.63054C279.92801,165.87627,278.03644,165.79787,276.78598,165.07591z"/>
			<path class="st3" d="M335.71786,151.94206l-42.68594-24.61781c-1.74994-1.00923-1.22101-2.58734,0.9567-2.85433l54.10385-6.63318
				c2.2175-0.27187,4.453,1.01739,3.98502,2.29824l-11.41791,31.251C340.20001,152.64384,337.46783,152.95129,335.71786,151.94206z"
				/>
		</g>
		<g>
			<path class="st3" d="M273.90265,190.27272l5.61115-3.23961c1.08295-0.62523,2.97449-0.54681,4.22495,0.17513l53.26108,30.75029
				c1.25046,0.72195,1.38626,1.81406,0.30334,2.43927l-5.61118,3.23961c-1.08292,0.62523-2.97449,0.54681-4.22495-0.17513
				l-53.26108-30.75029C272.95554,191.99004,272.8197,190.89795,273.90265,190.27272z"/>
			<path class="st3" d="M305.39294,226.54536l36.91998-21.34686c1.51358-0.87514,4.35162-0.33881,5.13318,0.97006l19.4173,32.51799
				c0.79581,1.33278-1.13773,2.45073-3.44675,1.99287l-56.33728-11.17114
				C304.81177,229.05865,303.87939,227.4205,305.39294,226.54536z"/>
		</g>
		<g>
			<path class="st3" d="M254.21222,194.6208l8.54919,0.35437c1.64993,0.06839,3.08353,0.89607,3.20197,1.84866l5.04565,40.57437
				c0.11847,0.95259-1.12305,1.66939-2.77298,1.60098l-8.54919-0.35437c-1.64993-0.06841-3.08353-0.89607-3.20197-1.84866
				l-5.04565-40.57437C251.32077,195.2692,252.56229,194.5524,254.21222,194.6208z"/>
			<path class="st3" d="M234.80811,229.55646l56.28989,2.31291c2.30765,0.09483,3.94043,1.58995,2.95322,2.70425l-24.5271,27.68407
				c-1.00528,1.13464-3.95322,1.01352-5.25507-0.21594l-31.76279-29.99696
				C231.2278,230.83739,232.50044,229.46164,234.80811,229.55646z"/>
		</g>
		<g>
			<path class="st3" d="M289.52609,179.39705l-0.6138-4.93588c-0.11847-0.95259,1.12305-1.66937,2.77298-1.60098l70.27689,2.9131
				c1.64993,0.06839,3.08353,0.89607,3.20197,1.84866l0.6138,4.93588c0.11847,0.95259-1.12305,1.66937-2.77298,1.60098
				l-70.27689-2.9131C291.07813,181.17731,289.64456,180.34964,289.52609,179.39705z"/>
			<path class="st3" d="M353.46426,195.75865l-4.07715-32.50194c-0.16714-1.33244,2.21365-2.06909,4.30618-1.33238
				l51.98727,18.30333c2.13074,0.75018,2.34427,2.45233,0.38065,3.03429l-47.91016,14.19859
				C356.22266,198.03204,353.63141,197.09109,353.46426,195.75865z"/>
		</g>
		<g>
			<path class="st3" d="M222.47354,171.82367l0.6138,4.93588c0.11847,0.95261-1.12305,1.66939-2.77298,1.601l-70.27689-2.91312
				c-1.64993-0.06839-3.08351-0.89607-3.20197-1.84866l-0.6138-4.93588c-0.11847-0.95259,1.12305-1.66937,2.77298-1.60098
				l70.27689,2.91312C220.92151,170.04341,222.35509,170.87108,222.47354,171.82367z"/>
			<path class="st3" d="M158.53539,155.46208l4.07715,32.50192c0.16714,1.33244-2.21365,2.06909-4.30618,1.33238l-51.98729-18.30333
				c-2.13074-0.75017-2.34426-2.45233-0.38062-3.03427l47.91015-14.19861
				C155.77699,153.18867,158.36824,154.12962,158.53539,155.46208z"/>
		</g>
		<g>
			<path class="st3" d="M235.21365,186.14481l6.47923,3.74078c1.25044,0.72195,1.38625,1.81404,0.30333,2.43927l-46.12544,26.63054
				c-1.08292,0.62521-2.97449,0.54681-4.22493-0.17514l-6.47922-3.74078c-1.25046-0.72194-1.38626-1.81404-0.30334-2.43925
				l46.12544-26.63054C232.07164,185.34445,233.96321,185.42287,235.21365,186.14481z"/>
			<path class="st3" d="M176.28177,199.27866l42.68594,24.61781c1.74995,1.00923,1.22101,2.58734-0.9567,2.85432l-54.10384,6.63319
				c-2.2175,0.27187-4.453-1.0174-3.98503-2.29825l11.41791-31.25099C171.79964,198.57687,174.53181,198.26942,176.28177,199.27866z
				"/>
		</g>
		<path class="st3" d="M269.33273,168.51027c7.57413,4.37292,8.39673,10.98792,1.83734,14.77498
			c-6.55939,3.78708-18.01689,3.31213-25.59103-1.06079c-7.57413-4.37294-8.39674-10.98792-1.83734-14.77499
			C250.30109,163.6624,261.75858,164.13733,269.33273,168.51027z"/>
	</g>
</g>
</svg>
