<?xml version="1.0" encoding="utf-8"?>
<!-- Generator: Adobe Illustrator 19.0.1, SVG Export Plug-In . SVG Version: 6.00 Build 0)  -->
<svg version="1.1" width="12px" height="12px" id="Layer_1" xmlns="http://www.w3.org/2000/svg" xmlns:xlink="http://www.w3.org/1999/xlink" x="0px" y="0px"
	 viewBox="0 0 512 512" style="enable-background:new 0 0 512 512;" xml:space="preserve">
<style type="text/css">
	.st0{fill:#F48351;}
	.st1{fill:#FC9854;}
	.st2{fill:#FFAF73;}
	.st3{fill:#FAFAFA;}
</style>
<g>
	<path class="st0" d="M503.85999,343.36172L279.31464,473.00305c-12.05692,6.96106-33.11711,6.08807-47.03925-1.94986
		L11.51663,343.59805c-13.92214-8.03796-15.43419-20.19705-3.37727-27.15814l224.54535-129.6413
		c12.05692-6.96107,33.11711-6.08809,47.03926,1.94986l220.75876,127.45514
		C514.40485,324.24155,515.91693,336.40067,503.85999,343.36172z"/>
	<rect x="-0.00032" y="182.09918" class="st0" width="511.99997" height="147.80162"/>
	<path class="st1" d="M503.85995,195.56007L279.31461,325.20139c-12.05692,6.96109-33.11713,6.0881-47.03926-1.94986
		L11.51658,195.7964c-13.92214-8.03796-15.43419-20.19707-3.37727-27.15814L232.68466,38.99695
		c12.05692-6.96107,33.11713-6.08809,47.03925,1.94987l220.75876,127.45512
		C514.40485,176.4399,515.91687,188.59901,503.85995,195.56007z"/>
	<path class="st2" d="M475.54071,187.44321L276.65076,302.27237c-10.67935,6.16574-29.33333,5.39249-41.66479-1.72708
		L39.44995,187.65251c-12.33147-7.11957-13.67076-17.88945-2.9914-24.05518L235.34851,48.76817
		c10.67935-6.16573,29.33331-5.39249,41.66479,1.72709l195.53601,112.89276
		C484.88077,170.5076,486.22006,181.27747,475.54071,187.44321z"/>
	<g>
		<g>
			<path class="st3" d="M233.99879,156.24983l-5.61118,3.23962c-1.08292,0.62521-2.97449,0.54681-4.22493-0.17514
				l-53.26108-30.75029c-1.25044-0.72195-1.38626-1.81404-0.30334-2.43927l5.61118-3.23961
				c1.08292-0.62522,2.97449-0.54681,4.22493,0.17513l53.26108,30.7503
				C234.94589,154.53252,235.08171,155.62462,233.99879,156.24983z"/>
			<path class="st3" d="M202.50847,119.9772l-36.91998,21.34686c-1.51358,0.87514-4.35161,0.33881-5.13316-0.97006
				l-19.41728-32.51798c-0.79584-1.33278,1.1377-2.45074,3.44673-1.99288l56.33727,11.17114
				C203.08965,117.46391,204.02205,119.10206,202.50847,119.9772z"/>
		</g>
		<g>
			<path class="st3" d="M253.68919,151.90176l-8.54919-0.35439c-1.64993-0.06839-3.08351-0.89606-3.20197-1.84866l-5.04565-40.57437
				c-0.11847-0.95259,1.12305-1.66937,2.77298-1.60098l8.54921,0.35438c1.64993,0.0684,3.08351,0.89607,3.20197,1.84866
				l5.04565,40.57438C256.58066,151.25337,255.33914,151.97015,253.68919,151.90176z"/>
			<path class="st3" d="M273.09332,116.96609l-56.28989-2.31291c-2.30766-0.09482-3.94044-1.58995-2.95322-2.70425l24.5271-27.68407
				c1.00526-1.13465,3.95322-1.01353,5.25505,0.21593l31.7628,29.99698
				C276.67361,115.68517,275.40097,117.06092,273.09332,116.96609z"/>
		</g>
		<g>
			<path class="st3" d="M272.68777,160.37775l-6.47922-3.74078c-1.25046-0.72194-1.38626-1.81404-0.30334-2.43927l46.12543-26.63053
				c1.08292-0.62522,2.97449-0.54681,4.22495,0.17513l6.47922,3.74078c1.25046,0.72194,1.38626,1.81404,0.30334,2.43927
				l-46.12546,26.63052C275.82977,161.1781,273.9382,161.0997,272.68777,160.37775z"/>
			<path class="st3" d="M331.61966,147.2439l-42.68594-24.61781c-1.74997-1.00923-1.22101-2.58734,0.9567-2.85433l54.10385-6.63318
				c2.21747-0.27187,4.45297,1.01739,3.98502,2.29824l-11.41791,31.251C336.10181,147.94568,333.3696,148.25313,331.61966,147.2439z
				"/>
		</g>
		<g>
			<path class="st3" d="M269.80441,185.57455l5.61118-3.23961c1.08292-0.62523,2.97449-0.54681,4.22495,0.17513l53.26105,30.75029
				c1.25046,0.72195,1.38626,1.81406,0.30334,2.43927l-5.61118,3.23961c-1.08292,0.62523-2.97449,0.54681-4.22491-0.17513
				l-53.26108-30.75029C268.8573,187.29187,268.7215,186.19978,269.80441,185.57455z"/>
			<path class="st3" d="M301.29474,221.8472l36.91998-21.34686c1.51358-0.87514,4.35159-0.33881,5.13315,0.97006l19.4173,32.51799
				c0.79584,1.33278-1.1377,2.45073-3.44675,1.99287l-56.33725-11.17114
				C300.71356,224.36049,299.78116,222.72234,301.29474,221.8472z"/>
		</g>
		<g>
			<path class="st3" d="M250.114,189.92264l8.54921,0.35437c1.64993,0.06839,3.0835,0.89607,3.20197,1.84866l5.04565,40.57437
				c0.11847,0.95259-1.12305,1.66937-2.77298,1.60098l-8.54921-0.35437c-1.64995-0.06841-3.08351-0.89607-3.20198-1.84866
				l-5.04564-40.57437C247.22255,190.57103,248.46407,189.85423,250.114,189.92264z"/>
			<path class="st3" d="M230.70988,224.85829l56.28987,2.31291c2.30768,0.09482,3.94046,1.58995,2.95322,2.70425l-24.5271,27.68405
				c-1.00525,1.13467-3.95322,1.01355-5.25504-0.21591l-31.76279-29.99698
				C227.12958,226.13922,228.40222,224.76347,230.70988,224.85829z"/>
		</g>
		<g>
			<path class="st3" d="M285.42789,174.69888l-0.6138-4.93588c-0.11847-0.95259,1.12305-1.66937,2.77298-1.60098l70.27689,2.9131
				c1.64993,0.06839,3.0835,0.89607,3.20197,1.84866l0.6138,4.93588c0.11847,0.95259-1.12305,1.66937-2.77298,1.60098
				l-70.27689-2.9131C286.97992,176.47914,285.54633,175.65147,285.42789,174.69888z"/>
			<path class="st3" d="M349.36603,191.06049l-4.07715-32.50194c-0.16714-1.33244,2.21368-2.06909,4.30618-1.33238l51.9873,18.30333
				c2.13074,0.75018,2.34427,2.45233,0.38062,3.03427l-47.91016,14.19861
				C352.12442,193.33388,349.53317,192.39293,349.36603,191.06049z"/>
		</g>
		<g>
			<path class="st3" d="M218.37532,167.1255l0.6138,4.93588c0.11847,0.95259-1.12305,1.66939-2.77298,1.601l-70.27689-2.91312
				c-1.64993-0.06839-3.08351-0.89607-3.20197-1.84866l-0.6138-4.93588c-0.11847-0.95259,1.12305-1.66937,2.77298-1.60098
				l70.27689,2.91312C216.82329,165.34525,218.25687,166.17291,218.37532,167.1255z"/>
			<path class="st3" d="M154.43716,150.76392l4.07715,32.50192c0.16714,1.33244-2.21365,2.06909-4.30618,1.33238l-51.98728-18.30333
				c-2.13074-0.75017-2.34427-2.45233-0.38063-3.03427l47.91015-14.19861
				C151.67877,148.49051,154.27002,149.43146,154.43716,150.76392z"/>
		</g>
		<g>
			<path class="st3" d="M231.11543,181.44664l6.47923,3.74078c1.25044,0.72195,1.38625,1.81404,0.30333,2.43927l-46.12544,26.63054
				c-1.08292,0.62521-2.97449,0.54681-4.22493-0.17514l-6.47922-3.74078c-1.25046-0.72194-1.38626-1.81404-0.30334-2.43925
				l46.12544-26.63054C227.97342,180.64629,229.86499,180.7247,231.11543,181.44664z"/>
			<path class="st3" d="M172.18355,194.58049l42.68594,24.61781c1.74995,1.00923,1.22101,2.58734-0.9567,2.85432l-54.10384,6.63318
				c-2.2175,0.27188-4.453-1.01738-3.98503-2.29823l11.41791-31.25099C167.70142,193.87871,170.43359,193.57126,172.18355,194.58049
				z"/>
		</g>
		<path class="st3" d="M265.2345,163.8121c7.57416,4.37292,8.39676,10.98792,1.83737,14.77498
			c-6.55942,3.78708-18.01691,3.31213-25.59103-1.06079c-7.57414-4.37294-8.39676-10.98792-1.83736-14.77499
			C246.20287,158.96423,257.66037,159.43916,265.2345,163.8121z"/>
	</g>
</g>
</svg>
